<svg width="433" height="271" viewBox="0 0 433 271" fill="none" xmlns="http://www.w3.org/2000/svg">
<circle cx="39.4767" cy="25.2232" r="24" transform="rotate(3 39.4767 25.2232)" fill="url(#paint0_radial_3340_14382)" fill-opacity="0.2"/>
<circle cx="39.4786" cy="25.224" r="18" transform="rotate(3 39.4786 25.224)" fill="url(#paint1_radial_3340_14382)" fill-opacity="0.3"/>
<g filter="url(#filter0_i_3340_14382)">
<circle cx="39.4766" cy="25.2229" r="12" transform="rotate(3 39.4766 25.2229)" fill="url(#paint2_radial_3340_14382)"/>
</g>
<g filter="url(#filter1_d_3340_14382)">
<rect x="13.8359" y="55.9238" width="409" height="176" rx="27" transform="rotate(3 13.8359 55.9238)" fill="white" shape-rendering="crispEdges"/>
<rect x="14.7822" y="56.9748" width="407" height="174" rx="26" transform="rotate(3 14.7822 56.9748)" stroke="#EBEFF4" stroke-width="2" shape-rendering="crispEdges"/>
<path d="M33.3108 96.9996L34.0721 82.4741L43.0796 82.9461L42.9807 84.8327L36.1648 84.4755L35.9328 88.9013L42.1034 89.2247L42.0049 91.1042L35.8343 90.7808L35.5024 97.1144L33.3108 96.9996ZM48.9271 98.0385C47.8537 97.9822 46.9414 97.7044 46.1899 97.2052C45.4435 96.7014 44.8818 96.02 44.5048 95.161C44.1329 94.2976 43.9765 93.3008 44.0357 92.1707C44.0942 91.0548 44.3538 90.0823 44.8145 89.253C45.2799 88.4239 45.901 87.7903 46.6779 87.3521C47.4594 86.9142 48.3562 86.7218 49.368 86.7748C49.9827 86.807 50.5732 86.9399 51.1394 87.1735C51.7056 87.407 52.2066 87.7533 52.6424 88.2123C53.0783 88.6714 53.4104 89.2554 53.6388 89.9643C53.8674 90.6686 53.9558 91.5148 53.904 92.503L53.8646 93.2548L45.2046 92.801L45.2879 91.2122L51.8697 91.5572C51.899 90.9992 51.8114 90.4992 51.607 90.057C51.4028 89.6101 51.1016 89.2506 50.7034 88.9784C50.3099 88.7065 49.8389 88.5561 49.2904 88.5274C48.6946 88.4962 48.1668 88.6155 47.707 88.8854C47.2521 89.1508 46.8919 89.5112 46.6262 89.9666C46.3655 90.4176 46.2209 90.915 46.1924 91.4588L46.1273 92.7C46.0892 93.4281 46.1844 94.0542 46.413 94.5783C46.6463 95.1026 46.9875 95.5116 47.4368 95.8054C47.8863 96.0945 48.4207 96.2553 49.0402 96.2877C49.4421 96.3088 49.8115 96.2713 50.1484 96.1751C50.4856 96.0743 50.7808 95.9143 51.0341 95.6952C51.2874 95.4762 51.4868 95.1998 51.6323 94.866L53.6206 95.333C53.4288 95.9156 53.1132 96.4182 52.6739 96.8409C52.2394 97.2591 51.7037 97.5747 51.0667 97.7879C50.4346 97.9966 49.7214 98.0801 48.9271 98.0385ZM60.849 98.6633C59.7757 98.607 58.8633 98.3292 58.1119 97.83C57.3654 97.3262 56.8037 96.6448 56.4268 95.7858C56.0548 94.9224 55.8984 93.9256 55.9576 92.7955C56.0161 91.6796 56.2757 90.7071 56.7364 89.8778C57.2018 89.0487 57.823 88.4151 58.5998 87.9769C59.3814 87.539 60.2781 87.3466 61.2899 87.3996C61.9046 87.4318 62.4951 87.5647 63.0613 87.7983C63.6275 88.0318 64.1285 88.3781 64.5644 88.8371C65.0002 89.2962 65.3323 89.8802 65.5607 90.5891C65.7893 91.2934 65.8777 92.1396 65.8259 93.1278L65.7865 93.8796L57.1265 93.4258L57.2098 91.837L63.7917 92.182C63.8209 91.624 63.7333 91.124 63.5289 90.6818C63.3247 90.2349 63.0235 89.8754 62.6253 89.6032C62.2318 89.3313 61.7608 89.181 61.2123 89.1522C60.6165 89.121 60.0887 89.2403 59.6289 89.5102C59.1741 89.7756 58.8138 90.136 58.5481 90.5914C58.2874 91.0424 58.1428 91.5398 58.1143 92.0836L58.0493 93.3248C58.0111 94.0529 58.1063 94.679 58.3349 95.2031C58.5682 95.7274 58.9094 96.1364 59.3587 96.4302C59.8082 96.7193 60.3427 96.8801 60.9621 96.9125C61.364 96.9336 61.7334 96.8961 62.0703 96.7999C62.4075 96.6991 62.7028 96.5391 62.956 96.3201C63.2093 96.101 63.4087 95.8246 63.5542 95.4908L65.5425 95.9578C65.3507 96.5404 65.0352 97.043 64.5958 97.4657C64.1614 97.8839 63.6256 98.1995 62.9886 98.4127C62.3566 98.6214 61.6434 98.7049 60.849 98.6633ZM72.1542 99.2486C71.2748 99.2026 70.5016 98.9368 69.8348 98.4514C69.173 97.9616 68.6678 97.2879 68.3192 96.4304C67.9756 95.5685 67.8346 94.5488 67.8963 93.3714C67.958 92.1941 68.207 91.1972 68.6434 90.3809C69.0844 89.5648 69.6617 88.9526 70.3754 88.5443C71.089 88.136 71.8832 87.9548 72.7579 88.0006C73.4341 88.0361 73.9719 88.178 74.3714 88.4266C74.7758 88.6706 75.0837 88.9475 75.2951 89.2573C75.5112 89.5673 75.6771 89.8392 75.7929 90.0728L75.9205 90.0795L76.2034 84.6821L78.3241 84.7932L77.5628 99.3187L75.4918 99.2102L75.5806 97.5151L75.4033 97.5058C75.2635 97.7308 75.0652 97.9859 74.8085 98.2712C74.5564 98.5567 74.2165 98.7996 73.7888 99C73.3611 99.2005 72.8162 99.2833 72.1542 99.2486ZM72.7171 97.4646C73.3271 97.4965 73.8509 97.3628 74.2886 97.0633C74.7312 96.7594 75.0764 96.3247 75.3242 95.7592C75.5766 95.194 75.7229 94.5284 75.7631 93.7624C75.8027 93.0058 75.7287 92.3382 75.5409 91.7594C75.3531 91.1806 75.0571 90.7217 74.6529 90.3829C74.2487 90.044 73.7369 89.8584 73.1174 89.8259C72.4791 89.7925 71.9385 89.9301 71.4956 90.2388C71.0527 90.5474 70.7075 90.9821 70.46 91.5429C70.2173 92.1039 70.0771 92.7437 70.0394 93.4624C70.0012 94.1906 70.0757 94.8512 70.2627 95.4441C70.4497 96.0371 70.7471 96.515 71.1548 96.8777C71.5675 97.236 72.0883 97.4316 72.7171 97.4646ZM80.9595 99.4967L81.7207 84.9712L83.8414 85.0824L83.5585 90.4798L83.6862 90.4865C83.821 90.266 84.0121 90.0128 84.2594 89.7271C84.5067 89.4413 84.8419 89.1981 85.2649 88.9975C85.6881 88.7921 86.2379 88.7071 86.914 88.7425C87.7935 88.7886 88.5667 89.052 89.2338 89.5326C89.9008 90.0133 90.4087 90.6823 90.7573 91.5398C91.1106 92.3975 91.2564 93.4151 91.1947 94.5925C91.133 95.7698 90.8838 96.769 90.4473 97.5901C90.011 98.4065 89.4381 99.0236 88.7287 99.4416C88.0196 99.8549 87.2252 100.038 86.3458 99.9924C85.6838 99.9577 85.1482 99.8182 84.739 99.5739C84.3346 99.3299 84.022 99.0527 83.8012 98.7424C83.5804 98.4322 83.4122 98.1578 83.2967 97.9195L83.1194 97.9102L83.0305 99.6053L80.9595 99.4967ZM83.3231 94.1586C83.2829 94.9246 83.3589 95.6018 83.5509 96.1903C83.7429 96.7788 84.0407 97.2473 84.4445 97.5956C84.8484 97.9391 85.3554 98.1269 85.9654 98.1589C86.599 98.1921 87.1373 98.052 87.5805 97.7386C88.0239 97.4204 88.3696 96.9763 88.6175 96.4061C88.8703 95.8361 89.0157 95.1871 89.0538 94.4589C89.0915 93.7402 89.0166 93.0891 88.8291 92.5056C88.6463 91.9223 88.3484 91.4539 87.9355 91.1003C87.5273 90.747 87.004 90.5537 86.3657 90.5202C85.751 90.488 85.2226 90.6191 84.7804 90.9136C84.343 91.2084 84.0007 91.6338 83.7534 92.1898C83.5062 92.7458 83.3627 93.402 83.3231 94.1586ZM96.6491 100.561C95.9588 100.525 95.3413 100.364 94.7967 100.08C94.2524 99.7904 93.83 99.3913 93.5295 98.8825C93.2338 98.3739 93.1046 97.7626 93.142 97.0486C93.1742 96.4339 93.319 95.9342 93.5762 95.5494C93.8334 95.1646 94.1691 94.8669 94.5831 94.6562C94.9972 94.4456 95.4555 94.2942 95.9582 94.202C96.4609 94.1098 96.9715 94.0465 97.4901 94.012C98.1466 93.9706 98.6794 93.9369 99.0885 93.9109C99.4979 93.8802 99.7978 93.8129 99.9881 93.7091C100.178 93.6053 100.28 93.4257 100.294 93.1704L100.296 93.1208C100.329 92.5013 100.179 92.0122 99.8469 91.6535C99.5196 91.2949 99.0131 91.0977 98.3275 91.0618C97.6135 91.0244 97.0426 91.1533 96.6146 91.4485C96.1916 91.7393 95.892 92.0721 95.7159 92.4469L93.7467 91.8885C94.0178 91.2389 94.391 90.7227 94.8662 90.3399C95.3464 89.9525 95.8893 89.6823 96.4947 89.5291C97.1004 89.3712 97.7319 89.3094 98.3891 89.3439C98.8241 89.3667 99.2824 89.4429 99.764 89.5724C100.251 89.6975 100.7 89.9059 101.111 90.1977C101.527 90.4898 101.859 90.8936 102.107 91.4092C102.355 91.9201 102.459 92.5727 102.417 93.367L102.038 100.601L99.9669 100.493L100.045 99.0034L99.9598 98.999C99.8083 99.266 99.5885 99.5248 99.3004 99.7752C99.0123 100.026 98.6485 100.227 98.209 100.379C97.7696 100.532 97.2496 100.592 96.6491 100.561ZM97.1993 98.8828C97.7856 98.9135 98.2929 98.8239 98.7212 98.614C99.1541 98.4044 99.4891 98.1185 99.7262 97.7564C99.9683 97.3897 100.101 96.9913 100.123 96.561L100.197 95.1567C100.117 95.2284 99.9668 95.2916 99.7458 95.3464C99.5299 95.3967 99.2835 95.4383 99.0068 95.4713C98.7303 95.4994 98.461 95.5256 98.199 95.5498C97.9372 95.5693 97.7182 95.5863 97.542 95.6007C97.1279 95.6312 96.7474 95.699 96.4006 95.8041C96.0584 95.9094 95.7796 96.0726 95.5641 96.2936C95.3536 96.5102 95.2385 96.8076 95.2187 97.1859C95.1912 97.7107 95.3642 98.1181 95.7378 98.4079C96.1116 98.693 96.5988 98.8513 97.1993 98.8828ZM109.64 101.22C108.585 101.165 107.69 100.879 106.954 100.361C106.222 99.8393 105.676 99.1444 105.313 98.2768C104.951 97.4091 104.798 96.4291 104.856 95.3368C104.914 94.2304 105.173 93.2649 105.633 92.4403C106.094 91.611 106.715 90.9774 107.497 90.5395C108.278 90.1016 109.182 89.9095 110.208 89.9633C111.036 90.0067 111.765 90.199 112.397 90.5403C113.029 90.8769 113.529 91.3298 113.897 91.8991C114.271 92.4686 114.476 93.1219 114.513 93.8587L112.449 93.7505C112.362 93.2339 112.125 92.7806 111.738 92.3904C111.355 92.0006 110.826 91.7879 110.15 91.7525C109.559 91.7215 109.033 91.8504 108.572 92.1392C108.116 92.4235 107.75 92.8453 107.475 93.4045C107.199 93.959 107.041 94.624 107 95.3995C106.959 96.1938 107.043 96.8857 107.254 97.4752C107.465 98.0647 107.782 98.5294 108.205 98.8693C108.633 99.2094 109.147 99.3951 109.748 99.4266C110.15 99.4477 110.518 99.3935 110.852 99.264C111.19 99.13 111.478 98.9294 111.715 98.662C111.957 98.395 112.133 98.0676 112.243 97.6798L114.307 97.788C114.195 98.4885 113.932 99.1054 113.52 99.6385C113.108 100.172 112.572 100.58 111.913 100.863C111.258 101.146 110.5 101.265 109.64 101.22ZM118.738 97.7713L118.86 95.1818L119.228 95.2011L123.811 90.8184L126.35 90.9515L121.124 95.9405L120.791 95.923L118.738 97.7713ZM116.594 101.364L117.355 86.8388L119.476 86.9499L118.715 101.475L116.594 101.364ZM123.474 101.725L119.844 96.3428L121.383 94.9371L126.077 101.861L123.474 101.725Z" fill="black"/>
<path d="M395.766 101.194C396.074 100.917 396.548 100.942 396.825 101.249C397.102 101.557 397.077 102.031 396.77 102.308L389.679 108.693L396.063 115.784C396.341 116.092 396.316 116.566 396.008 116.843C395.7 117.12 395.226 117.095 394.949 116.788L388.564 109.697L381.473 116.081C381.165 116.359 380.691 116.334 380.414 116.026C380.137 115.718 380.162 115.244 380.47 114.967L387.561 108.582L381.176 101.491C380.899 101.183 380.923 100.709 381.231 100.432C381.539 100.155 382.013 100.18 382.29 100.488L388.675 107.578L395.766 101.194Z" fill="#292D32"/>
<rect x="30.4609" y="120.883" width="369" height="88" rx="12" transform="rotate(3 30.4609 120.883)" fill="#F9FAFB"/>
<rect x="30.4609" y="120.883" width="369" height="88" rx="12" transform="rotate(3 30.4609 120.883)" stroke="#EBEFF4" stroke-width="2"/>
<path d="M40.9205 142.915L43.5802 143.054L47.6128 154.588L47.783 154.597L52.9991 143.548L55.6588 143.687L54.8976 158.213L52.8124 158.103L53.3632 147.592L53.2285 147.585L48.3948 157.85L46.6642 157.76L42.9305 147.038L42.7957 147.031L42.2445 157.549L40.1593 157.44L40.9205 142.915ZM61.0714 158.778C60.3811 158.742 59.7636 158.581 59.219 158.297C58.6747 158.008 58.2523 157.608 57.9518 157.1C57.6561 156.591 57.5269 155.98 57.5643 155.266C57.5965 154.651 57.7413 154.151 57.9985 153.767C58.2557 153.382 58.5914 153.084 59.0054 152.873C59.4195 152.663 59.8778 152.511 60.3805 152.419C60.8832 152.327 61.3938 152.264 61.9124 152.229C62.5689 152.188 63.1017 152.154 63.5108 152.128C63.9202 152.097 64.2201 152.03 64.4104 151.926C64.6008 151.822 64.7026 151.643 64.716 151.388L64.7186 151.338C64.7511 150.718 64.6013 150.229 64.2692 149.871C63.9419 149.512 63.4354 149.315 62.7498 149.279C62.0358 149.242 61.4649 149.37 61.0369 149.666C60.6139 149.956 60.3143 150.289 60.1382 150.664L58.169 150.106C58.4401 149.456 58.8133 148.94 59.2885 148.557C59.7687 148.17 60.3116 147.899 60.917 147.746C61.5227 147.588 62.1542 147.527 62.8114 147.561C63.2464 147.584 63.7047 147.66 64.1863 147.79C64.6728 147.915 65.1218 148.123 65.5332 148.415C65.9494 148.707 66.2815 149.111 66.5294 149.626C66.7777 150.137 66.881 150.79 66.8393 151.584L66.4602 158.819L64.3892 158.71L64.4672 157.221L64.3821 157.216C64.2306 157.483 64.0108 157.742 63.7227 157.992C63.4346 158.243 63.0708 158.444 62.6313 158.597C62.1919 158.749 61.6719 158.809 61.0714 158.778ZM61.6216 157.1C62.2079 157.131 62.7152 157.041 63.1435 156.831C63.5764 156.622 63.9114 156.336 64.1485 155.974C64.3906 155.607 64.5229 155.208 64.5454 154.778L64.619 153.374C64.5394 153.446 64.3891 153.509 64.1681 153.564C63.9522 153.614 63.7058 153.656 63.4291 153.688C63.1526 153.717 62.8833 153.743 62.6213 153.767C62.3595 153.786 62.1405 153.803 61.9643 153.818C61.5502 153.848 61.1697 153.916 60.8229 154.021C60.4807 154.127 60.2019 154.29 59.9864 154.511C59.7759 154.727 59.6608 155.025 59.641 155.403C59.6135 155.928 59.7865 156.335 60.1601 156.625C60.5339 156.91 61.0211 157.068 61.6216 157.1ZM70.0211 163.102C69.7043 163.085 69.4172 163.044 69.1599 162.978C68.9023 162.917 68.7112 162.855 68.5865 162.792L69.1882 161.081C69.5705 161.205 69.9133 161.268 70.2167 161.27C70.52 161.272 70.7931 161.172 71.036 160.972C71.2835 160.771 71.5098 160.434 71.7147 159.962L72.0151 159.252L68.6074 148.007L70.8771 148.126L73.193 156.725L73.3065 156.731L76.5085 148.421L78.7852 148.54L73.6485 160.653C73.4107 161.21 73.1208 161.676 72.7787 162.051C72.4364 162.432 72.0377 162.71 71.5829 162.885C71.128 163.06 70.6074 163.132 70.0211 163.102ZM80.3775 159.548L81.1388 145.022L83.2594 145.134L82.9766 150.531L83.1042 150.538C83.2391 150.317 83.4301 150.064 83.6774 149.778C83.9247 149.493 84.2599 149.249 84.6829 149.049C85.1062 148.843 85.6559 148.758 86.332 148.794C87.2115 148.84 87.9848 149.103 88.6518 149.584C89.3189 150.064 89.8267 150.734 90.1753 151.591C90.5286 152.449 90.6744 153.466 90.6127 154.644C90.551 155.821 90.3019 156.82 89.8653 157.641C89.429 158.458 88.8561 159.075 88.1467 159.493C87.4376 159.906 86.6433 160.09 85.7638 160.044C85.1018 160.009 84.5662 159.869 84.1571 159.625C83.7526 159.381 83.44 159.104 83.2192 158.794C82.9984 158.483 82.8302 158.209 82.7147 157.971L82.5374 157.961L82.4485 159.656L80.3775 159.548ZM82.7411 154.21C82.701 154.976 82.7769 155.653 82.9689 156.242C83.1609 156.83 83.4588 157.298 83.8625 157.647C84.2665 157.99 84.7734 158.178 85.3834 158.21C86.017 158.243 86.5553 158.103 86.9985 157.79C87.4419 157.472 87.7876 157.027 88.0356 156.457C88.2883 155.887 88.4337 155.238 88.4719 154.51C88.5095 153.791 88.4346 153.14 88.2471 152.557C88.0643 151.973 87.7664 151.505 87.3535 151.152C86.9453 150.798 86.422 150.605 85.7837 150.571C85.169 150.539 84.6406 150.67 84.1984 150.965C83.761 151.26 83.4187 151.685 83.1714 152.241C82.9242 152.797 82.7808 153.453 82.7411 154.21ZM97.3934 160.66C96.3201 160.604 95.4077 160.326 94.6563 159.827C93.9098 159.323 93.3481 158.642 92.9712 157.783C92.5992 156.919 92.4428 155.923 92.502 154.792C92.5605 153.677 92.8201 152.704 93.2808 151.875C93.7462 151.046 94.3674 150.412 95.1442 149.974C95.9258 149.536 96.8225 149.343 97.8344 149.397C98.449 149.429 99.0395 149.562 99.6057 149.795C100.172 150.029 100.673 150.375 101.109 150.834C101.545 151.293 101.877 151.877 102.105 152.586C102.334 153.29 102.422 154.136 102.37 155.125L102.331 155.877L93.6709 155.423L93.7542 153.834L100.336 154.179C100.365 153.621 100.278 153.121 100.073 152.679C99.8692 152.232 99.568 151.872 99.1697 151.6C98.7762 151.328 98.3052 151.178 97.7567 151.149C97.161 151.118 96.6332 151.237 96.1733 151.507C95.7185 151.772 95.3582 152.133 95.0925 152.588C94.8318 153.039 94.6872 153.537 94.6587 154.08L94.5937 155.322C94.5555 156.05 94.6507 156.676 94.8793 157.2C95.1126 157.724 95.4539 158.133 95.9031 158.427C96.3526 158.716 96.8871 158.877 97.5065 158.909C97.9084 158.931 98.2778 158.893 98.6148 158.797C98.9519 158.696 99.2472 158.536 99.5005 158.317C99.7538 158.098 99.9532 157.822 100.099 157.488L102.087 157.955C101.895 158.537 101.58 159.04 101.14 159.463C100.706 159.881 100.17 160.196 99.533 160.41C98.901 160.618 98.1878 160.702 97.3934 160.66ZM112.177 154.728L111.838 161.197L109.718 161.086L110.479 146.56L112.571 146.67L112.288 152.074L112.423 152.081C112.709 151.508 113.123 151.063 113.666 150.745C114.209 150.428 114.904 150.291 115.75 150.335C116.497 150.375 117.142 150.562 117.683 150.899C118.23 151.236 118.641 151.717 118.916 152.343C119.197 152.965 119.313 153.73 119.266 154.638L118.902 161.567L116.782 161.456L117.132 154.782C117.173 153.983 117 153.352 116.612 152.891C116.224 152.425 115.663 152.173 114.93 152.135C114.429 152.108 113.974 152.191 113.566 152.383C113.162 152.575 112.836 152.871 112.588 153.271C112.344 153.666 112.207 154.151 112.177 154.728ZM121.732 161.715L122.303 150.821L124.424 150.932L123.853 161.826L121.732 161.715ZM123.462 149.196C123.094 149.177 122.783 149.037 122.531 148.778C122.284 148.513 122.17 148.209 122.188 147.864C122.206 147.514 122.352 147.223 122.625 146.99C122.903 146.754 123.226 146.645 123.595 146.664C123.964 146.684 124.272 146.825 124.519 147.09C124.771 147.349 124.887 147.654 124.869 148.004C124.851 148.349 124.703 148.64 124.425 148.877C124.152 149.109 123.831 149.216 123.462 149.196ZM131.048 166.528C130.182 166.482 129.444 166.33 128.831 166.07C128.224 165.811 127.734 165.484 127.361 165.09C126.988 164.696 126.716 164.271 126.546 163.817L128.408 163.16C128.524 163.375 128.683 163.604 128.884 163.847C129.089 164.095 129.372 164.311 129.732 164.496C130.097 164.681 130.572 164.789 131.158 164.819C131.962 164.862 132.637 164.7 133.182 164.335C133.727 163.975 134.022 163.369 134.067 162.518L134.179 160.376L134.044 160.369C133.905 160.594 133.707 160.842 133.451 161.113C133.199 161.385 132.86 161.613 132.433 161.8C132.006 161.986 131.459 162.061 130.793 162.027C129.932 161.981 129.167 161.74 128.498 161.302C127.834 160.859 127.321 160.233 126.961 159.422C126.605 158.607 126.458 157.62 126.518 156.461C126.579 155.303 126.827 154.32 127.263 153.513C127.704 152.707 128.281 152.102 128.994 151.698C129.708 151.29 130.502 151.109 131.377 151.154C132.053 151.19 132.593 151.332 132.997 151.581C133.402 151.825 133.712 152.102 133.928 152.412C134.149 152.722 134.317 152.994 134.433 153.228L134.589 153.236L134.682 151.47L136.76 151.579L136.176 162.714C136.127 163.65 135.869 164.407 135.403 164.985C134.936 165.563 134.324 165.976 133.567 166.226C132.814 166.476 131.974 166.576 131.048 166.528ZM131.353 160.292C131.963 160.324 132.486 160.209 132.922 159.948C133.362 159.681 133.705 159.287 133.951 158.764C134.201 158.237 134.346 157.597 134.386 156.845C134.424 156.112 134.349 155.461 134.161 154.892C133.973 154.323 133.676 153.871 133.272 153.537C132.867 153.198 132.356 153.012 131.736 152.98C131.098 152.946 130.557 153.084 130.114 153.393C129.672 153.696 129.327 154.124 129.08 154.675C128.838 155.227 128.698 155.85 128.662 156.545C128.625 157.259 128.7 157.891 128.89 158.442C129.079 158.992 129.378 159.43 129.788 159.755C130.203 160.08 130.724 160.259 131.353 160.292ZM141.492 156.265L141.153 162.733L139.033 162.622L139.794 148.096L141.886 148.206L141.603 153.611L141.738 153.618C142.024 153.045 142.438 152.599 142.981 152.282C143.524 151.964 144.219 151.827 145.065 151.872C145.812 151.911 146.457 152.099 146.999 152.435C147.545 152.772 147.956 153.254 148.232 153.88C148.512 154.501 148.628 155.266 148.581 156.174L148.218 163.103L146.097 162.992L146.447 156.318C146.489 155.519 146.315 154.889 145.927 154.427C145.539 153.961 144.979 153.709 144.246 153.671C143.744 153.645 143.29 153.727 142.881 153.919C142.478 154.112 142.152 154.407 141.903 154.807C141.66 155.202 141.523 155.688 141.492 156.265ZM153.93 148.837L153.168 163.363L151.048 163.252L151.809 148.726L153.93 148.837ZM156.021 163.512L156.592 152.618L158.713 152.729L158.142 163.623L156.021 163.512ZM157.751 150.993C157.382 150.974 157.072 150.834 156.82 150.575C156.573 150.31 156.459 150.006 156.477 149.661C156.495 149.311 156.641 149.02 156.914 148.787C157.192 148.551 157.515 148.442 157.884 148.461C158.253 148.481 158.561 148.622 158.808 148.887C159.059 149.146 159.176 149.451 159.158 149.801C159.14 150.146 158.992 150.437 158.714 150.674C158.441 150.906 158.12 151.013 157.751 150.993ZM165.336 168.325C164.471 168.279 163.732 168.127 163.12 167.867C162.513 167.608 162.022 167.281 161.65 166.887C161.277 166.493 161.005 166.068 160.834 165.614L162.697 164.957C162.813 165.172 162.972 165.401 163.173 165.644C163.378 165.892 163.66 166.108 164.021 166.293C164.385 166.478 164.861 166.586 165.447 166.616C166.251 166.659 166.926 166.497 167.471 166.132C168.016 165.772 168.311 165.166 168.356 164.315L168.468 162.173L168.333 162.166C168.194 162.391 167.996 162.639 167.74 162.91C167.488 163.182 167.149 163.41 166.722 163.597C166.295 163.783 165.748 163.858 165.082 163.824C164.221 163.778 163.456 163.537 162.787 163.099C162.123 162.656 161.61 162.03 161.25 161.219C160.894 160.404 160.747 159.417 160.807 158.258C160.868 157.1 161.116 156.117 161.552 155.31C161.993 154.504 162.57 153.899 163.283 153.495C163.997 153.087 164.791 152.906 165.666 152.951C166.342 152.987 166.882 153.129 167.286 153.378C167.691 153.622 168.001 153.899 168.217 154.209C168.438 154.519 168.606 154.791 168.722 155.025L168.878 155.033L168.97 153.267L171.049 153.376L170.465 164.511C170.416 165.447 170.158 166.204 169.692 166.782C169.225 167.36 168.613 167.773 167.856 168.023C167.103 168.273 166.263 168.373 165.336 168.325ZM165.642 162.089C166.252 162.121 166.775 162.006 167.21 161.745C167.651 161.478 167.994 161.084 168.24 160.561C168.49 160.034 168.635 159.394 168.674 158.642C168.713 157.909 168.638 157.258 168.45 156.689C168.261 156.12 167.965 155.668 167.561 155.334C167.156 154.995 166.645 154.809 166.025 154.777C165.387 154.743 164.846 154.881 164.403 155.19C163.961 155.494 163.616 155.921 163.369 156.472C163.127 157.024 162.987 157.647 162.951 158.342C162.913 159.056 162.989 159.688 163.179 160.239C163.368 160.789 163.667 161.227 164.077 161.552C164.491 161.877 165.013 162.056 165.642 162.089ZM175.781 158.062L175.442 164.53L173.322 164.419L174.083 149.893L176.175 150.003L175.892 155.408L176.027 155.415C176.313 154.842 176.727 154.396 177.27 154.079C177.813 153.761 178.508 153.624 179.354 153.669C180.101 153.708 180.746 153.896 181.288 154.232C181.834 154.569 182.245 155.051 182.521 155.677C182.801 156.298 182.917 157.063 182.87 157.971L182.507 164.9L180.386 164.789L180.736 158.115C180.778 157.316 180.604 156.686 180.216 156.225C179.828 155.758 179.267 155.506 178.535 155.468C178.033 155.442 177.579 155.524 177.17 155.716C176.767 155.909 176.441 156.204 176.192 156.604C175.948 156.999 175.812 157.485 175.781 158.062ZM190.993 154.421L190.904 156.123L184.953 155.811L185.042 154.109L190.993 154.421ZM186.775 151.583L188.895 151.694L188.355 161.999C188.334 162.411 188.379 162.724 188.491 162.938C188.603 163.148 188.754 163.296 188.944 163.381C189.139 163.463 189.352 163.51 189.584 163.522C189.754 163.531 189.904 163.527 190.033 163.51C190.162 163.493 190.262 163.479 190.334 163.468L190.625 165.24C190.499 165.281 190.322 165.319 190.093 165.355C189.863 165.395 189.578 165.408 189.237 165.395C188.679 165.375 188.164 165.249 187.692 165.016C187.221 164.782 186.848 164.44 186.573 163.99C186.297 163.539 186.177 162.985 186.212 162.328L186.775 151.583ZM203.71 155.087L203.62 156.79L197.67 156.478L197.759 154.776L203.71 155.087ZM199.492 152.249L201.612 152.36L201.072 162.666C201.051 163.077 201.096 163.39 201.208 163.605C201.32 163.814 201.471 163.962 201.661 164.048C201.856 164.129 202.069 164.176 202.301 164.188C202.471 164.197 202.621 164.193 202.75 164.176C202.879 164.159 202.979 164.145 203.051 164.135L203.342 165.907C203.216 165.948 203.039 165.986 202.81 166.021C202.58 166.061 202.295 166.075 201.954 166.062C201.396 166.042 200.881 165.915 200.409 165.682C199.938 165.449 199.565 165.107 199.289 164.656C199.014 164.206 198.894 163.652 198.929 162.994L199.492 152.249ZM208.178 159.76L207.839 166.228L205.719 166.117L206.48 151.591L208.572 151.701L208.289 157.105L208.424 157.113C208.71 156.54 209.124 156.094 209.667 155.777C210.21 155.459 210.905 155.322 211.751 155.367C212.498 155.406 213.143 155.594 213.685 155.93C214.231 156.267 214.642 156.749 214.917 157.375C215.198 157.996 215.314 158.761 215.267 159.669L214.903 166.598L212.783 166.487L213.133 159.813C213.174 159.014 213.001 158.384 212.613 157.922C212.225 157.456 211.664 157.204 210.931 157.166C210.43 157.139 209.976 157.222 209.567 157.414C209.164 157.606 208.837 157.902 208.589 158.302C208.345 158.697 208.209 159.183 208.178 159.76ZM222.417 167.212C221.344 167.156 220.431 166.878 219.68 166.379C218.934 165.875 218.372 165.194 217.995 164.335C217.623 163.472 217.467 162.475 217.526 161.345C217.584 160.229 217.844 159.256 218.305 158.427C218.77 157.598 219.391 156.964 220.168 156.526C220.95 156.088 221.846 155.896 222.858 155.949C223.473 155.981 224.063 156.114 224.629 156.347C225.196 156.581 225.697 156.927 226.133 157.386C226.568 157.845 226.9 158.429 227.129 159.138C227.357 159.842 227.446 160.689 227.394 161.677L227.355 162.429L218.695 161.975L218.778 160.386L225.36 160.731C225.389 160.173 225.301 159.673 225.097 159.231C224.893 158.784 224.592 158.424 224.193 158.152C223.8 157.88 223.329 157.73 222.78 157.701C222.185 157.67 221.657 157.789 221.197 158.059C220.742 158.325 220.382 158.685 220.116 159.141C219.856 159.592 219.711 160.089 219.682 160.633L219.617 161.874C219.579 162.602 219.674 163.228 219.903 163.752C220.136 164.277 220.478 164.686 220.927 164.979C221.376 165.268 221.911 165.429 222.53 165.462C222.932 165.483 223.302 165.445 223.639 165.349C223.976 165.248 224.271 165.088 224.524 164.869C224.777 164.65 224.977 164.374 225.122 164.04L227.111 164.507C226.919 165.09 226.603 165.592 226.164 166.015C225.73 166.433 225.194 166.749 224.557 166.962C223.925 167.171 223.212 167.254 222.417 167.212ZM234.846 157.63L234.918 156.268C234.939 155.866 235.036 155.447 235.211 155.01C235.386 154.574 235.618 154.159 235.909 153.767C236.2 153.374 236.535 153.043 236.914 152.774L237.925 153.581C237.614 153.986 237.345 154.413 237.118 154.861C236.89 155.309 236.763 155.803 236.734 156.342L236.662 157.725L234.846 157.63ZM238.463 157.819L238.535 156.457C238.556 156.055 238.654 155.636 238.828 155.2C239.003 154.763 239.236 154.349 239.526 153.956C239.817 153.564 240.152 153.233 240.531 152.963L241.542 153.77C241.231 154.176 240.962 154.603 240.735 155.051C240.508 155.499 240.38 155.992 240.352 156.531L240.279 157.914L238.463 157.819ZM245.503 153.636L244.742 168.162L242.621 168.051L243.382 153.525L245.503 153.636ZM247.595 168.311L248.166 157.417L250.286 157.528L249.715 168.423L247.595 168.311ZM249.325 155.792C248.956 155.773 248.646 155.634 248.394 155.374C248.147 155.11 248.032 154.805 248.05 154.46C248.069 154.11 248.214 153.819 248.487 153.587C248.765 153.35 249.089 153.241 249.457 153.26C249.826 153.28 250.134 153.422 250.381 153.686C250.633 153.946 250.75 154.25 250.731 154.6C250.713 154.945 250.565 155.236 250.287 155.473C250.014 155.705 249.694 155.812 249.325 155.792ZM262.459 158.166L257.937 168.853L255.668 168.735L252.281 157.633L254.558 157.752L256.878 166.28L256.991 166.286L260.182 158.047L262.459 158.166ZM268.194 169.611C267.121 169.555 266.208 169.277 265.457 168.778C264.711 168.274 264.149 167.593 263.772 166.734C263.4 165.871 263.244 164.874 263.303 163.744C263.361 162.628 263.621 161.655 264.082 160.826C264.547 159.997 265.168 159.363 265.945 158.925C266.727 158.487 267.623 158.295 268.635 158.348C269.25 158.38 269.84 158.513 270.406 158.746C270.973 158.98 271.474 159.326 271.91 159.785C272.345 160.244 272.678 160.828 272.906 161.537C273.134 162.242 273.223 163.088 273.171 164.076L273.132 164.828L264.472 164.374L264.555 162.785L271.137 163.13C271.166 162.572 271.079 162.072 270.874 161.63C270.67 161.183 270.369 160.824 269.97 160.551C269.577 160.279 269.106 160.129 268.558 160.1C267.962 160.069 267.434 160.189 266.974 160.458C266.519 160.724 266.159 161.084 265.893 161.54C265.633 161.991 265.488 162.488 265.459 163.032L265.394 164.273C265.356 165.001 265.451 165.627 265.68 166.151C265.913 166.676 266.255 167.085 266.704 167.378C267.153 167.668 267.688 167.828 268.307 167.861C268.709 167.882 269.079 167.844 269.416 167.748C269.753 167.647 270.048 167.487 270.301 167.268C270.555 167.049 270.754 166.773 270.899 166.439L272.888 166.906C272.696 167.489 272.38 167.991 271.941 168.414C271.507 168.832 270.971 169.148 270.334 169.361C269.702 169.57 268.989 169.653 268.194 169.611ZM282.88 170.161L280.245 159.099L282.437 159.213L284.152 167.326L284.259 167.331L286.82 159.443L289.012 159.558L290.722 167.634L290.828 167.64L293.366 159.786L295.558 159.901L291.788 170.628L289.625 170.514L287.825 162.533L287.661 162.524L285.036 170.274L282.88 170.161ZM301.352 171.349C300.278 171.293 299.366 171.015 298.615 170.516C297.868 170.012 297.307 169.331 296.93 168.472C296.558 167.608 296.401 166.612 296.46 165.481C296.519 164.366 296.778 163.393 297.239 162.564C297.705 161.735 298.326 161.101 299.103 160.663C299.884 160.225 300.781 160.032 301.793 160.086C302.407 160.118 302.998 160.251 303.564 160.484C304.13 160.718 304.631 161.064 305.067 161.523C305.503 161.982 305.835 162.566 306.063 163.275C306.292 163.979 306.381 164.826 306.329 165.814L306.289 166.566L297.629 166.112L297.713 164.523L304.294 164.868C304.324 164.31 304.236 163.81 304.032 163.368C303.828 162.921 303.526 162.561 303.128 162.289C302.735 162.017 302.264 161.867 301.715 161.838C301.119 161.807 300.592 161.926 300.132 162.196C299.677 162.461 299.317 162.822 299.051 163.277C298.79 163.728 298.646 164.226 298.617 164.769L298.552 166.011C298.514 166.739 298.609 167.365 298.838 167.889C299.071 168.413 299.412 168.822 299.862 169.116C300.311 169.405 300.845 169.566 301.465 169.598C301.867 169.62 302.236 169.582 302.573 169.486C302.91 169.385 303.206 169.225 303.459 169.006C303.712 168.787 303.912 168.511 304.057 168.177L306.045 168.644C305.854 169.226 305.538 169.729 305.099 170.152C304.664 170.57 304.128 170.885 303.491 171.099C302.859 171.307 302.146 171.391 301.352 171.349ZM308.56 171.507L309.322 156.981L311.442 157.092L311.16 162.49L311.287 162.496C311.422 162.276 311.613 162.023 311.86 161.737C312.108 161.451 312.443 161.208 312.866 161.007C313.289 160.802 313.839 160.717 314.515 160.752C315.394 160.798 316.168 161.062 316.835 161.542C317.502 162.023 318.01 162.692 318.358 163.55C318.712 164.407 318.857 165.425 318.796 166.602C318.734 167.78 318.485 168.779 318.048 169.6C317.612 170.416 317.039 171.033 316.33 171.451C315.621 171.865 314.826 172.048 313.947 172.002C313.285 171.967 312.749 171.828 312.34 171.584C311.936 171.34 311.623 171.062 311.402 170.752C311.181 170.442 311.013 170.168 310.898 169.929L310.72 169.92L310.631 171.615L308.56 171.507ZM310.924 166.168C310.884 166.934 310.96 167.612 311.152 168.2C311.344 168.789 311.642 169.257 312.045 169.605C312.449 169.949 312.956 170.137 313.566 170.169C314.2 170.202 314.738 170.062 315.181 169.748C315.625 169.43 315.971 168.986 316.219 168.416C316.471 167.846 316.617 167.197 316.655 166.469C316.692 165.75 316.618 165.099 316.43 164.515C316.247 163.932 315.949 163.464 315.536 163.11C315.128 162.757 314.605 162.563 313.967 162.53C313.352 162.498 312.824 162.629 312.381 162.923C311.944 163.218 311.602 163.644 311.354 164.2C311.107 164.756 310.964 165.412 310.924 166.168ZM329.488 164.346L327.548 164.586C327.48 164.336 327.365 164.095 327.202 163.864C327.043 163.633 326.821 163.438 326.535 163.281C326.249 163.124 325.887 163.034 325.447 163.011C324.846 162.979 324.338 163.088 323.922 163.336C323.506 163.58 323.287 163.912 323.265 164.333C323.246 164.697 323.366 164.997 323.624 165.234C323.881 165.47 324.307 165.675 324.9 165.848L326.61 166.336C327.6 166.62 328.328 167.016 328.795 167.525C329.261 168.033 329.474 168.672 329.434 169.443C329.4 170.095 329.18 170.667 328.775 171.158C328.375 171.644 327.832 172.014 327.145 172.267C326.463 172.521 325.683 172.624 324.803 172.578C323.583 172.514 322.602 172.202 321.858 171.642C321.115 171.076 320.681 170.307 320.557 169.333L322.623 169.128C322.723 169.669 322.964 170.087 323.347 170.383C323.73 170.673 324.24 170.835 324.879 170.868C325.574 170.905 326.137 170.79 326.568 170.523C327 170.252 327.226 169.905 327.248 169.485C327.266 169.144 327.154 168.851 326.91 168.606C326.672 168.362 326.296 168.166 325.782 168.021L323.959 167.52C322.954 167.235 322.222 166.827 321.761 166.295C321.306 165.764 321.098 165.111 321.139 164.335C321.172 163.692 321.382 163.139 321.766 162.676C322.151 162.212 322.667 161.862 323.315 161.626C323.963 161.385 324.696 161.286 325.514 161.329C326.691 161.39 327.604 161.694 328.254 162.24C328.904 162.782 329.315 163.484 329.488 164.346ZM331.601 172.714L332.172 161.82L334.292 161.931L333.721 172.825L331.601 172.714ZM333.331 160.195C332.962 160.176 332.651 160.036 332.4 159.776C332.153 159.512 332.038 159.207 332.056 158.862C332.075 158.512 332.22 158.221 332.493 157.989C332.771 157.752 333.094 157.644 333.463 157.663C333.832 157.682 334.14 157.824 334.387 158.088C334.639 158.348 334.756 158.653 334.737 159.003C334.719 159.348 334.571 159.639 334.293 159.876C334.02 160.108 333.699 160.214 333.331 160.195ZM342.231 162.347L342.141 164.049L336.191 163.737L336.28 162.035L342.231 162.347ZM338.012 159.509L340.133 159.62L339.593 169.925C339.572 170.337 339.617 170.65 339.729 170.864C339.841 171.074 339.992 171.222 340.182 171.307C340.377 171.389 340.59 171.436 340.822 171.448C340.992 171.457 341.142 171.453 341.271 171.436C341.399 171.419 341.5 171.405 341.571 171.395L341.863 173.166C341.737 173.207 341.56 173.245 341.33 173.281C341.101 173.321 340.815 173.334 340.475 173.321C339.916 173.302 339.401 173.175 338.93 172.942C338.459 172.708 338.085 172.366 337.81 171.916C337.535 171.465 337.415 170.911 337.449 170.254L338.012 159.509ZM348.572 173.824C347.499 173.768 346.586 173.49 345.835 172.991C345.089 172.487 344.527 171.805 344.15 170.946C343.778 170.083 343.622 169.086 343.681 167.956C343.739 166.84 343.999 165.868 344.46 165.038C344.925 164.209 345.546 163.576 346.323 163.138C347.105 162.7 348.001 162.507 349.013 162.56C349.628 162.592 350.218 162.725 350.784 162.959C351.351 163.192 351.852 163.539 352.288 163.998C352.723 164.457 353.055 165.041 353.284 165.75C353.512 166.454 353.601 167.3 353.549 168.288L353.51 169.04L344.85 168.586L344.933 166.998L351.515 167.343C351.544 166.785 351.456 166.285 351.252 165.842C351.048 165.396 350.747 165.036 350.348 164.764C349.955 164.492 349.484 164.342 348.935 164.313C348.34 164.282 347.812 164.401 347.352 164.671C346.897 164.936 346.537 165.297 346.271 165.752C346.011 166.203 345.866 166.7 345.837 167.244L345.772 168.485C345.734 169.214 345.829 169.84 346.058 170.364C346.291 170.888 346.633 171.297 347.082 171.591C347.531 171.88 348.066 172.041 348.685 172.073C349.087 172.094 349.457 172.057 349.794 171.961C350.131 171.86 350.426 171.7 350.679 171.481C350.932 171.262 351.132 170.985 351.277 170.651L353.266 171.118C353.074 171.701 352.758 172.204 352.319 172.626C351.885 173.044 351.349 173.36 350.712 173.573C350.08 173.782 349.367 173.866 348.572 173.824ZM358.195 159.542L358.123 160.904C358.102 161.306 358.004 161.725 357.83 162.162C357.66 162.594 357.43 163.006 357.139 163.399C356.848 163.791 356.513 164.124 356.134 164.398L355.123 163.592C355.424 163.2 355.687 162.78 355.915 162.332C356.147 161.884 356.277 161.383 356.306 160.83L356.379 159.447L358.195 159.542ZM361.805 159.732L361.733 161.093C361.712 161.495 361.614 161.914 361.44 162.351C361.27 162.783 361.04 163.195 360.749 163.588C360.458 163.98 360.123 164.314 359.744 164.588L358.733 163.781C359.034 163.389 359.298 162.969 359.525 162.521C359.757 162.073 359.888 161.573 359.917 161.019L359.989 159.636L361.805 159.732ZM38.2049 191.475L38.9899 176.496L41.0609 176.605L40.9684 178.371L41.1457 178.38C41.2805 178.159 41.4716 177.906 41.7189 177.621C41.9662 177.335 42.3014 177.092 42.7244 176.891C43.1476 176.685 43.6973 176.6 44.3735 176.636C45.253 176.682 46.0262 176.945 46.6933 177.426C47.3603 177.907 47.8681 178.576 48.2167 179.433C48.5701 180.291 48.7159 181.309 48.6542 182.486C48.5925 183.663 48.3433 184.662 47.9068 185.484C47.4704 186.3 46.8976 186.917 46.1882 187.335C45.479 187.748 44.6847 187.932 43.8052 187.886C43.1433 187.851 42.6077 187.712 42.1985 187.467C41.7941 187.223 41.4814 186.946 41.2606 186.636C41.0398 186.326 40.8717 186.051 40.7561 185.813L40.6285 185.806L40.3255 191.587L38.2049 191.475ZM40.7826 182.052C40.7424 182.818 40.8183 183.495 41.0103 184.084C41.2023 184.672 41.5002 185.141 41.9039 185.489C42.3079 185.833 42.8149 186.02 43.4248 186.052C44.0584 186.086 44.5968 185.945 45.04 185.632C45.4833 185.314 45.829 184.87 46.077 184.3C46.3297 183.73 46.4752 183.081 46.5133 182.352C46.551 181.634 46.4761 180.983 46.2885 180.399C46.1058 179.816 45.8079 179.347 45.395 178.994C44.9868 178.64 44.4635 178.447 43.8252 178.414C43.2105 178.381 42.682 178.513 42.2399 178.807C41.8025 179.102 41.4601 179.527 41.2129 180.083C40.9657 180.639 40.8222 181.295 40.7826 182.052ZM53.9035 188.443C53.2132 188.407 52.5957 188.247 52.0512 187.962C51.5069 187.673 51.0845 187.274 50.784 186.765C50.4882 186.257 50.359 185.645 50.3965 184.931C50.4287 184.317 50.5734 183.817 50.8306 183.432C51.0879 183.047 51.4235 182.75 51.8376 182.539C52.2516 182.328 52.71 182.177 53.2127 182.085C53.7153 181.993 54.226 181.929 54.7446 181.895C55.4011 181.853 55.9339 181.82 56.343 181.794C56.7523 181.763 57.0522 181.696 57.2426 181.592C57.4329 181.488 57.5348 181.308 57.5482 181.053L57.5508 181.003C57.5832 180.384 57.4334 179.895 57.1014 179.536C56.774 179.178 56.2676 178.98 55.582 178.944C54.868 178.907 54.297 179.036 53.869 179.331C53.446 179.622 53.1465 179.955 52.9704 180.33L51.0012 179.771C51.2723 179.122 51.6454 178.605 52.1207 178.223C52.6009 177.835 53.1437 177.565 53.7491 177.412C54.3548 177.254 54.9863 177.192 55.6435 177.227C56.0785 177.249 56.5368 177.326 57.0184 177.455C57.505 177.58 57.9539 177.789 58.3654 178.08C58.7815 178.372 59.1136 178.776 59.3616 179.292C59.6098 179.803 59.7131 180.455 59.6715 181.25L59.2923 188.484L57.2213 188.376L57.2994 186.886L57.2142 186.882C57.0627 187.149 56.8429 187.407 56.5548 187.658C56.2667 187.908 55.9029 188.11 55.4635 188.262C55.024 188.414 54.504 188.475 53.9035 188.443ZM54.4538 186.765C55.0401 186.796 55.5474 186.707 55.9756 186.497C56.4086 186.287 56.7436 186.001 56.9807 185.639C57.2227 185.272 57.355 184.874 57.3776 184.444L57.4512 183.039C57.3716 183.111 57.2213 183.174 57.0003 183.229C56.7843 183.279 56.5379 183.321 56.2612 183.354C55.9847 183.382 55.7155 183.408 55.4534 183.433C55.1916 183.452 54.9726 183.469 54.7965 183.483C54.3824 183.514 54.0019 183.582 53.655 183.687C53.3128 183.792 53.034 183.955 52.8186 184.176C52.6081 184.393 52.4929 184.69 52.4731 185.069C52.4456 185.593 52.6186 186.001 52.9922 186.291C53.3661 186.576 53.8533 186.734 54.4538 186.765ZM62.1169 188.632L62.6879 177.738L64.7376 177.845L64.6469 179.576L64.7604 179.582C64.9897 179.006 65.3638 178.563 65.8826 178.254C66.4063 177.94 66.9874 177.8 67.6257 177.833C67.7581 177.84 67.9139 177.853 68.0931 177.872C68.277 177.891 68.4206 177.91 68.5239 177.93L68.4176 179.959C68.3337 179.93 68.1838 179.896 67.9677 179.857C67.752 179.812 67.5353 179.784 67.3178 179.773C66.8166 179.747 66.3642 179.83 65.9606 180.022C65.562 180.209 65.2394 180.484 64.9929 180.846C64.7466 181.203 64.611 181.618 64.5863 182.09L64.2376 188.743L62.1169 188.632ZM76.0821 178.44L75.9929 180.142L70.0423 179.83L70.1315 178.128L76.0821 178.44ZM71.8641 175.602L73.9848 175.713L73.4447 186.018C73.4231 186.43 73.4684 186.743 73.5804 186.957C73.6927 187.167 73.8438 187.315 74.0337 187.4C74.2285 187.482 74.4418 187.528 74.6735 187.541C74.8437 187.55 74.9933 187.546 75.1222 187.529C75.2511 187.512 75.3514 187.498 75.423 187.487L75.7142 189.259C75.5888 189.3 75.4114 189.338 75.182 189.374C74.9523 189.414 74.6671 189.427 74.3264 189.414C73.7679 189.394 73.253 189.268 72.7816 189.035C72.3103 188.801 71.937 188.459 71.6619 188.009C71.3868 187.558 71.2665 187.004 71.301 186.347L71.8641 175.602ZM80.3952 185.401L80.4023 185.266C80.4578 184.387 80.582 183.692 80.7747 183.181C80.9722 182.669 81.2354 182.261 81.5643 181.956C81.8933 181.651 82.2845 181.377 82.7382 181.136C83.0313 180.971 83.2971 180.783 83.5357 180.573C83.7744 180.363 83.9674 180.117 84.1149 179.835C84.2624 179.554 84.3454 179.238 84.3637 178.888C84.3857 178.467 84.3055 178.098 84.123 177.78C83.9406 177.463 83.6882 177.212 83.3659 177.029C83.0485 176.842 82.6889 176.738 82.287 176.717C81.9229 176.698 81.5714 176.755 81.2325 176.889C80.8936 177.023 80.6069 177.245 80.3726 177.555C80.1385 177.861 79.9917 178.263 79.9324 178.763L77.7762 178.65C77.8539 177.8 78.1067 177.093 78.5347 176.527C78.9628 175.957 79.5111 175.538 80.1795 175.269C80.8526 175.001 81.5863 174.888 82.3807 174.93C83.2507 174.975 84.0034 175.178 84.6388 175.539C85.2745 175.894 85.7567 176.372 86.0856 176.973C86.4195 177.569 86.5662 178.252 86.5258 179.023C86.498 179.552 86.3903 180.026 86.2025 180.443C86.0149 180.855 85.7588 181.218 85.4341 181.533C85.1142 181.848 84.7347 182.122 84.2958 182.355C83.8807 182.585 83.5408 182.828 83.2761 183.084C83.0161 183.341 82.8197 183.651 82.6869 184.013C82.5541 184.376 82.4687 184.829 82.4308 185.373L82.4237 185.507L80.3952 185.401ZM81.2402 189.769C80.8525 189.749 80.5263 189.595 80.2617 189.306C79.9974 189.012 79.8755 188.669 79.896 188.277C79.9164 187.889 80.0732 187.565 80.3665 187.306C80.6601 187.041 81.0008 186.919 81.3885 186.94C81.7715 186.96 82.0952 187.116 82.3595 187.41C82.6289 187.699 82.7534 188.038 82.7331 188.425C82.7194 188.685 82.6407 188.921 82.4969 189.131C82.3581 189.337 82.179 189.499 81.9595 189.615C81.74 189.732 81.5003 189.783 81.2402 189.769Z" fill="#3A3CFF"/>
</g>
<defs>
<filter id="filter0_i_3340_14382" x="27.4766" y="13.2227" width="24" height="28" filterUnits="userSpaceOnUse" color-interpolation-filters="sRGB">
<feFlood flood-opacity="0" result="BackgroundImageFix"/>
<feBlend mode="normal" in="SourceGraphic" in2="BackgroundImageFix" result="shape"/>
<feColorMatrix in="SourceAlpha" type="matrix" values="0 0 0 0 0 0 0 0 0 0 0 0 0 0 0 0 0 0 127 0" result="hardAlpha"/>
<feOffset dy="4"/>
<feGaussianBlur stdDeviation="5"/>
<feComposite in2="hardAlpha" operator="arithmetic" k2="-1" k3="1"/>
<feColorMatrix type="matrix" values="0 0 0 0 0 0 0 0 0 0 0 0 0 0 0 0 0 0 0.19 0"/>
<feBlend mode="normal" in2="shape" result="effect1_innerShadow_3340_14382"/>
</filter>
<filter id="filter1_d_3340_14382" x="-1.375" y="55.9238" width="435.652" height="216.164" filterUnits="userSpaceOnUse" color-interpolation-filters="sRGB">
<feFlood flood-opacity="0" result="BackgroundImageFix"/>
<feColorMatrix in="SourceAlpha" type="matrix" values="0 0 0 0 0 0 0 0 0 0 0 0 0 0 0 0 0 0 127 0" result="hardAlpha"/>
<feOffset dx="3" dy="10"/>
<feGaussianBlur stdDeviation="4.5"/>
<feComposite in2="hardAlpha" operator="out"/>
<feColorMatrix type="matrix" values="0 0 0 0 0.782051 0 0 0 0 0.782051 0 0 0 0 0.782051 0 0 0 0.12 0"/>
<feBlend mode="normal" in2="BackgroundImageFix" result="effect1_dropShadow_3340_14382"/>
<feBlend mode="normal" in="SourceGraphic" in2="effect1_dropShadow_3340_14382" result="shape"/>
</filter>
<radialGradient id="paint0_radial_3340_14382" cx="0" cy="0" r="1" gradientUnits="userSpaceOnUse" gradientTransform="translate(29.4767 12.7232) rotate(74.6785) scale(37.8451)">
<stop stop-color="#4749FF"/>
<stop offset="1" stop-color="#4749FF" stop-opacity="0.5"/>
</radialGradient>
<radialGradient id="paint1_radial_3340_14382" cx="0" cy="0" r="1" gradientUnits="userSpaceOnUse" gradientTransform="translate(37.4786 22.224) rotate(84.5597) scale(21.095)">
<stop stop-color="#4749FF"/>
<stop offset="1" stop-color="#4749FF" stop-opacity="0.6"/>
</radialGradient>
<radialGradient id="paint2_radial_3340_14382" cx="0" cy="0" r="1" gradientUnits="userSpaceOnUse" gradientTransform="translate(37.9766 22.2229) rotate(84.2894) scale(15.0748)">
<stop stop-color="#4749FF"/>
<stop offset="1" stop-color="#4749FF" stop-opacity="0.85"/>
</radialGradient>
</defs>
</svg>
