<svg width="380" height="208" viewBox="0 0 380 208" fill="none" xmlns="http://www.w3.org/2000/svg">
<circle cx="22.2455" cy="22.2455" r="22.2455" fill="url(#paint0_radial_3358_33239)" fill-opacity="0.2"/>
<circle cx="22.2466" cy="22.2466" r="16.6841" fill="url(#paint1_radial_3358_33239)" fill-opacity="0.3"/>
<g filter="url(#filter0_i_3358_33239)">
<circle cx="22.2439" cy="22.2439" r="11.1228" fill="url(#paint2_radial_3358_33239)"/>
</g>
<rect x="0.926897" y="52.8331" width="377.247" height="153.275" rx="24.0993" fill="white"/>
<rect x="0.926897" y="52.8331" width="377.247" height="153.275" rx="24.0993" stroke="#EBEFF4" stroke-width="1.85379"/>
<path d="M20.0203 89.4453V75.9632H28.3808V77.7143H22.0544V81.8221H27.7817V83.5666H22.0544V89.4453H20.0203ZM34.5255 89.6494C33.5292 89.6494 32.6712 89.4365 31.9515 89.0108C31.2361 88.5807 30.6831 87.9773 30.2925 87.2005C29.9063 86.4193 29.7132 85.5042 29.7132 84.4553C29.7132 83.4196 29.9063 82.5068 30.2925 81.7168C30.6831 80.9268 31.2273 80.3102 31.9251 79.8669C32.6273 79.4237 33.448 79.2021 34.3872 79.2021C34.9578 79.2021 35.5107 79.2964 36.0462 79.4851C36.5816 79.6738 37.0621 79.9701 37.4878 80.3738C37.9136 80.7776 38.2493 81.3021 38.4951 81.9472C38.7408 82.5879 38.8637 83.3669 38.8637 84.2842V84.982H30.8258V83.5074H36.9349C36.9349 82.9895 36.8295 82.5309 36.6189 82.1315C36.4082 81.7278 36.112 81.4096 35.7302 81.177C35.3527 80.9444 34.9095 80.8281 34.4004 80.8281C33.8474 80.8281 33.3646 80.9641 32.9521 81.2362C32.544 81.5039 32.228 81.855 32.0041 82.2895C31.7847 82.7196 31.675 83.187 31.675 83.6917V84.8437C31.675 85.5196 31.7935 86.0945 32.0305 86.5685C32.2719 87.0425 32.6076 87.4046 33.0377 87.6547C33.4678 87.9005 33.9703 88.0234 34.5452 88.0234C34.9183 88.0234 35.2584 87.9707 35.5656 87.8654C35.8728 87.7557 36.1383 87.5933 36.3621 87.3782C36.586 87.1632 36.7571 86.8977 36.8756 86.5817L38.7386 86.9174C38.5894 87.466 38.3217 87.9466 37.9355 88.3591C37.5537 88.7673 37.0731 89.0854 36.4938 89.3137C35.9189 89.5375 35.2628 89.6494 34.5255 89.6494ZM45.591 89.6494C44.5948 89.6494 43.7368 89.4365 43.017 89.0108C42.3017 88.5807 41.7487 87.9773 41.3581 87.2005C40.9719 86.4193 40.7788 85.5042 40.7788 84.4553C40.7788 83.4196 40.9719 82.5068 41.3581 81.7168C41.7487 80.9268 42.2929 80.3102 42.9907 79.8669C43.6929 79.4237 44.5136 79.2021 45.4528 79.2021C46.0233 79.2021 46.5763 79.2964 47.1117 79.4851C47.6471 79.6738 48.1277 79.9701 48.5534 80.3738C48.9791 80.7776 49.3148 81.3021 49.5606 81.9472C49.8064 82.5879 49.9293 83.3669 49.9293 84.2842V84.982H41.8913V83.5074H48.0004C48.0004 82.9895 47.8951 82.5309 47.6844 82.1315C47.4738 81.7278 47.1775 81.4096 46.7957 81.177C46.4183 80.9444 45.975 80.8281 45.4659 80.8281C44.913 80.8281 44.4302 80.9641 44.0177 81.2362C43.6095 81.5039 43.2935 81.855 43.0697 82.2895C42.8503 82.7196 42.7405 83.187 42.7405 83.6917V84.8437C42.7405 85.5196 42.859 86.0945 43.096 86.5685C43.3374 87.0425 43.6731 87.4046 44.1032 87.6547C44.5333 87.9005 45.0358 88.0234 45.6108 88.0234C45.9838 88.0234 46.3239 87.9707 46.6311 87.8654C46.9384 87.7557 47.2039 87.5933 47.4277 87.3782C47.6515 87.1632 47.8227 86.8977 47.9412 86.5817L49.8042 86.9174C49.655 87.466 49.3873 87.9466 49.001 88.3591C48.6192 88.7673 48.1387 89.0854 47.5594 89.3137C46.9844 89.5375 46.3283 89.6494 45.591 89.6494ZM56.0838 89.6428C55.2675 89.6428 54.539 89.4343 53.8983 89.0174C53.2619 88.5961 52.7616 87.997 52.3973 87.2202C52.0374 86.439 51.8575 85.5021 51.8575 84.4093C51.8575 83.3165 52.0396 82.3817 52.4039 81.6049C52.7726 80.8281 53.2773 80.2334 53.918 79.8209C54.5588 79.4083 55.2851 79.2021 56.097 79.2021C56.7246 79.2021 57.2293 79.3074 57.6111 79.518C57.9973 79.7243 58.2958 79.9657 58.5064 80.2422C58.7215 80.5187 58.8882 80.7622 59.0067 80.9729H59.1252V75.9632H61.0936V89.4453H59.1713V87.872H59.0067C58.8882 88.087 58.7171 88.3328 58.4932 88.6093C58.2738 88.8858 57.971 89.1271 57.5848 89.3334C57.1986 89.5397 56.6983 89.6428 56.0838 89.6428ZM56.5183 87.9641C57.0845 87.9641 57.5628 87.8149 57.9534 87.5165C58.3484 87.2137 58.6469 86.7945 58.8487 86.2591C59.055 85.7237 59.1581 85.1005 59.1581 84.3895C59.1581 83.6873 59.0572 83.0729 58.8553 82.5463C58.6534 82.0196 58.3572 81.6093 57.9666 81.3152C57.576 81.0212 57.0932 80.8742 56.5183 80.8742C55.9258 80.8742 55.4321 81.0278 55.0371 81.335C54.6421 81.6422 54.3437 82.0613 54.1418 82.5923C53.9443 83.1234 53.8456 83.7224 53.8456 84.3895C53.8456 85.0654 53.9465 85.6732 54.1484 86.213C54.3503 86.7528 54.6487 87.1807 55.0437 87.4967C55.4431 87.8083 55.9346 87.9641 56.5183 87.9641ZM64.2463 89.4453V75.9632H66.2146V80.9729H66.3331C66.4472 80.7622 66.6118 80.5187 66.8268 80.2422C67.0419 79.9657 67.3403 79.7243 67.7221 79.518C68.1039 79.3074 68.6086 79.2021 69.2362 79.2021C70.0525 79.2021 70.7811 79.4083 71.4218 79.8209C72.0626 80.2334 72.5651 80.8281 72.9293 81.6049C73.298 82.3817 73.4823 83.3165 73.4823 84.4093C73.4823 85.5021 73.3002 86.439 72.9359 87.2202C72.5717 87.997 72.0713 88.5961 71.435 89.0174C70.7986 89.4343 70.0723 89.6428 69.256 89.6428C68.6416 89.6428 68.1391 89.5397 67.7485 89.3334C67.3622 89.1271 67.0594 88.8858 66.84 88.6093C66.6206 88.3328 66.4516 88.087 66.3331 87.872H66.1685V89.4453H64.2463ZM66.1751 84.3895C66.1751 85.1005 66.2782 85.7237 66.4845 86.2591C66.6908 86.7945 66.9892 87.2137 67.3798 87.5165C67.7704 87.8149 68.2488 87.9641 68.8149 87.9641C69.403 87.9641 69.8945 87.8083 70.2895 87.4967C70.6845 87.1807 70.9829 86.7528 71.1848 86.213C71.3911 85.6732 71.4942 85.0654 71.4942 84.3895C71.4942 83.7224 71.3933 83.1234 71.1914 82.5923C70.9939 82.0613 70.6955 81.6422 70.2961 81.335C69.9011 81.0278 69.4074 80.8742 68.8149 80.8742C68.2444 80.8742 67.7616 81.0212 67.3666 81.3152C66.976 81.6093 66.6798 82.0196 66.4779 82.5463C66.276 83.0729 66.1751 83.6873 66.1751 84.3895ZM78.8206 89.6691C78.1798 89.6691 77.6005 89.5506 77.0827 89.3137C76.5648 89.0723 76.1544 88.7234 75.8516 88.2669C75.5532 87.8105 75.404 87.251 75.404 86.5883C75.404 86.0177 75.5137 85.5481 75.7331 85.1795C75.9526 84.8108 76.2488 84.519 76.6218 84.3039C76.9949 84.0889 77.4118 83.9265 77.8726 83.8168C78.3334 83.7071 78.803 83.6237 79.2814 83.5666C79.887 83.4964 80.3786 83.4394 80.756 83.3955C81.1334 83.3472 81.4077 83.2704 81.5789 83.1651C81.7501 83.0597 81.8356 82.8886 81.8356 82.6516V82.6055C81.8356 82.0306 81.6733 81.5851 81.3485 81.2691C81.0281 80.9531 80.5497 80.7952 79.9134 80.7952C79.2507 80.7952 78.7284 80.9422 78.3466 81.2362C77.9692 81.5259 77.7081 81.8484 77.5632 82.2039L75.7134 81.7826C75.9328 81.1682 76.2532 80.6723 76.6745 80.2948C77.1002 79.913 77.5896 79.6365 78.1425 79.4654C78.6955 79.2898 79.277 79.2021 79.887 79.2021C80.2908 79.2021 80.7187 79.2503 81.1707 79.3469C81.6272 79.439 82.0529 79.6102 82.4479 79.8604C82.8472 80.1105 83.1742 80.4682 83.4287 80.9334C83.6833 81.3942 83.8106 81.9933 83.8106 82.7306V89.4453H81.8883V88.0629H81.8093C81.682 88.3174 81.4911 88.5676 81.2366 88.8133C80.982 89.0591 80.6551 89.2632 80.2557 89.4256C79.8563 89.5879 79.378 89.6691 78.8206 89.6691ZM79.2485 88.0892C79.7927 88.0892 80.2579 87.9817 80.6441 87.7666C81.0347 87.5516 81.3309 87.2707 81.5328 86.924C81.7391 86.5729 81.8422 86.1977 81.8422 85.7983V84.4948C81.772 84.5651 81.636 84.6309 81.4341 84.6923C81.2366 84.7494 81.0106 84.7999 80.756 84.8437C80.5015 84.8832 80.2535 84.9205 80.0121 84.9557C79.7707 84.9864 79.5689 85.0127 79.4065 85.0347C79.0247 85.0829 78.6758 85.1641 78.3598 85.2782C78.0482 85.3923 77.798 85.5569 77.6093 85.772C77.425 85.9826 77.3328 86.2635 77.3328 86.6146C77.3328 87.1017 77.5128 87.4704 77.8726 87.7205C78.2325 87.9663 78.6911 88.0892 79.2485 88.0892ZM90.8769 89.6494C89.8982 89.6494 89.0556 89.4278 88.349 88.9845C87.6468 88.5368 87.107 87.9202 86.7296 87.1347C86.3521 86.3491 86.1634 85.4494 86.1634 84.4356C86.1634 83.4086 86.3565 82.5024 86.7427 81.7168C87.1289 80.9268 87.6731 80.3102 88.3753 79.8669C89.0775 79.4237 89.9048 79.2021 90.8571 79.2021C91.6252 79.2021 92.3098 79.3447 92.9111 79.63C93.5123 79.9108 93.9973 80.3058 94.3659 80.8149C94.739 81.324 94.9606 81.9187 95.0308 82.5989H93.1151C93.0098 82.1249 92.7684 81.7168 92.391 81.3745C92.018 81.0321 91.5176 80.861 90.8901 80.861C90.3415 80.861 89.8609 81.0058 89.4484 81.2955C89.0402 81.5807 88.722 81.9889 88.4938 82.5199C88.2656 83.0466 88.1515 83.6698 88.1515 84.3895C88.1515 85.1268 88.2634 85.7632 88.4872 86.2986C88.7111 86.834 89.0271 87.2488 89.4352 87.5428C89.8477 87.8368 90.3327 87.9839 90.8901 87.9839C91.2631 87.9839 91.601 87.9158 91.9039 87.7798C92.2111 87.6394 92.4678 87.4397 92.6741 87.1807C92.8847 86.9218 93.0318 86.6102 93.1151 86.2459H95.0308C94.9606 86.8999 94.7477 87.4836 94.3923 87.997C94.0368 88.5105 93.5606 88.9143 92.9637 89.2083C92.3713 89.5024 91.6756 89.6494 90.8769 89.6494ZM99.1315 86.0155L99.1183 83.6127H99.4606L103.489 79.3337H105.846L101.251 84.2052H100.942L99.1315 86.0155ZM97.3211 89.4453V75.9632H99.2895V89.4453H97.3211ZM103.707 89.4453L100.086 84.6397L101.442 83.2638L106.123 89.4453H103.707Z" fill="black"/>
<path d="M355.721 75.2349C355.993 74.9634 356.433 74.9634 356.705 75.2349C356.976 75.5063 356.976 75.9459 356.705 76.2173L350.45 82.4712L356.705 88.7251C356.976 88.9966 356.976 89.4371 356.705 89.7085C356.433 89.9799 355.993 89.9798 355.721 89.7085L349.467 83.4536L343.213 89.7085C342.942 89.9797 342.502 89.9796 342.231 89.7085C341.959 89.437 341.959 88.9966 342.231 88.7251L348.484 82.4712L342.231 76.2173C341.959 75.9458 341.959 75.5063 342.231 75.2349C342.502 74.9634 342.942 74.9634 343.213 75.2349L349.467 81.4878L355.721 75.2349Z" fill="#292D32"/>
<path d="M22.5942 125.129H19.6819V115.691H22.7233C23.6388 115.691 24.4221 115.88 25.0734 116.258C25.7247 116.633 26.2239 117.172 26.5711 117.876C26.9182 118.576 27.0918 119.415 27.0918 120.392C27.0918 121.375 26.9167 122.221 26.5665 122.931C26.2162 123.637 25.7063 124.181 25.0366 124.562C24.3668 124.94 23.5527 125.129 22.5942 125.129ZM20.8247 124.115H22.5205C23.3008 124.115 23.9475 123.965 24.4605 123.664C24.9736 123.362 25.3561 122.934 25.608 122.378C25.8599 121.822 25.9858 121.16 25.9858 120.392C25.9858 119.63 25.8614 118.974 25.6126 118.424C25.3637 117.871 24.992 117.447 24.4974 117.152C24.0028 116.854 23.3868 116.705 22.6495 116.705H20.8247V124.115ZM29.9488 120.871V125.129H28.8613V115.691H29.9488V119.157H30.041C30.2069 118.791 30.4557 118.501 30.7875 118.286C31.1224 118.068 31.5678 117.959 32.1239 117.959C32.6062 117.959 33.0286 118.055 33.3911 118.249C33.7536 118.439 34.0347 118.733 34.2344 119.129C34.4372 119.522 34.5386 120.023 34.5386 120.631V125.129H33.451V120.705C33.451 120.143 33.3051 119.708 33.0133 119.401C32.7245 119.091 32.3236 118.936 31.8105 118.936C31.4542 118.936 31.1347 119.011 30.852 119.161C30.5725 119.312 30.3513 119.532 30.1885 119.82C30.0287 120.109 29.9488 120.459 29.9488 120.871ZM38.611 125.295C38.1625 125.295 37.7554 125.21 37.3899 125.041C37.0243 124.869 36.734 124.622 36.5189 124.299C36.3039 123.974 36.1963 123.581 36.1963 123.12C36.1963 122.714 36.2762 122.386 36.436 122.134C36.5957 121.879 36.8092 121.679 37.0765 121.535C37.3438 121.39 37.6387 121.283 37.9613 121.212C38.2869 121.138 38.6141 121.08 38.9428 121.037C39.3729 120.982 39.7216 120.94 39.9889 120.912C40.2592 120.882 40.4558 120.831 40.5787 120.76C40.7047 120.69 40.7676 120.567 40.7676 120.392V120.355C40.7676 119.9 40.6432 119.547 40.3944 119.295C40.1486 119.043 39.7753 118.917 39.2746 118.917C38.7554 118.917 38.3484 119.031 38.0534 119.258C37.7585 119.485 37.5511 119.728 37.4313 119.986L36.3991 119.618C36.5834 119.187 36.8292 118.853 37.1364 118.613C37.4467 118.37 37.7846 118.201 38.1502 118.106C38.5189 118.008 38.8814 117.959 39.2377 117.959C39.4651 117.959 39.7262 117.986 40.0211 118.042C40.3191 118.094 40.6063 118.203 40.8828 118.369C41.1624 118.535 41.3943 118.785 41.5787 119.12C41.763 119.455 41.8552 119.903 41.8552 120.465V125.129H40.7676V124.17H40.7123C40.6386 124.324 40.5157 124.488 40.3437 124.663C40.1716 124.839 39.9428 124.988 39.6571 125.11C39.3714 125.233 39.0227 125.295 38.611 125.295ZM38.7769 124.318C39.207 124.318 39.5695 124.233 39.8644 124.064C40.1624 123.895 40.3867 123.677 40.5372 123.41C40.6908 123.143 40.7676 122.862 40.7676 122.567V121.571C40.7216 121.627 40.6202 121.677 40.4635 121.723C40.3099 121.766 40.1317 121.805 39.9289 121.839C39.7293 121.869 39.5342 121.897 39.3437 121.922C39.1563 121.943 39.0042 121.962 38.8875 121.977C38.6049 122.014 38.3407 122.074 38.0949 122.157C37.8522 122.237 37.6556 122.358 37.5051 122.521C37.3576 122.68 37.2839 122.899 37.2839 123.175C37.2839 123.553 37.4237 123.839 37.7032 124.032C37.9858 124.223 38.3437 124.318 38.7769 124.318ZM43.8401 125.129V118.051H44.8908V119.12H44.9645C45.0935 118.77 45.327 118.485 45.6649 118.267C46.0029 118.049 46.3838 117.94 46.8078 117.94C46.8876 117.94 46.9875 117.942 47.1073 117.945C47.2271 117.948 47.3177 117.952 47.3792 117.959V119.065C47.3423 119.055 47.2578 119.042 47.1257 119.023C46.9967 119.002 46.86 118.991 46.7156 118.991C46.3715 118.991 46.0643 119.063 45.794 119.207C45.5267 119.349 45.3147 119.545 45.158 119.797C45.0044 120.046 44.9276 120.33 44.9276 120.65V125.129H43.8401ZM50.7512 125.295C50.3027 125.295 49.8956 125.21 49.53 125.041C49.1645 124.869 48.8741 124.622 48.6591 124.299C48.444 123.974 48.3365 123.581 48.3365 123.12C48.3365 122.714 48.4164 122.386 48.5761 122.134C48.7359 121.879 48.9494 121.679 49.2167 121.535C49.484 121.39 49.7789 121.283 50.1014 121.212C50.4271 121.138 50.7543 121.08 51.083 121.037C51.5131 120.982 51.8618 120.94 52.129 120.912C52.3994 120.882 52.596 120.831 52.7189 120.76C52.8448 120.69 52.9078 120.567 52.9078 120.392V120.355C52.9078 119.9 52.7834 119.547 52.5345 119.295C52.2888 119.043 51.9155 118.917 51.4148 118.917C50.8956 118.917 50.4885 119.031 50.1936 119.258C49.8987 119.485 49.6913 119.728 49.5715 119.986L48.5393 119.618C48.7236 119.187 48.9694 118.853 49.2766 118.613C49.5869 118.37 49.9248 118.201 50.2904 118.106C50.659 118.008 51.0215 117.959 51.3779 117.959C51.6052 117.959 51.8664 117.986 52.1613 118.042C52.4593 118.094 52.7465 118.203 53.023 118.369C53.3026 118.535 53.5345 118.785 53.7188 119.12C53.9032 119.455 53.9953 119.903 53.9953 120.465V125.129H52.9078V124.17H52.8525C52.7788 124.324 52.6559 124.488 52.4839 124.663C52.3118 124.839 52.0829 124.988 51.7972 125.11C51.5115 125.233 51.1629 125.295 50.7512 125.295ZM50.9171 124.318C51.3472 124.318 51.7097 124.233 52.0046 124.064C52.3026 123.895 52.5269 123.677 52.6774 123.41C52.831 123.143 52.9078 122.862 52.9078 122.567V121.571C52.8617 121.627 52.7603 121.677 52.6037 121.723C52.4501 121.766 52.2719 121.805 52.0691 121.839C51.8694 121.869 51.6744 121.897 51.4839 121.922C51.2965 121.943 51.1444 121.962 51.0277 121.977C50.745 122.014 50.4808 122.074 50.2351 122.157C49.9924 122.237 49.7958 122.358 49.6452 122.521C49.4978 122.68 49.424 122.899 49.424 123.175C49.424 123.553 49.5638 123.839 49.8434 124.032C50.126 124.223 50.4839 124.318 50.9171 124.318ZM55.9803 125.129V118.051H57.031V119.157H57.1231C57.2706 118.779 57.5087 118.485 57.8374 118.277C58.1661 118.065 58.5609 117.959 59.0217 117.959C59.4886 117.959 59.8773 118.065 60.1875 118.277C60.5009 118.485 60.7451 118.779 60.9202 119.157H60.994C61.1752 118.791 61.4471 118.501 61.8096 118.286C62.1721 118.068 62.6068 117.959 63.1137 117.959C63.7466 117.959 64.2642 118.157 64.6667 118.553C65.0691 118.946 65.2703 119.559 65.2703 120.392V125.129H64.1828V120.392C64.1828 119.869 64.0399 119.496 63.7542 119.272C63.4685 119.048 63.1321 118.936 62.7451 118.936C62.2474 118.936 61.8618 119.086 61.5884 119.387C61.315 119.685 61.1783 120.063 61.1783 120.521V125.129H60.0723V120.281C60.0723 119.879 59.9418 119.555 59.6806 119.309C59.4195 119.06 59.0831 118.936 58.6715 118.936C58.3888 118.936 58.1246 119.011 57.8789 119.161C57.6362 119.312 57.4395 119.521 57.289 119.788C57.1415 120.052 57.0678 120.358 57.0678 120.705V125.129H55.9803Z" fill="#696969"/>
<rect x="18.5391" y="133.836" width="342.025" height="50.9531" rx="11.1228" fill="#F9FAFB"/>
<rect x="18.5391" y="133.836" width="342.025" height="50.9531" rx="11.1228" stroke="#EBEFF4" stroke-width="1.85379"/>
<path d="M29.2779 153.679H31.0317L35.1553 163.751H35.2975L39.4211 153.679H41.1749V165.812H39.8003V156.594H39.6818L35.89 165.812H34.5628L30.771 156.594H30.6525V165.812H29.2779V153.679ZM46.6094 166.026C46.0327 166.026 45.5093 165.917 45.0393 165.7C44.5693 165.479 44.196 165.161 43.9195 164.746C43.643 164.327 43.5048 163.822 43.5048 163.229C43.5048 162.708 43.6075 162.285 43.8129 161.961C44.0183 161.634 44.2928 161.377 44.6364 161.191C44.98 161.006 45.3592 160.867 45.774 160.776C46.1926 160.682 46.6133 160.607 47.0359 160.551C47.5889 160.48 48.0372 160.427 48.3809 160.391C48.7284 160.352 48.9812 160.287 49.1392 160.196C49.3012 160.105 49.3821 159.947 49.3821 159.722V159.674C49.3821 159.09 49.2222 158.636 48.9022 158.312C48.5863 157.988 48.1063 157.826 47.4625 157.826C46.795 157.826 46.2716 157.972 45.8925 158.264C45.5133 158.557 45.2467 158.869 45.0926 159.2L43.7655 158.726C44.0025 158.174 44.3184 157.743 44.7134 157.435C45.1124 157.123 45.5468 156.906 46.0169 156.783C46.4909 156.657 46.9569 156.594 47.4151 156.594C47.7074 156.594 48.0432 156.629 48.4223 156.7C48.8055 156.767 49.1748 156.908 49.5303 157.121C49.8897 157.334 50.1879 157.656 50.4249 158.087C50.6619 158.517 50.7804 159.094 50.7804 159.817V165.812H49.3821V164.58H49.3111C49.2163 164.778 49.0583 164.989 48.8371 165.214C48.6159 165.439 48.3216 165.631 47.9543 165.789C47.5869 165.947 47.1386 166.026 46.6094 166.026ZM46.8226 164.77C47.3756 164.77 47.8417 164.661 48.2209 164.444C48.604 164.227 48.8924 163.946 49.0859 163.603C49.2834 163.259 49.3821 162.898 49.3821 162.518V161.239C49.3229 161.31 49.1926 161.375 48.9911 161.434C48.7936 161.489 48.5645 161.539 48.3038 161.582C48.0471 161.622 47.7963 161.657 47.5514 161.689C47.3105 161.717 47.1149 161.74 46.9648 161.76C46.6015 161.807 46.2618 161.884 45.9458 161.991C45.6337 162.094 45.381 162.25 45.1874 162.459C44.9978 162.664 44.903 162.945 44.903 163.3C44.903 163.786 45.0827 164.154 45.4422 164.402C45.8056 164.647 46.2657 164.77 46.8226 164.77ZM53.9072 169.225C53.6702 169.225 53.4589 169.205 53.2732 169.166C53.0876 169.13 52.9592 169.095 52.8881 169.059L53.2436 167.827C53.5833 167.914 53.8835 167.945 54.1442 167.922C54.4049 167.898 54.6359 167.781 54.8374 167.572C55.0428 167.367 55.2304 167.033 55.4002 166.571L55.6609 165.86L52.2957 156.712H53.8124L56.3245 163.964H56.4193L58.9314 156.712H60.4481L56.5852 167.14C56.4114 167.61 56.1961 167.999 55.9394 168.307C55.6826 168.619 55.3844 168.85 55.0447 169C54.709 169.15 54.3298 169.225 53.9072 169.225ZM62.4833 165.812V153.679H63.8815V158.158H64C64.1027 158 64.2449 157.798 64.4266 157.553C64.6123 157.305 64.8769 157.083 65.2205 156.89C65.5681 156.692 66.0381 156.594 66.6306 156.594C67.3969 156.594 68.0723 156.785 68.6569 157.168C69.2415 157.551 69.6977 158.095 70.0255 158.798C70.3534 159.501 70.5173 160.33 70.5173 161.286C70.5173 162.25 70.3534 163.085 70.0255 163.792C69.6977 164.495 69.2434 165.04 68.6628 165.427C68.0822 165.811 67.4127 166.002 66.6543 166.002C66.0697 166.002 65.6017 165.905 65.2502 165.712C64.8986 165.514 64.6281 165.291 64.4385 165.042C64.2489 164.789 64.1027 164.58 64 164.414H63.8341V165.812H62.4833ZM63.8578 161.262C63.8578 161.95 63.9586 162.556 64.16 163.081C64.3614 163.603 64.6557 164.011 65.0428 164.308C65.4299 164.6 65.9039 164.746 66.4647 164.746C67.0493 164.746 67.5371 164.592 67.9281 164.284C68.3231 163.972 68.6194 163.553 68.8169 163.028C69.0183 162.499 69.119 161.91 69.119 161.262C69.119 160.622 69.0203 160.046 68.8228 159.532C68.6292 159.015 68.335 158.606 67.94 158.306C67.549 158.002 67.0572 157.85 66.4647 157.85C65.896 157.85 65.418 157.994 65.0309 158.282C64.6439 158.567 64.3516 158.965 64.1541 159.479C63.9566 159.988 63.8578 160.583 63.8578 161.262ZM76.4717 166.002C75.5948 166.002 74.8384 165.809 74.2025 165.421C73.5705 165.03 73.0827 164.485 72.7391 163.786C72.3994 163.083 72.2295 162.266 72.2295 161.333C72.2295 160.401 72.3994 159.58 72.7391 158.869C73.0827 158.154 73.5606 157.597 74.1729 157.198C74.789 156.795 75.5079 156.594 76.3295 156.594C76.8034 156.594 77.2715 156.673 77.7336 156.831C78.1958 156.989 78.6164 157.245 78.9956 157.601C79.3748 157.952 79.677 158.418 79.9021 158.999C80.1272 159.58 80.2398 160.295 80.2398 161.144V161.736H73.2249V160.528H78.8179C78.8179 160.014 78.7152 159.556 78.5098 159.153C78.3083 158.75 78.02 158.432 77.6448 158.199C77.2735 157.966 76.835 157.85 76.3295 157.85C75.7725 157.85 75.2907 157.988 74.8838 158.264C74.4809 158.537 74.1709 158.892 73.9536 159.331C73.7364 159.769 73.6278 160.239 73.6278 160.741V161.547C73.6278 162.234 73.7463 162.817 73.9833 163.294C74.2242 163.768 74.558 164.13 74.9845 164.379C75.4111 164.624 75.9068 164.746 76.4717 164.746C76.839 164.746 77.1708 164.695 77.467 164.592C77.7672 164.485 78.0259 164.327 78.2432 164.118C78.4604 163.905 78.6283 163.64 78.7468 163.324L80.0976 163.703C79.9554 164.161 79.7165 164.564 79.3807 164.912C79.045 165.256 78.6303 165.524 78.1365 165.718C77.6428 165.907 77.0878 166.002 76.4717 166.002ZM90.7563 166.002C89.9031 166.002 89.1684 165.801 88.5523 165.398C87.9361 164.995 87.4621 164.44 87.1303 163.733C86.7985 163.026 86.6326 162.218 86.6326 161.31C86.6326 160.385 86.8025 159.57 87.1422 158.863C87.4858 158.152 87.9637 157.597 88.576 157.198C89.1921 156.795 89.911 156.594 90.7326 156.594C91.3724 156.594 91.9491 156.712 92.4626 156.949C92.9761 157.186 93.3967 157.518 93.7246 157.944C94.0524 158.371 94.2558 158.869 94.3348 159.437H92.9366C92.8299 159.023 92.5929 158.655 92.2256 158.335C91.8622 158.012 91.3724 157.85 90.7563 157.85C90.2112 157.85 89.7333 157.992 89.3225 158.276C88.9156 158.557 88.5977 158.954 88.3686 159.467C88.1435 159.977 88.0309 160.575 88.0309 161.262C88.0309 161.965 88.1415 162.578 88.3627 163.099C88.5878 163.62 88.9038 164.025 89.3106 164.314C89.7214 164.602 90.2033 164.746 90.7563 164.746C91.1197 164.746 91.4495 164.683 91.7457 164.556C92.0419 164.43 92.2928 164.248 92.4982 164.011C92.7035 163.774 92.8497 163.49 92.9366 163.158H94.3348C94.2558 163.695 94.0603 164.179 93.7483 164.61C93.4402 165.036 93.0314 165.376 92.5219 165.629C92.0163 165.878 91.4277 166.002 90.7563 166.002ZM100.194 166.002C99.3176 166.002 98.5612 165.809 97.9252 165.421C97.2933 165.03 96.8055 164.485 96.4618 163.786C96.1221 163.083 95.9523 162.266 95.9523 161.333C95.9523 160.401 96.1221 159.58 96.4618 158.869C96.8055 158.154 97.2834 157.597 97.8956 157.198C98.5118 156.795 99.2307 156.594 100.052 156.594C100.526 156.594 100.994 156.673 101.456 156.831C101.919 156.989 102.339 157.245 102.718 157.601C103.098 157.952 103.4 158.418 103.625 158.999C103.85 159.58 103.963 160.295 103.963 161.144V161.736H96.9477V160.528H102.541C102.541 160.014 102.438 159.556 102.233 159.153C102.031 158.75 101.743 158.432 101.368 158.199C100.996 157.966 100.558 157.85 100.052 157.85C99.4953 157.85 99.0134 157.988 98.6066 158.264C98.2037 158.537 97.8936 158.892 97.6764 159.331C97.4592 159.769 97.3505 160.239 97.3505 160.741V161.547C97.3505 162.234 97.469 162.817 97.706 163.294C97.947 163.768 98.2807 164.13 98.7073 164.379C99.1339 164.624 99.6296 164.746 100.194 164.746C100.562 164.746 100.894 164.695 101.19 164.592C101.49 164.485 101.749 164.327 101.966 164.118C102.183 163.905 102.351 163.64 102.47 163.324L103.82 163.703C103.678 164.161 103.439 164.564 103.103 164.912C102.768 165.256 102.353 165.524 101.859 165.718C101.366 165.907 100.811 166.002 100.194 166.002ZM107.488 160.338V165.812H106.09V156.712H107.44V158.134H107.559C107.772 157.672 108.096 157.301 108.531 157.02C108.965 156.736 109.526 156.594 110.213 156.594C110.829 156.594 111.369 156.72 111.831 156.973C112.293 157.222 112.652 157.601 112.909 158.11C113.166 158.616 113.294 159.256 113.294 160.03V165.812H111.896V160.125C111.896 159.41 111.71 158.853 111.339 158.454C110.968 158.051 110.458 157.85 109.81 157.85C109.364 157.85 108.965 157.946 108.614 158.14C108.266 158.333 107.991 158.616 107.79 158.987C107.589 159.358 107.488 159.809 107.488 160.338ZM119.807 156.712V157.897H115.091V156.712H119.807ZM116.465 154.532H117.864V163.206C117.864 163.601 117.921 163.897 118.035 164.094C118.154 164.288 118.304 164.418 118.486 164.485C118.671 164.549 118.867 164.58 119.072 164.58C119.226 164.58 119.353 164.572 119.451 164.556C119.55 164.537 119.629 164.521 119.688 164.509L119.973 165.765C119.878 165.801 119.746 165.836 119.576 165.872C119.406 165.911 119.191 165.931 118.93 165.931C118.535 165.931 118.148 165.846 117.769 165.676C117.394 165.506 117.081 165.248 116.833 164.9C116.588 164.552 116.465 164.114 116.465 163.585V154.532ZM125.628 166.002C124.751 166.002 123.995 165.809 123.359 165.421C122.727 165.03 122.239 164.485 121.895 163.786C121.556 163.083 121.386 162.266 121.386 161.333C121.386 160.401 121.556 159.58 121.895 158.869C122.239 158.154 122.717 157.597 123.329 157.198C123.945 156.795 124.664 156.594 125.486 156.594C125.96 156.594 126.428 156.673 126.89 156.831C127.352 156.989 127.773 157.245 128.152 157.601C128.531 157.952 128.833 158.418 129.058 158.999C129.284 159.58 129.396 160.295 129.396 161.144V161.736H122.381V160.528H127.974C127.974 160.014 127.871 159.556 127.666 159.153C127.465 158.75 127.176 158.432 126.801 158.199C126.43 157.966 125.991 157.85 125.486 157.85C124.929 157.85 124.447 157.988 124.04 158.264C123.637 158.537 123.327 158.892 123.11 159.331C122.893 159.769 122.784 160.239 122.784 160.741V161.547C122.784 162.234 122.903 162.817 123.14 163.294C123.38 163.768 123.714 164.13 124.141 164.379C124.567 164.624 125.063 164.746 125.628 164.746C125.995 164.746 126.327 164.695 126.623 164.592C126.924 164.485 127.182 164.327 127.399 164.118C127.617 163.905 127.785 163.64 127.903 163.324L129.254 163.703C129.112 164.161 128.873 164.564 128.537 164.912C128.201 165.256 127.787 165.524 127.293 165.718C126.799 165.907 126.244 166.002 125.628 166.002ZM131.523 165.812V156.712H132.874V158.087H132.969C133.135 157.636 133.435 157.271 133.869 156.991C134.304 156.71 134.794 156.57 135.339 156.57C135.441 156.57 135.57 156.572 135.724 156.576C135.878 156.58 135.994 156.586 136.073 156.594V158.016C136.026 158.004 135.917 157.986 135.747 157.962C135.582 157.935 135.406 157.921 135.22 157.921C134.778 157.921 134.383 158.014 134.035 158.199C133.692 158.381 133.419 158.634 133.218 158.958C133.02 159.277 132.921 159.643 132.921 160.054V165.812H131.523ZM142.423 165.812V156.712H143.821V165.812H142.423ZM143.134 155.195C142.862 155.195 142.627 155.102 142.429 154.917C142.236 154.731 142.139 154.508 142.139 154.247C142.139 153.987 142.236 153.764 142.429 153.578C142.627 153.392 142.862 153.299 143.134 153.299C143.407 153.299 143.64 153.392 143.833 153.578C144.031 153.764 144.13 153.987 144.13 154.247C144.13 154.508 144.031 154.731 143.833 154.917C143.64 155.102 143.407 155.195 143.134 155.195ZM150.34 156.712V157.897H145.624V156.712H150.34ZM146.999 154.532H148.397V163.206C148.397 163.601 148.454 163.897 148.569 164.094C148.687 164.288 148.837 164.418 149.019 164.485C149.205 164.549 149.4 164.58 149.605 164.58C149.76 164.58 149.886 164.572 149.985 164.556C150.083 164.537 150.162 164.521 150.222 164.509L150.506 165.765C150.411 165.801 150.279 165.836 150.109 165.872C149.939 165.911 149.724 165.931 149.463 165.931C149.068 165.931 148.681 165.846 148.302 165.676C147.927 165.506 147.615 165.248 147.366 164.9C147.121 164.552 146.999 164.114 146.999 163.585V154.532ZM161.094 156.712V157.897H156.378V156.712H161.094ZM157.752 154.532H159.15V163.206C159.15 163.601 159.208 163.897 159.322 164.094C159.441 164.288 159.591 164.418 159.772 164.485C159.958 164.549 160.154 164.58 160.359 164.58C160.513 164.58 160.639 164.572 160.738 164.556C160.837 164.537 160.916 164.521 160.975 164.509L161.26 165.765C161.165 165.801 161.032 165.836 160.863 165.872C160.693 165.911 160.477 165.931 160.217 165.931C159.822 165.931 159.435 165.846 159.055 165.676C158.68 165.506 158.368 165.248 158.119 164.9C157.874 164.552 157.752 164.114 157.752 163.585V154.532ZM166.796 166.002C165.975 166.002 165.254 165.807 164.634 165.416C164.017 165.025 163.536 164.477 163.188 163.774C162.844 163.071 162.673 162.25 162.673 161.31C162.673 160.362 162.844 159.534 163.188 158.827C163.536 158.12 164.017 157.571 164.634 157.18C165.254 156.789 165.975 156.594 166.796 156.594C167.618 156.594 168.337 156.789 168.953 157.18C169.573 157.571 170.055 158.12 170.398 158.827C170.746 159.534 170.92 160.362 170.92 161.31C170.92 162.25 170.746 163.071 170.398 163.774C170.055 164.477 169.573 165.025 168.953 165.416C168.337 165.807 167.618 166.002 166.796 166.002ZM166.796 164.746C167.42 164.746 167.934 164.586 168.337 164.266C168.74 163.946 169.038 163.526 169.231 163.004C169.425 162.483 169.522 161.918 169.522 161.31C169.522 160.701 169.425 160.135 169.231 159.609C169.038 159.084 168.74 158.659 168.337 158.335C167.934 158.012 167.42 157.85 166.796 157.85C166.172 157.85 165.659 158.012 165.256 158.335C164.853 158.659 164.555 159.084 164.361 159.609C164.168 160.135 164.071 160.701 164.071 161.31C164.071 161.918 164.168 162.483 164.361 163.004C164.555 163.526 164.853 163.946 165.256 164.266C165.659 164.586 166.172 164.746 166.796 164.746ZM181.704 156.712V157.897H176.988V156.712H181.704ZM178.363 154.532H179.761V163.206C179.761 163.601 179.818 163.897 179.933 164.094C180.051 164.288 180.201 164.418 180.383 164.485C180.569 164.549 180.764 164.58 180.97 164.58C181.124 164.58 181.25 164.572 181.349 164.556C181.448 164.537 181.527 164.521 181.586 164.509L181.87 165.765C181.775 165.801 181.643 165.836 181.473 165.872C181.303 165.911 181.088 165.931 180.828 165.931C180.433 165.931 180.045 165.846 179.666 165.676C179.291 165.506 178.979 165.248 178.73 164.9C178.485 164.552 178.363 164.114 178.363 163.585V154.532ZM185.401 160.338V165.812H184.003V153.679H185.401V158.134H185.52C185.733 157.664 186.053 157.291 186.48 157.014C186.91 156.734 187.483 156.594 188.198 156.594C188.818 156.594 189.361 156.718 189.827 156.967C190.293 157.212 190.655 157.589 190.911 158.098C191.172 158.604 191.303 159.248 191.303 160.03V165.812H189.904V160.125C189.904 159.402 189.717 158.843 189.341 158.448C188.97 158.049 188.455 157.85 187.795 157.85C187.337 157.85 186.926 157.946 186.563 158.14C186.203 158.333 185.919 158.616 185.71 158.987C185.504 159.358 185.401 159.809 185.401 160.338ZM197.676 166.002C196.799 166.002 196.043 165.809 195.407 165.421C194.775 165.03 194.287 164.485 193.943 163.786C193.604 163.083 193.434 162.266 193.434 161.333C193.434 160.401 193.604 159.58 193.943 158.869C194.287 158.154 194.765 157.597 195.377 157.198C195.993 156.795 196.712 156.594 197.534 156.594C198.008 156.594 198.476 156.673 198.938 156.831C199.4 156.989 199.821 157.245 200.2 157.601C200.579 157.952 200.881 158.418 201.107 158.999C201.332 159.58 201.444 160.295 201.444 161.144V161.736H194.429V160.528H200.022C200.022 160.014 199.92 159.556 199.714 159.153C199.513 158.75 199.224 158.432 198.849 158.199C198.478 157.966 198.039 157.85 197.534 157.85C196.977 157.85 196.495 157.988 196.088 158.264C195.685 158.537 195.375 158.892 195.158 159.331C194.941 159.769 194.832 160.239 194.832 160.741V161.547C194.832 162.234 194.951 162.817 195.188 163.294C195.429 163.768 195.762 164.13 196.189 164.379C196.616 164.624 197.111 164.746 197.676 164.746C198.043 164.746 198.375 164.695 198.671 164.592C198.972 164.485 199.23 164.327 199.448 164.118C199.665 163.905 199.833 163.64 199.951 163.324L201.302 163.703C201.16 164.161 200.921 164.564 200.585 164.912C200.249 165.256 199.835 165.524 199.341 165.718C198.847 165.907 198.292 166.002 197.676 166.002ZM210.325 165.812L207.553 156.712H209.022L210.989 163.68H211.084L213.027 156.712H214.52L216.44 163.656H216.535L218.502 156.712H219.971L217.198 165.812H215.824L213.833 158.821H213.691L211.7 165.812H210.325ZM225.325 166.002C224.449 166.002 223.692 165.809 223.056 165.421C222.424 165.03 221.937 164.485 221.593 163.786C221.253 163.083 221.083 162.266 221.083 161.333C221.083 160.401 221.253 159.58 221.593 158.869C221.937 158.154 222.414 157.597 223.027 157.198C223.643 156.795 224.362 156.594 225.183 156.594C225.657 156.594 226.125 156.673 226.587 156.831C227.05 156.989 227.47 157.245 227.849 157.601C228.229 157.952 228.531 158.418 228.756 158.999C228.981 159.58 229.094 160.295 229.094 161.144V161.736H222.079V160.528H227.672C227.672 160.014 227.569 159.556 227.364 159.153C227.162 158.75 226.874 158.432 226.499 158.199C226.127 157.966 225.689 157.85 225.183 157.85C224.626 157.85 224.144 157.988 223.738 158.264C223.335 158.537 223.025 158.892 222.807 159.331C222.59 159.769 222.482 160.239 222.482 160.741V161.547C222.482 162.234 222.6 162.817 222.837 163.294C223.078 163.768 223.412 164.13 223.838 164.379C224.265 164.624 224.761 164.746 225.325 164.746C225.693 164.746 226.025 164.695 226.321 164.592C226.621 164.485 226.88 164.327 227.097 164.118C227.314 163.905 227.482 163.64 227.601 163.324L228.951 163.703C228.809 164.161 228.57 164.564 228.235 164.912C227.899 165.256 227.484 165.524 226.99 165.718C226.497 165.907 225.942 166.002 225.325 166.002ZM231.41 165.812V153.679H232.808V158.158H232.927C233.03 158 233.172 157.798 233.354 157.553C233.539 157.305 233.804 157.083 234.147 156.89C234.495 156.692 234.965 156.594 235.558 156.594C236.324 156.594 236.999 156.785 237.584 157.168C238.168 157.551 238.625 158.095 238.952 158.798C239.28 159.501 239.444 160.33 239.444 161.286C239.444 162.25 239.28 163.085 238.952 163.792C238.625 164.495 238.17 165.04 237.59 165.427C237.009 165.811 236.34 166.002 235.581 166.002C234.997 166.002 234.529 165.905 234.177 165.712C233.826 165.514 233.555 165.291 233.365 165.042C233.176 164.789 233.03 164.58 232.927 164.414H232.761V165.812H231.41ZM232.785 161.262C232.785 161.95 232.885 162.556 233.087 163.081C233.288 163.603 233.583 164.011 233.97 164.308C234.357 164.6 234.831 164.746 235.392 164.746C235.976 164.746 236.464 164.592 236.855 164.284C237.25 163.972 237.546 163.553 237.744 163.028C237.945 162.499 238.046 161.91 238.046 161.262C238.046 160.622 237.947 160.046 237.75 159.532C237.556 159.015 237.262 158.606 236.867 158.306C236.476 158.002 235.984 157.85 235.392 157.85C234.823 157.85 234.345 157.994 233.958 158.282C233.571 158.567 233.278 158.965 233.081 159.479C232.884 159.988 232.785 160.583 232.785 161.262ZM248.029 158.75L246.773 159.106C246.694 158.896 246.578 158.693 246.424 158.495C246.273 158.294 246.068 158.128 245.807 157.998C245.547 157.867 245.213 157.802 244.806 157.802C244.249 157.802 243.785 157.931 243.414 158.187C243.046 158.44 242.863 158.762 242.863 159.153C242.863 159.501 242.989 159.775 243.242 159.977C243.495 160.178 243.89 160.346 244.427 160.48L245.778 160.812C246.591 161.009 247.198 161.312 247.597 161.718C247.996 162.121 248.195 162.641 248.195 163.277C248.195 163.798 248.045 164.264 247.745 164.675C247.449 165.086 247.034 165.41 246.501 165.647C245.967 165.884 245.347 166.002 244.64 166.002C243.712 166.002 242.944 165.801 242.335 165.398C241.727 164.995 241.342 164.406 241.18 163.632L242.507 163.3C242.634 163.79 242.873 164.158 243.224 164.402C243.58 164.647 244.044 164.77 244.617 164.77C245.268 164.77 245.786 164.631 246.169 164.355C246.556 164.075 246.749 163.739 246.749 163.348C246.749 163.032 246.639 162.767 246.418 162.554C246.196 162.337 245.857 162.175 245.399 162.068L243.882 161.713C243.048 161.515 242.436 161.209 242.045 160.794C241.658 160.376 241.465 159.852 241.465 159.224C241.465 158.711 241.609 158.256 241.897 157.861C242.189 157.466 242.586 157.156 243.088 156.931C243.594 156.706 244.166 156.594 244.806 156.594C245.707 156.594 246.414 156.791 246.927 157.186C247.445 157.581 247.812 158.102 248.029 158.75ZM250.3 165.812V156.712H251.698V165.812H250.3ZM251.011 155.195C250.738 155.195 250.503 155.102 250.306 154.917C250.112 154.731 250.015 154.508 250.015 154.247C250.015 153.987 250.112 153.764 250.306 153.578C250.503 153.392 250.738 153.299 251.011 153.299C251.283 153.299 251.516 153.392 251.71 153.578C251.907 153.764 252.006 153.987 252.006 154.247C252.006 154.508 251.907 154.731 251.71 154.917C251.516 155.102 251.283 155.195 251.011 155.195ZM258.217 156.712V157.897H253.501V156.712H258.217ZM254.875 154.532H256.273V163.206C256.273 163.601 256.331 163.897 256.445 164.094C256.564 164.288 256.714 164.418 256.896 164.485C257.081 164.549 257.277 164.58 257.482 164.58C257.636 164.58 257.763 164.572 257.861 164.556C257.96 164.537 258.039 164.521 258.098 164.509L258.383 165.765C258.288 165.801 258.156 165.836 257.986 165.872C257.816 165.911 257.601 165.931 257.34 165.931C256.945 165.931 256.558 165.846 256.179 165.676C255.803 165.506 255.491 165.248 255.243 164.9C254.998 164.552 254.875 164.114 254.875 163.585V154.532ZM264.038 166.002C263.161 166.002 262.405 165.809 261.769 165.421C261.137 165.03 260.649 164.485 260.305 163.786C259.966 163.083 259.796 162.266 259.796 161.333C259.796 160.401 259.966 159.58 260.305 158.869C260.649 158.154 261.127 157.597 261.739 157.198C262.355 156.795 263.074 156.594 263.896 156.594C264.37 156.594 264.838 156.673 265.3 156.831C265.762 156.989 266.183 157.245 266.562 157.601C266.941 157.952 267.243 158.418 267.468 158.999C267.693 159.58 267.806 160.295 267.806 161.144V161.736H260.791V160.528H266.384C266.384 160.014 266.281 159.556 266.076 159.153C265.875 158.75 265.586 158.432 265.211 158.199C264.84 157.966 264.401 157.85 263.896 157.85C263.339 157.85 262.857 157.988 262.45 158.264C262.047 158.537 261.737 158.892 261.52 159.331C261.303 159.769 261.194 160.239 261.194 160.741V161.547C261.194 162.234 261.313 162.817 261.55 163.294C261.79 163.768 262.124 164.13 262.551 164.379C262.977 164.624 263.473 164.746 264.038 164.746C264.405 164.746 264.737 164.695 265.033 164.592C265.333 164.485 265.592 164.327 265.809 164.118C266.027 163.905 266.195 163.64 266.313 163.324L267.664 163.703C267.522 164.161 267.283 164.564 266.947 164.912C266.611 165.256 266.197 165.524 265.703 165.718C265.209 165.907 264.654 166.002 264.038 166.002ZM271.758 162.4V162.329C271.766 161.574 271.845 160.974 271.995 160.528C272.145 160.081 272.358 159.72 272.635 159.443C272.911 159.167 273.243 158.912 273.63 158.679C273.863 158.537 274.072 158.369 274.258 158.175C274.444 157.978 274.59 157.751 274.697 157.494C274.807 157.237 274.862 156.953 274.862 156.641C274.862 156.254 274.772 155.918 274.59 155.634C274.408 155.349 274.165 155.13 273.861 154.976C273.557 154.822 273.219 154.745 272.848 154.745C272.524 154.745 272.212 154.812 271.912 154.946C271.612 155.081 271.361 155.292 271.159 155.58C270.958 155.869 270.842 156.246 270.81 156.712H269.317C269.348 156.041 269.522 155.466 269.838 154.988C270.158 154.51 270.579 154.145 271.1 153.892C271.626 153.639 272.208 153.513 272.848 153.513C273.543 153.513 274.148 153.651 274.661 153.927C275.178 154.204 275.577 154.583 275.858 155.065C276.142 155.547 276.284 156.096 276.284 156.712C276.284 157.147 276.217 157.54 276.083 157.891C275.953 158.243 275.763 158.557 275.514 158.833C275.269 159.11 274.973 159.355 274.625 159.568C274.278 159.785 273.999 160.014 273.79 160.255C273.581 160.492 273.429 160.774 273.334 161.102C273.239 161.43 273.188 161.839 273.18 162.329V162.4H271.758ZM272.516 165.907C272.224 165.907 271.973 165.803 271.764 165.593C271.554 165.384 271.45 165.133 271.45 164.841C271.45 164.549 271.554 164.298 271.764 164.088C271.973 163.879 272.224 163.774 272.516 163.774C272.809 163.774 273.059 163.879 273.269 164.088C273.478 164.298 273.583 164.549 273.583 164.841C273.583 165.034 273.533 165.212 273.435 165.374C273.34 165.536 273.211 165.666 273.049 165.765C272.891 165.86 272.714 165.907 272.516 165.907Z" fill="#181818"/>
<defs>
<filter id="filter0_i_3358_33239" x="11.1211" y="11.1211" width="22.2461" height="25.9537" filterUnits="userSpaceOnUse" color-interpolation-filters="sRGB">
<feFlood flood-opacity="0" result="BackgroundImageFix"/>
<feBlend mode="normal" in="SourceGraphic" in2="BackgroundImageFix" result="shape"/>
<feColorMatrix in="SourceAlpha" type="matrix" values="0 0 0 0 0 0 0 0 0 0 0 0 0 0 0 0 0 0 127 0" result="hardAlpha"/>
<feOffset dy="3.70759"/>
<feGaussianBlur stdDeviation="4.63448"/>
<feComposite in2="hardAlpha" operator="arithmetic" k2="-1" k3="1"/>
<feColorMatrix type="matrix" values="0 0 0 0 0 0 0 0 0 0 0 0 0 0 0 0 0 0 0.19 0"/>
<feBlend mode="normal" in2="shape" result="effect1_innerShadow_3358_33239"/>
</filter>
<radialGradient id="paint0_radial_3358_33239" cx="0" cy="0" r="1" gradientUnits="userSpaceOnUse" gradientTransform="translate(12.9766 10.6593) rotate(74.6785) scale(35.0785)">
<stop stop-color="#4749FF"/>
<stop offset="1" stop-color="#4749FF" stop-opacity="0.5"/>
</radialGradient>
<radialGradient id="paint1_radial_3358_33239" cx="0" cy="0" r="1" gradientUnits="userSpaceOnUse" gradientTransform="translate(20.3928 19.466) rotate(84.5597) scale(19.5529)">
<stop stop-color="#4749FF"/>
<stop offset="1" stop-color="#4749FF" stop-opacity="0.6"/>
</radialGradient>
<radialGradient id="paint2_radial_3358_33239" cx="0" cy="0" r="1" gradientUnits="userSpaceOnUse" gradientTransform="translate(20.8535 19.4632) rotate(84.2894) scale(13.9728)">
<stop stop-color="#4749FF"/>
<stop offset="1" stop-color="#4749FF" stop-opacity="0.85"/>
</radialGradient>
</defs>
</svg>
