<svg width="380" height="208" viewBox="0 0 380 208" fill="none" xmlns="http://www.w3.org/2000/svg">
<circle cx="22.2455" cy="22.2455" r="22.2455" fill="url(#paint0_radial_3358_33240)" fill-opacity="0.2"/>
<circle cx="22.2466" cy="22.2466" r="16.6841" fill="url(#paint1_radial_3358_33240)" fill-opacity="0.3"/>
<g filter="url(#filter0_i_3358_33240)">
<circle cx="22.2439" cy="22.2439" r="11.1228" fill="url(#paint2_radial_3358_33240)"/>
</g>
<rect x="0.926897" y="52.8331" width="377.247" height="153.275" rx="24.0993" fill="white"/>
<rect x="0.926897" y="52.8331" width="377.247" height="153.275" rx="24.0993" stroke="#EBEFF4" stroke-width="1.85379"/>
<path d="M20.0203 89.4453V75.9632H28.3808V77.7143H22.0544V81.8221H27.7817V83.5666H22.0544V89.4453H20.0203ZM34.5255 89.6494C33.5292 89.6494 32.6712 89.4365 31.9515 89.0108C31.2361 88.5807 30.6831 87.9773 30.2925 87.2005C29.9063 86.4193 29.7132 85.5042 29.7132 84.4553C29.7132 83.4196 29.9063 82.5068 30.2925 81.7168C30.6831 80.9268 31.2273 80.3102 31.9251 79.8669C32.6273 79.4237 33.448 79.2021 34.3872 79.2021C34.9578 79.2021 35.5107 79.2964 36.0462 79.4851C36.5816 79.6738 37.0621 79.9701 37.4878 80.3738C37.9136 80.7776 38.2493 81.3021 38.4951 81.9472C38.7408 82.5879 38.8637 83.3669 38.8637 84.2842V84.982H30.8258V83.5074H36.9349C36.9349 82.9895 36.8295 82.5309 36.6189 82.1315C36.4082 81.7278 36.112 81.4096 35.7302 81.177C35.3527 80.9444 34.9095 80.8281 34.4004 80.8281C33.8474 80.8281 33.3646 80.9641 32.9521 81.2362C32.544 81.5039 32.228 81.855 32.0041 82.2895C31.7847 82.7196 31.675 83.187 31.675 83.6917V84.8437C31.675 85.5196 31.7935 86.0945 32.0305 86.5685C32.2719 87.0425 32.6076 87.4046 33.0377 87.6547C33.4678 87.9005 33.9703 88.0234 34.5452 88.0234C34.9183 88.0234 35.2584 87.9707 35.5656 87.8654C35.8728 87.7557 36.1383 87.5933 36.3621 87.3782C36.586 87.1632 36.7571 86.8977 36.8756 86.5817L38.7386 86.9174C38.5894 87.466 38.3217 87.9466 37.9355 88.3591C37.5537 88.7673 37.0731 89.0854 36.4938 89.3137C35.9189 89.5375 35.2628 89.6494 34.5255 89.6494ZM45.591 89.6494C44.5948 89.6494 43.7368 89.4365 43.017 89.0108C42.3017 88.5807 41.7487 87.9773 41.3581 87.2005C40.9719 86.4193 40.7788 85.5042 40.7788 84.4553C40.7788 83.4196 40.9719 82.5068 41.3581 81.7168C41.7487 80.9268 42.2929 80.3102 42.9907 79.8669C43.6929 79.4237 44.5136 79.2021 45.4528 79.2021C46.0233 79.2021 46.5763 79.2964 47.1117 79.4851C47.6471 79.6738 48.1277 79.9701 48.5534 80.3738C48.9791 80.7776 49.3148 81.3021 49.5606 81.9472C49.8064 82.5879 49.9293 83.3669 49.9293 84.2842V84.982H41.8913V83.5074H48.0004C48.0004 82.9895 47.8951 82.5309 47.6844 82.1315C47.4738 81.7278 47.1775 81.4096 46.7957 81.177C46.4183 80.9444 45.975 80.8281 45.4659 80.8281C44.913 80.8281 44.4302 80.9641 44.0177 81.2362C43.6095 81.5039 43.2935 81.855 43.0697 82.2895C42.8503 82.7196 42.7405 83.187 42.7405 83.6917V84.8437C42.7405 85.5196 42.859 86.0945 43.096 86.5685C43.3374 87.0425 43.6731 87.4046 44.1032 87.6547C44.5333 87.9005 45.0358 88.0234 45.6108 88.0234C45.9838 88.0234 46.3239 87.9707 46.6311 87.8654C46.9384 87.7557 47.2039 87.5933 47.4277 87.3782C47.6515 87.1632 47.8227 86.8977 47.9412 86.5817L49.8042 86.9174C49.655 87.466 49.3873 87.9466 49.001 88.3591C48.6192 88.7673 48.1387 89.0854 47.5594 89.3137C46.9844 89.5375 46.3283 89.6494 45.591 89.6494ZM56.0838 89.6428C55.2675 89.6428 54.539 89.4343 53.8983 89.0174C53.2619 88.5961 52.7616 87.997 52.3973 87.2202C52.0374 86.439 51.8575 85.5021 51.8575 84.4093C51.8575 83.3165 52.0396 82.3817 52.4039 81.6049C52.7726 80.8281 53.2773 80.2334 53.918 79.8209C54.5588 79.4083 55.2851 79.2021 56.097 79.2021C56.7246 79.2021 57.2293 79.3074 57.6111 79.518C57.9973 79.7243 58.2958 79.9657 58.5064 80.2422C58.7215 80.5187 58.8882 80.7622 59.0067 80.9729H59.1252V75.9632H61.0936V89.4453H59.1713V87.872H59.0067C58.8882 88.087 58.7171 88.3328 58.4932 88.6093C58.2738 88.8858 57.971 89.1271 57.5848 89.3334C57.1986 89.5397 56.6983 89.6428 56.0838 89.6428ZM56.5183 87.9641C57.0845 87.9641 57.5628 87.8149 57.9534 87.5165C58.3484 87.2137 58.6469 86.7945 58.8487 86.2591C59.055 85.7237 59.1581 85.1005 59.1581 84.3895C59.1581 83.6873 59.0572 83.0729 58.8553 82.5463C58.6534 82.0196 58.3572 81.6093 57.9666 81.3152C57.576 81.0212 57.0932 80.8742 56.5183 80.8742C55.9258 80.8742 55.4321 81.0278 55.0371 81.335C54.6421 81.6422 54.3437 82.0613 54.1418 82.5923C53.9443 83.1234 53.8456 83.7224 53.8456 84.3895C53.8456 85.0654 53.9465 85.6732 54.1484 86.213C54.3503 86.7528 54.6487 87.1807 55.0437 87.4967C55.4431 87.8083 55.9346 87.9641 56.5183 87.9641ZM64.2463 89.4453V75.9632H66.2146V80.9729H66.3331C66.4472 80.7622 66.6118 80.5187 66.8268 80.2422C67.0419 79.9657 67.3403 79.7243 67.7221 79.518C68.1039 79.3074 68.6086 79.2021 69.2362 79.2021C70.0525 79.2021 70.7811 79.4083 71.4218 79.8209C72.0626 80.2334 72.5651 80.8281 72.9293 81.6049C73.298 82.3817 73.4823 83.3165 73.4823 84.4093C73.4823 85.5021 73.3002 86.439 72.9359 87.2202C72.5717 87.997 72.0713 88.5961 71.435 89.0174C70.7986 89.4343 70.0723 89.6428 69.256 89.6428C68.6416 89.6428 68.1391 89.5397 67.7485 89.3334C67.3622 89.1271 67.0594 88.8858 66.84 88.6093C66.6206 88.3328 66.4516 88.087 66.3331 87.872H66.1685V89.4453H64.2463ZM66.1751 84.3895C66.1751 85.1005 66.2782 85.7237 66.4845 86.2591C66.6908 86.7945 66.9892 87.2137 67.3798 87.5165C67.7704 87.8149 68.2488 87.9641 68.8149 87.9641C69.403 87.9641 69.8945 87.8083 70.2895 87.4967C70.6845 87.1807 70.9829 86.7528 71.1848 86.213C71.3911 85.6732 71.4942 85.0654 71.4942 84.3895C71.4942 83.7224 71.3933 83.1234 71.1914 82.5923C70.9939 82.0613 70.6955 81.6422 70.2961 81.335C69.9011 81.0278 69.4074 80.8742 68.8149 80.8742C68.2444 80.8742 67.7616 81.0212 67.3666 81.3152C66.976 81.6093 66.6798 82.0196 66.4779 82.5463C66.276 83.0729 66.1751 83.6873 66.1751 84.3895ZM78.8206 89.6691C78.1798 89.6691 77.6005 89.5506 77.0827 89.3137C76.5648 89.0723 76.1544 88.7234 75.8516 88.2669C75.5532 87.8105 75.404 87.251 75.404 86.5883C75.404 86.0177 75.5137 85.5481 75.7331 85.1795C75.9526 84.8108 76.2488 84.519 76.6218 84.3039C76.9949 84.0889 77.4118 83.9265 77.8726 83.8168C78.3334 83.7071 78.803 83.6237 79.2814 83.5666C79.887 83.4964 80.3786 83.4394 80.756 83.3955C81.1334 83.3472 81.4077 83.2704 81.5789 83.1651C81.7501 83.0597 81.8356 82.8886 81.8356 82.6516V82.6055C81.8356 82.0306 81.6733 81.5851 81.3485 81.2691C81.0281 80.9531 80.5497 80.7952 79.9134 80.7952C79.2507 80.7952 78.7284 80.9422 78.3466 81.2362C77.9692 81.5259 77.7081 81.8484 77.5632 82.2039L75.7134 81.7826C75.9328 81.1682 76.2532 80.6723 76.6745 80.2948C77.1002 79.913 77.5896 79.6365 78.1425 79.4654C78.6955 79.2898 79.277 79.2021 79.887 79.2021C80.2908 79.2021 80.7187 79.2503 81.1707 79.3469C81.6272 79.439 82.0529 79.6102 82.4479 79.8604C82.8472 80.1105 83.1742 80.4682 83.4287 80.9334C83.6833 81.3942 83.8106 81.9933 83.8106 82.7306V89.4453H81.8883V88.0629H81.8093C81.682 88.3174 81.4911 88.5676 81.2366 88.8133C80.982 89.0591 80.6551 89.2632 80.2557 89.4256C79.8563 89.5879 79.378 89.6691 78.8206 89.6691ZM79.2485 88.0892C79.7927 88.0892 80.2579 87.9817 80.6441 87.7666C81.0347 87.5516 81.3309 87.2707 81.5328 86.924C81.7391 86.5729 81.8422 86.1977 81.8422 85.7983V84.4948C81.772 84.5651 81.636 84.6309 81.4341 84.6923C81.2366 84.7494 81.0106 84.7999 80.756 84.8437C80.5015 84.8832 80.2535 84.9205 80.0121 84.9557C79.7707 84.9864 79.5689 85.0127 79.4065 85.0347C79.0247 85.0829 78.6758 85.1641 78.3598 85.2782C78.0482 85.3923 77.798 85.5569 77.6093 85.772C77.425 85.9826 77.3328 86.2635 77.3328 86.6146C77.3328 87.1017 77.5128 87.4704 77.8726 87.7205C78.2325 87.9663 78.6911 88.0892 79.2485 88.0892ZM90.8769 89.6494C89.8982 89.6494 89.0556 89.4278 88.349 88.9845C87.6468 88.5368 87.107 87.9202 86.7296 87.1347C86.3521 86.3491 86.1634 85.4494 86.1634 84.4356C86.1634 83.4086 86.3565 82.5024 86.7427 81.7168C87.1289 80.9268 87.6731 80.3102 88.3753 79.8669C89.0775 79.4237 89.9048 79.2021 90.8571 79.2021C91.6252 79.2021 92.3098 79.3447 92.9111 79.63C93.5123 79.9108 93.9973 80.3058 94.3659 80.8149C94.739 81.324 94.9606 81.9187 95.0308 82.5989H93.1151C93.0098 82.1249 92.7684 81.7168 92.391 81.3745C92.018 81.0321 91.5176 80.861 90.8901 80.861C90.3415 80.861 89.8609 81.0058 89.4484 81.2955C89.0402 81.5807 88.722 81.9889 88.4938 82.5199C88.2656 83.0466 88.1515 83.6698 88.1515 84.3895C88.1515 85.1268 88.2634 85.7632 88.4872 86.2986C88.7111 86.834 89.0271 87.2488 89.4352 87.5428C89.8477 87.8368 90.3327 87.9839 90.8901 87.9839C91.2631 87.9839 91.601 87.9158 91.9039 87.7798C92.2111 87.6394 92.4678 87.4397 92.6741 87.1807C92.8847 86.9218 93.0318 86.6102 93.1151 86.2459H95.0308C94.9606 86.8999 94.7477 87.4836 94.3923 87.997C94.0368 88.5105 93.5606 88.9143 92.9637 89.2083C92.3713 89.5024 91.6756 89.6494 90.8769 89.6494ZM99.1315 86.0155L99.1183 83.6127H99.4606L103.489 79.3337H105.846L101.251 84.2052H100.942L99.1315 86.0155ZM97.3211 89.4453V75.9632H99.2895V89.4453H97.3211ZM103.707 89.4453L100.086 84.6397L101.442 83.2638L106.123 89.4453H103.707Z" fill="black"/>
<path d="M355.721 75.2349C355.993 74.9634 356.433 74.9634 356.705 75.2349C356.976 75.5063 356.976 75.9459 356.705 76.2173L350.45 82.4712L356.705 88.7251C356.976 88.9966 356.976 89.4371 356.705 89.7085C356.433 89.9799 355.993 89.9798 355.721 89.7085L349.467 83.4536L343.213 89.7085C342.942 89.9797 342.502 89.9796 342.231 89.7085C341.959 89.437 341.959 88.9966 342.231 88.7251L348.484 82.4712L342.231 76.2173C341.959 75.9458 341.959 75.5063 342.231 75.2349C342.502 74.9634 342.942 74.9634 343.213 75.2349L349.467 81.4878L355.721 75.2349Z" fill="#292D32"/>
<path d="M22.5942 125.129H19.6819V115.691H22.7233C23.6388 115.691 24.4221 115.88 25.0734 116.258C25.7247 116.633 26.2239 117.172 26.5711 117.876C26.9182 118.576 27.0918 119.415 27.0918 120.392C27.0918 121.375 26.9167 122.221 26.5665 122.931C26.2162 123.637 25.7063 124.181 25.0366 124.562C24.3668 124.94 23.5527 125.129 22.5942 125.129ZM20.8247 124.115H22.5205C23.3008 124.115 23.9475 123.965 24.4605 123.664C24.9736 123.362 25.3561 122.934 25.608 122.378C25.8599 121.822 25.9858 121.16 25.9858 120.392C25.9858 119.63 25.8614 118.974 25.6126 118.424C25.3637 117.871 24.992 117.447 24.4974 117.152C24.0028 116.854 23.3868 116.705 22.6495 116.705H20.8247V124.115ZM29.9488 120.871V125.129H28.8613V115.691H29.9488V119.157H30.041C30.2069 118.791 30.4557 118.501 30.7875 118.286C31.1224 118.068 31.5678 117.959 32.1239 117.959C32.6062 117.959 33.0286 118.055 33.3911 118.249C33.7536 118.439 34.0347 118.733 34.2344 119.129C34.4372 119.522 34.5386 120.023 34.5386 120.631V125.129H33.451V120.705C33.451 120.143 33.3051 119.708 33.0133 119.401C32.7245 119.091 32.3236 118.936 31.8105 118.936C31.4542 118.936 31.1347 119.011 30.852 119.161C30.5725 119.312 30.3513 119.532 30.1885 119.82C30.0287 120.109 29.9488 120.459 29.9488 120.871ZM38.611 125.295C38.1625 125.295 37.7554 125.21 37.3899 125.041C37.0243 124.869 36.734 124.622 36.5189 124.299C36.3039 123.974 36.1963 123.581 36.1963 123.12C36.1963 122.714 36.2762 122.386 36.436 122.134C36.5957 121.879 36.8092 121.679 37.0765 121.535C37.3438 121.39 37.6387 121.283 37.9613 121.212C38.2869 121.138 38.6141 121.08 38.9428 121.037C39.3729 120.982 39.7216 120.94 39.9889 120.912C40.2592 120.882 40.4558 120.831 40.5787 120.76C40.7047 120.69 40.7676 120.567 40.7676 120.392V120.355C40.7676 119.9 40.6432 119.547 40.3944 119.295C40.1486 119.043 39.7753 118.917 39.2746 118.917C38.7554 118.917 38.3484 119.031 38.0534 119.258C37.7585 119.485 37.5511 119.728 37.4313 119.986L36.3991 119.618C36.5834 119.187 36.8292 118.853 37.1364 118.613C37.4467 118.37 37.7846 118.201 38.1502 118.106C38.5189 118.008 38.8814 117.959 39.2377 117.959C39.4651 117.959 39.7262 117.986 40.0211 118.042C40.3191 118.094 40.6063 118.203 40.8828 118.369C41.1624 118.535 41.3943 118.785 41.5787 119.12C41.763 119.455 41.8552 119.903 41.8552 120.465V125.129H40.7676V124.17H40.7123C40.6386 124.324 40.5157 124.488 40.3437 124.663C40.1716 124.839 39.9428 124.988 39.6571 125.11C39.3714 125.233 39.0227 125.295 38.611 125.295ZM38.7769 124.318C39.207 124.318 39.5695 124.233 39.8644 124.064C40.1624 123.895 40.3867 123.677 40.5372 123.41C40.6908 123.143 40.7676 122.862 40.7676 122.567V121.571C40.7216 121.627 40.6202 121.677 40.4635 121.723C40.3099 121.766 40.1317 121.805 39.9289 121.839C39.7293 121.869 39.5342 121.897 39.3437 121.922C39.1563 121.943 39.0042 121.962 38.8875 121.977C38.6049 122.014 38.3407 122.074 38.0949 122.157C37.8522 122.237 37.6556 122.358 37.5051 122.521C37.3576 122.68 37.2839 122.899 37.2839 123.175C37.2839 123.553 37.4237 123.839 37.7032 124.032C37.9858 124.223 38.3437 124.318 38.7769 124.318ZM43.8401 125.129V118.051H44.8908V119.12H44.9645C45.0935 118.77 45.327 118.485 45.6649 118.267C46.0029 118.049 46.3838 117.94 46.8078 117.94C46.8876 117.94 46.9875 117.942 47.1073 117.945C47.2271 117.948 47.3177 117.952 47.3792 117.959V119.065C47.3423 119.055 47.2578 119.042 47.1257 119.023C46.9967 119.002 46.86 118.991 46.7156 118.991C46.3715 118.991 46.0643 119.063 45.794 119.207C45.5267 119.349 45.3147 119.545 45.158 119.797C45.0044 120.046 44.9276 120.33 44.9276 120.65V125.129H43.8401ZM50.7512 125.295C50.3027 125.295 49.8956 125.21 49.53 125.041C49.1645 124.869 48.8741 124.622 48.6591 124.299C48.444 123.974 48.3365 123.581 48.3365 123.12C48.3365 122.714 48.4164 122.386 48.5761 122.134C48.7359 121.879 48.9494 121.679 49.2167 121.535C49.484 121.39 49.7789 121.283 50.1014 121.212C50.4271 121.138 50.7543 121.08 51.083 121.037C51.5131 120.982 51.8618 120.94 52.129 120.912C52.3994 120.882 52.596 120.831 52.7189 120.76C52.8448 120.69 52.9078 120.567 52.9078 120.392V120.355C52.9078 119.9 52.7834 119.547 52.5345 119.295C52.2888 119.043 51.9155 118.917 51.4148 118.917C50.8956 118.917 50.4885 119.031 50.1936 119.258C49.8987 119.485 49.6913 119.728 49.5715 119.986L48.5393 119.618C48.7236 119.187 48.9694 118.853 49.2766 118.613C49.5869 118.37 49.9248 118.201 50.2904 118.106C50.659 118.008 51.0215 117.959 51.3779 117.959C51.6052 117.959 51.8664 117.986 52.1613 118.042C52.4593 118.094 52.7465 118.203 53.023 118.369C53.3026 118.535 53.5345 118.785 53.7188 119.12C53.9032 119.455 53.9953 119.903 53.9953 120.465V125.129H52.9078V124.17H52.8525C52.7788 124.324 52.6559 124.488 52.4839 124.663C52.3118 124.839 52.0829 124.988 51.7972 125.11C51.5115 125.233 51.1629 125.295 50.7512 125.295ZM50.9171 124.318C51.3472 124.318 51.7097 124.233 52.0046 124.064C52.3026 123.895 52.5269 123.677 52.6774 123.41C52.831 123.143 52.9078 122.862 52.9078 122.567V121.571C52.8617 121.627 52.7603 121.677 52.6037 121.723C52.4501 121.766 52.2719 121.805 52.0691 121.839C51.8694 121.869 51.6744 121.897 51.4839 121.922C51.2965 121.943 51.1444 121.962 51.0277 121.977C50.745 122.014 50.4808 122.074 50.2351 122.157C49.9924 122.237 49.7958 122.358 49.6452 122.521C49.4978 122.68 49.424 122.899 49.424 123.175C49.424 123.553 49.5638 123.839 49.8434 124.032C50.126 124.223 50.4839 124.318 50.9171 124.318ZM55.9803 125.129V118.051H57.031V119.157H57.1231C57.2706 118.779 57.5087 118.485 57.8374 118.277C58.1661 118.065 58.5609 117.959 59.0217 117.959C59.4886 117.959 59.8773 118.065 60.1875 118.277C60.5009 118.485 60.7451 118.779 60.9202 119.157H60.994C61.1752 118.791 61.4471 118.501 61.8096 118.286C62.1721 118.068 62.6068 117.959 63.1137 117.959C63.7466 117.959 64.2642 118.157 64.6667 118.553C65.0691 118.946 65.2703 119.559 65.2703 120.392V125.129H64.1828V120.392C64.1828 119.869 64.0399 119.496 63.7542 119.272C63.4685 119.048 63.1321 118.936 62.7451 118.936C62.2474 118.936 61.8618 119.086 61.5884 119.387C61.315 119.685 61.1783 120.063 61.1783 120.521V125.129H60.0723V120.281C60.0723 119.879 59.9418 119.555 59.6806 119.309C59.4195 119.06 59.0831 118.936 58.6715 118.936C58.3888 118.936 58.1246 119.011 57.8789 119.161C57.6362 119.312 57.4395 119.521 57.289 119.788C57.1415 120.052 57.0678 120.358 57.0678 120.705V125.129H55.9803Z" fill="#696969"/>
<rect x="18.5391" y="133.836" width="342.025" height="50.9531" rx="11.1228" fill="#F9FAFB"/>
<rect x="18.5391" y="133.836" width="342.025" height="50.9531" rx="11.1228" stroke="#EBEFF4" stroke-width="1.85379"/>
<path d="M39.042 157.47H37.5726C37.4857 157.048 37.3336 156.677 37.1164 156.357C36.9031 156.037 36.6424 155.768 36.3343 155.551C36.0302 155.33 35.6925 155.164 35.3212 155.053C34.9499 154.943 34.5628 154.887 34.1599 154.887C33.4253 154.887 32.7597 155.073 32.1633 155.444C31.5708 155.815 31.0988 156.362 30.7473 157.085C30.3997 157.808 30.2259 158.695 30.2259 159.746C30.2259 160.796 30.3997 161.683 30.7473 162.406C31.0988 163.129 31.5708 163.676 32.1633 164.047C32.7597 164.418 33.4253 164.604 34.1599 164.604C34.5628 164.604 34.9499 164.549 35.3212 164.438C35.6925 164.327 36.0302 164.163 36.3343 163.946C36.6424 163.725 36.9031 163.454 37.1164 163.135C37.3336 162.811 37.4857 162.439 37.5726 162.021H39.042C38.9314 162.641 38.7299 163.196 38.4376 163.686C38.1453 164.175 37.782 164.592 37.3475 164.936C36.913 165.275 36.4252 165.534 35.8841 165.712C35.3469 165.89 34.7722 165.978 34.1599 165.978C33.1251 165.978 32.2048 165.726 31.399 165.22C30.5932 164.714 29.9593 163.996 29.4972 163.063C29.035 162.131 28.804 161.025 28.804 159.746C28.804 158.466 29.035 157.36 29.4972 156.428C29.9593 155.496 30.5932 154.777 31.399 154.271C32.2048 153.765 33.1251 153.513 34.1599 153.513C34.7722 153.513 35.3469 153.602 35.8841 153.779C36.4252 153.957 36.913 154.218 37.3475 154.561C37.782 154.901 38.1453 155.316 38.4376 155.806C38.7299 156.291 38.9314 156.846 39.042 157.47ZM42.625 160.338V165.812H41.2267V153.679H42.625V158.134H42.7434C42.9567 157.664 43.2767 157.291 43.7033 157.014C44.1338 156.734 44.7065 156.594 45.4214 156.594C46.0416 156.594 46.5847 156.718 47.0508 156.967C47.5168 157.212 47.8782 157.589 48.135 158.098C48.3957 158.604 48.526 159.248 48.526 160.03V165.812H47.1278V160.125C47.1278 159.402 46.9402 158.843 46.5649 158.448C46.1936 158.049 45.6782 157.85 45.0186 157.85C44.5604 157.85 44.1496 157.946 43.7862 158.14C43.4268 158.333 43.1424 158.616 42.933 158.987C42.7276 159.358 42.625 159.809 42.625 160.338ZM53.762 166.026C53.1854 166.026 52.662 165.917 52.192 165.7C51.7219 165.479 51.3487 165.161 51.0722 164.746C50.7957 164.327 50.6575 163.822 50.6575 163.229C50.6575 162.708 50.7601 162.285 50.9655 161.961C51.1709 161.634 51.4454 161.377 51.7891 161.191C52.1327 161.006 52.5119 160.867 52.9266 160.776C53.3453 160.682 53.766 160.607 54.1886 160.551C54.7416 160.48 55.1899 160.427 55.5335 160.391C55.8811 160.352 56.1339 160.287 56.2919 160.196C56.4538 160.105 56.5348 159.947 56.5348 159.722V159.674C56.5348 159.09 56.3749 158.636 56.0549 158.312C55.7389 157.988 55.259 157.826 54.6152 157.826C53.9477 157.826 53.4243 157.972 53.0451 158.264C52.6659 158.557 52.3993 158.869 52.2453 159.2L50.9181 158.726C51.1551 158.174 51.4711 157.743 51.8661 157.435C52.265 157.123 52.6995 156.906 53.1696 156.783C53.6435 156.657 54.1096 156.594 54.5678 156.594C54.8601 156.594 55.1958 156.629 55.575 156.7C55.9581 156.767 56.3275 156.908 56.6829 157.121C57.0424 157.334 57.3406 157.656 57.5776 158.087C57.8146 158.517 57.9331 159.094 57.9331 159.817V165.812H56.5348V164.58H56.4637C56.3689 164.778 56.2109 164.989 55.9897 165.214C55.7686 165.439 55.4743 165.631 55.107 165.789C54.7396 165.947 54.2913 166.026 53.762 166.026ZM53.9753 164.77C54.5283 164.77 54.9944 164.661 55.3736 164.444C55.7567 164.227 56.045 163.946 56.2386 163.603C56.4361 163.259 56.5348 162.898 56.5348 162.518V161.239C56.4756 161.31 56.3452 161.375 56.1438 161.434C55.9463 161.489 55.7172 161.539 55.4565 161.582C55.1998 161.622 54.949 161.657 54.7041 161.689C54.4631 161.717 54.2676 161.74 54.1175 161.76C53.7541 161.807 53.4144 161.884 53.0985 161.991C52.7864 162.094 52.5336 162.25 52.3401 162.459C52.1505 162.664 52.0557 162.945 52.0557 163.3C52.0557 163.786 52.2354 164.154 52.5949 164.402C52.9582 164.647 53.4184 164.77 53.9753 164.77ZM61.8834 160.338V165.812H60.4852V156.712H61.836V158.134H61.9545C62.1678 157.672 62.4917 157.301 62.9262 157.02C63.3606 156.736 63.9215 156.594 64.6088 156.594C65.225 156.594 65.7641 156.72 66.2263 156.973C66.6884 157.222 67.0478 157.601 67.3046 158.11C67.5613 158.616 67.6897 159.256 67.6897 160.03V165.812H66.2914V160.125C66.2914 159.41 66.1058 158.853 65.7345 158.454C65.3632 158.051 64.8537 157.85 64.2059 157.85C63.7596 157.85 63.3606 157.946 63.0091 158.14C62.6615 158.333 62.387 158.616 62.1856 158.987C61.9841 159.358 61.8834 159.809 61.8834 160.338ZM73.9181 169.415C73.2427 169.415 72.662 169.328 72.1762 169.154C71.6904 168.984 71.2855 168.759 70.9616 168.479C70.6417 168.202 70.3869 167.906 70.1973 167.59L71.3112 166.808C71.4376 166.974 71.5976 167.163 71.7911 167.377C71.9846 167.594 72.2493 167.781 72.585 167.939C72.9247 168.101 73.3691 168.182 73.9181 168.182C74.6528 168.182 75.2591 168.005 75.737 167.649C76.2149 167.294 76.4539 166.737 76.4539 165.978V164.13H76.3354C76.2327 164.296 76.0866 164.501 75.897 164.746C75.7113 164.987 75.4427 165.202 75.0912 165.392C74.7436 165.577 74.2736 165.67 73.6811 165.67C72.9464 165.67 72.2868 165.497 71.7022 165.149C71.1216 164.801 70.6614 164.296 70.3218 163.632C69.986 162.969 69.8181 162.163 69.8181 161.215C69.8181 160.283 69.9821 159.471 70.3099 158.78C70.6377 158.085 71.0939 157.547 71.6785 157.168C72.2631 156.785 72.9385 156.594 73.7048 156.594C74.2973 156.594 74.7673 156.692 75.1149 156.89C75.4664 157.083 75.735 157.305 75.9207 157.553C76.1102 157.798 76.2564 158 76.3591 158.158H76.5013V156.712H77.8521V166.073C77.8521 166.855 77.6744 167.491 77.3189 167.981C76.9674 168.475 76.4934 168.836 75.897 169.065C75.3045 169.298 74.6449 169.415 73.9181 169.415ZM73.8707 164.414C74.4316 164.414 74.9055 164.286 75.2926 164.029C75.6797 163.772 75.974 163.403 76.1754 162.921C76.3769 162.439 76.4776 161.863 76.4776 161.191C76.4776 160.536 76.3788 159.957 76.1813 159.455C75.9839 158.954 75.6916 158.561 75.3045 158.276C74.9174 157.992 74.4395 157.85 73.8707 157.85C73.2782 157.85 72.7845 158 72.3895 158.3C71.9985 158.6 71.7042 159.003 71.5067 159.509C71.3132 160.014 71.2164 160.575 71.2164 161.191C71.2164 161.823 71.3151 162.382 71.5126 162.868C71.7141 163.35 72.0103 163.729 72.4013 164.005C72.7963 164.278 73.2861 164.414 73.8707 164.414ZM84.2272 166.002C83.3503 166.002 82.5939 165.809 81.958 165.421C81.326 165.03 80.8382 164.485 80.4946 163.786C80.1549 163.083 79.985 162.266 79.985 161.333C79.985 160.401 80.1549 159.58 80.4946 158.869C80.8382 158.154 81.3161 157.597 81.9284 157.198C82.5445 156.795 83.2634 156.594 84.085 156.594C84.559 156.594 85.027 156.673 85.4892 156.831C85.9513 156.989 86.3719 157.245 86.7511 157.601C87.1303 157.952 87.4325 158.418 87.6576 158.999C87.8828 159.58 87.9953 160.295 87.9953 161.144V161.736H80.9804V160.528H86.5734C86.5734 160.014 86.4707 159.556 86.2653 159.153C86.0639 158.75 85.7755 158.432 85.4003 158.199C85.029 157.966 84.5906 157.85 84.085 157.85C83.5281 157.85 83.0462 157.988 82.6393 158.264C82.2365 158.537 81.9264 158.892 81.7092 159.331C81.4919 159.769 81.3833 160.239 81.3833 160.741V161.547C81.3833 162.234 81.5018 162.817 81.7388 163.294C81.9797 163.768 82.3135 164.13 82.7401 164.379C83.1666 164.624 83.6624 164.746 84.2272 164.746C84.5945 164.746 84.9263 164.695 85.2225 164.592C85.5227 164.485 85.7814 164.327 85.9987 164.118C86.2159 163.905 86.3838 163.64 86.5023 163.324L87.8531 163.703C87.7109 164.161 87.472 164.564 87.1362 164.912C86.8005 165.256 86.3858 165.524 85.892 165.718C85.3983 165.907 84.8434 166.002 84.2272 166.002ZM98.7725 156.712V157.897H94.0564V156.712H98.7725ZM95.4309 154.532H96.8292V163.206C96.8292 163.601 96.8864 163.897 97.001 164.094C97.1195 164.288 97.2696 164.418 97.4513 164.485C97.6369 164.549 97.8324 164.58 98.0378 164.58C98.1919 164.58 98.3182 164.572 98.417 164.556C98.5157 164.537 98.5947 164.521 98.654 164.509L98.9384 165.765C98.8436 165.801 98.7113 165.836 98.5414 165.872C98.3716 165.911 98.1563 165.931 97.8956 165.931C97.5006 165.931 97.1135 165.846 96.7344 165.676C96.3591 165.506 96.0471 165.248 95.7982 164.9C95.5534 164.552 95.4309 164.114 95.4309 163.585V154.532ZM102.47 160.338V165.812H101.071V153.679H102.47V158.134H102.588C102.801 157.664 103.121 157.291 103.548 157.014C103.978 156.734 104.551 156.594 105.266 156.594C105.886 156.594 106.429 156.718 106.895 156.967C107.361 157.212 107.723 157.589 107.98 158.098C108.24 158.604 108.371 159.248 108.371 160.03V165.812H106.972V160.125C106.972 159.402 106.785 158.843 106.41 158.448C106.038 158.049 105.523 157.85 104.863 157.85C104.405 157.85 103.994 157.946 103.631 158.14C103.271 158.333 102.987 158.616 102.778 158.987C102.572 159.358 102.47 159.809 102.47 160.338ZM114.744 166.002C113.867 166.002 113.111 165.809 112.475 165.421C111.843 165.03 111.355 164.485 111.012 163.786C110.672 163.083 110.502 162.266 110.502 161.333C110.502 160.401 110.672 159.58 111.012 158.869C111.355 158.154 111.833 157.597 112.445 157.198C113.062 156.795 113.78 156.594 114.602 156.594C115.076 156.594 115.544 156.673 116.006 156.831C116.468 156.989 116.889 157.245 117.268 157.601C117.647 157.952 117.949 158.418 118.175 158.999C118.4 159.58 118.512 160.295 118.512 161.144V161.736H111.497V160.528H117.09C117.09 160.014 116.988 159.556 116.782 159.153C116.581 158.75 116.293 158.432 115.917 158.199C115.546 157.966 115.108 157.85 114.602 157.85C114.045 157.85 113.563 157.988 113.156 158.264C112.753 158.537 112.443 158.892 112.226 159.331C112.009 159.769 111.9 160.239 111.9 160.741V161.547C111.9 162.234 112.019 162.817 112.256 163.294C112.497 163.768 112.83 164.13 113.257 164.379C113.684 164.624 114.179 164.746 114.744 164.746C115.111 164.746 115.443 164.695 115.74 164.592C116.04 164.485 116.298 164.327 116.516 164.118C116.733 163.905 116.901 163.64 117.019 163.324L118.37 163.703C118.228 164.161 117.989 164.564 117.653 164.912C117.317 165.256 116.903 165.524 116.409 165.718C115.915 165.907 115.36 166.002 114.744 166.002ZM135.285 157.47H133.816C133.729 157.048 133.577 156.677 133.36 156.357C133.146 156.037 132.886 155.768 132.578 155.551C132.274 155.33 131.936 155.164 131.565 155.053C131.193 154.943 130.806 154.887 130.403 154.887C129.669 154.887 129.003 155.073 128.407 155.444C127.814 155.815 127.342 156.362 126.991 157.085C126.643 157.808 126.469 158.695 126.469 159.746C126.469 160.796 126.643 161.683 126.991 162.406C127.342 163.129 127.814 163.676 128.407 164.047C129.003 164.418 129.669 164.604 130.403 164.604C130.806 164.604 131.193 164.549 131.565 164.438C131.936 164.327 132.274 164.163 132.578 163.946C132.886 163.725 133.146 163.454 133.36 163.135C133.577 162.811 133.729 162.439 133.816 162.021H135.285C135.175 162.641 134.973 163.196 134.681 163.686C134.389 164.175 134.025 164.592 133.591 164.936C133.156 165.275 132.669 165.534 132.127 165.712C131.59 165.89 131.016 165.978 130.403 165.978C129.368 165.978 128.448 165.726 127.642 165.22C126.837 164.714 126.203 163.996 125.741 163.063C125.278 162.131 125.047 161.025 125.047 159.746C125.047 158.466 125.278 157.36 125.741 156.428C126.203 155.496 126.837 154.777 127.642 154.271C128.448 153.765 129.368 153.513 130.403 153.513C131.016 153.513 131.59 153.602 132.127 153.779C132.669 153.957 133.156 154.218 133.591 154.561C134.025 154.901 134.389 155.316 134.681 155.806C134.973 156.291 135.175 156.846 135.285 157.47ZM136.996 154.982V153.679H146.097V154.982H142.281V165.812H140.812V154.982H136.996ZM147.444 165.812H145.904L150.359 153.679H151.876L156.332 165.812H154.791L151.165 155.598H151.07L147.444 165.812ZM148.013 161.073H154.222V162.376H148.013V161.073ZM164.123 153.679V165.812H162.724V153.679H164.123ZM169.362 166.026C168.785 166.026 168.262 165.917 167.792 165.7C167.322 165.479 166.948 165.161 166.672 164.746C166.395 164.327 166.257 163.822 166.257 163.229C166.257 162.708 166.36 162.285 166.565 161.961C166.771 161.634 167.045 161.377 167.389 161.191C167.732 161.006 168.112 160.867 168.526 160.776C168.945 160.682 169.366 160.607 169.788 160.551C170.341 160.48 170.789 160.427 171.133 160.391C171.481 160.352 171.734 160.287 171.892 160.196C172.053 160.105 172.134 159.947 172.134 159.722V159.674C172.134 159.09 171.974 158.636 171.655 158.312C171.339 157.988 170.859 157.826 170.215 157.826C169.547 157.826 169.024 157.972 168.645 158.264C168.266 158.557 167.999 158.869 167.845 159.2L166.518 158.726C166.755 158.174 167.071 157.743 167.466 157.435C167.865 157.123 168.299 156.906 168.769 156.783C169.243 156.657 169.709 156.594 170.167 156.594C170.46 156.594 170.795 156.629 171.175 156.7C171.558 156.767 171.927 156.908 172.283 157.121C172.642 157.334 172.94 157.656 173.177 158.087C173.414 158.517 173.533 159.094 173.533 159.817V165.812H172.134V164.58H172.063C171.969 164.778 171.811 164.989 171.589 165.214C171.368 165.439 171.074 165.631 170.707 165.789C170.339 165.947 169.891 166.026 169.362 166.026ZM169.575 164.77C170.128 164.77 170.594 164.661 170.973 164.444C171.356 164.227 171.645 163.946 171.838 163.603C172.036 163.259 172.134 162.898 172.134 162.518V161.239C172.075 161.31 171.945 161.375 171.743 161.434C171.546 161.489 171.317 161.539 171.056 161.582C170.799 161.622 170.549 161.657 170.304 161.689C170.063 161.717 169.867 161.74 169.717 161.76C169.354 161.807 169.014 161.884 168.698 161.991C168.386 162.094 168.133 162.25 167.94 162.459C167.75 162.664 167.655 162.945 167.655 163.3C167.655 163.786 167.835 164.154 168.194 164.402C168.558 164.647 169.018 164.77 169.575 164.77ZM176.274 165.812V153.679H177.673V158.158H177.791C177.894 158 178.036 157.798 178.218 157.553C178.403 157.305 178.668 157.083 179.012 156.89C179.359 156.692 179.829 156.594 180.422 156.594C181.188 156.594 181.863 156.785 182.448 157.168C183.033 157.551 183.489 158.095 183.817 158.798C184.144 159.501 184.308 160.33 184.308 161.286C184.308 162.25 184.144 163.085 183.817 163.792C183.489 164.495 183.035 165.04 182.454 165.427C181.873 165.811 181.204 166.002 180.445 166.002C179.861 166.002 179.393 165.905 179.041 165.712C178.69 165.514 178.419 165.291 178.23 165.042C178.04 164.789 177.894 164.58 177.791 164.414H177.625V165.812H176.274ZM177.649 161.262C177.649 161.95 177.75 162.556 177.951 163.081C178.153 163.603 178.447 164.011 178.834 164.308C179.221 164.6 179.695 164.746 180.256 164.746C180.84 164.746 181.328 164.592 181.719 164.284C182.114 163.972 182.41 163.553 182.608 163.028C182.809 162.499 182.91 161.91 182.91 161.262C182.91 160.622 182.811 160.046 182.614 159.532C182.42 159.015 182.126 158.606 181.731 158.306C181.34 158.002 180.848 157.85 180.256 157.85C179.687 157.85 179.209 157.994 178.822 158.282C178.435 158.567 178.143 158.965 177.945 159.479C177.748 159.988 177.649 160.583 177.649 161.262ZM190.263 166.002C189.386 166.002 188.629 165.809 187.994 165.421C187.362 165.03 186.874 164.485 186.53 163.786C186.19 163.083 186.021 162.266 186.021 161.333C186.021 160.401 186.19 159.58 186.53 158.869C186.874 158.154 187.352 157.597 187.964 157.198C188.58 156.795 189.299 156.594 190.121 156.594C190.595 156.594 191.063 156.673 191.525 156.831C191.987 156.989 192.407 157.245 192.787 157.601C193.166 157.952 193.468 158.418 193.693 158.999C193.918 159.58 194.031 160.295 194.031 161.144V161.736H187.016V160.528H192.609C192.609 160.014 192.506 159.556 192.301 159.153C192.099 158.75 191.811 158.432 191.436 158.199C191.065 157.966 190.626 157.85 190.121 157.85C189.564 157.85 189.082 157.988 188.675 158.264C188.272 158.537 187.962 158.892 187.745 159.331C187.527 159.769 187.419 160.239 187.419 160.741V161.547C187.419 162.234 187.537 162.817 187.774 163.294C188.015 163.768 188.349 164.13 188.776 164.379C189.202 164.624 189.698 164.746 190.263 164.746C190.63 164.746 190.962 164.695 191.258 164.592C191.558 164.485 191.817 164.327 192.034 164.118C192.251 163.905 192.419 163.64 192.538 163.324L193.889 163.703C193.746 164.161 193.508 164.564 193.172 164.912C192.836 165.256 192.421 165.524 191.928 165.718C191.434 165.907 190.879 166.002 190.263 166.002ZM197.556 153.679V165.812H196.158V153.679H197.556ZM208.507 166.002C207.685 166.002 206.964 165.807 206.344 165.416C205.728 165.025 205.246 164.477 204.898 163.774C204.555 163.071 204.383 162.25 204.383 161.31C204.383 160.362 204.555 159.534 204.898 158.827C205.246 158.12 205.728 157.571 206.344 157.18C206.964 156.789 207.685 156.594 208.507 156.594C209.328 156.594 210.047 156.789 210.663 157.18C211.283 157.571 211.765 158.12 212.109 158.827C212.456 159.534 212.63 160.362 212.63 161.31C212.63 162.25 212.456 163.071 212.109 163.774C211.765 164.477 211.283 165.025 210.663 165.416C210.047 165.807 209.328 166.002 208.507 166.002ZM208.507 164.746C209.131 164.746 209.644 164.586 210.047 164.266C210.45 163.946 210.748 163.526 210.942 163.004C211.135 162.483 211.232 161.918 211.232 161.31C211.232 160.701 211.135 160.135 210.942 159.609C210.748 159.084 210.45 158.659 210.047 158.335C209.644 158.012 209.131 157.85 208.507 157.85C207.882 157.85 207.369 158.012 206.966 158.335C206.563 158.659 206.265 159.084 206.071 159.609C205.878 160.135 205.781 160.701 205.781 161.31C205.781 161.918 205.878 162.483 206.071 163.004C206.265 163.526 206.563 163.946 206.966 164.266C207.369 164.586 207.882 164.746 208.507 164.746ZM218.817 156.712V157.897H213.911V156.712H218.817ZM215.381 165.812V155.456C215.381 154.935 215.503 154.5 215.748 154.153C215.993 153.805 216.311 153.544 216.702 153.37C217.093 153.197 217.506 153.11 217.94 153.11C218.284 153.11 218.564 153.137 218.782 153.193C218.999 153.248 219.161 153.299 219.267 153.347L218.865 154.555C218.793 154.532 218.695 154.502 218.568 154.467C218.446 154.431 218.284 154.413 218.082 154.413C217.62 154.413 217.287 154.53 217.081 154.763C216.88 154.996 216.779 155.338 216.779 155.788V165.812H215.381ZM229.427 156.712V157.897H224.711V156.712H229.427ZM226.085 154.532H227.484V163.206C227.484 163.601 227.541 163.897 227.655 164.094C227.774 164.288 227.924 164.418 228.106 164.485C228.291 164.549 228.487 164.58 228.692 164.58C228.846 164.58 228.973 164.572 229.071 164.556C229.17 164.537 229.249 164.521 229.308 164.509L229.593 165.765C229.498 165.801 229.366 165.836 229.196 165.872C229.026 165.911 228.811 165.931 228.55 165.931C228.155 165.931 227.768 165.846 227.389 165.676C227.014 165.506 226.702 165.248 226.453 164.9C226.208 164.552 226.085 164.114 226.085 163.585V154.532ZM233.124 160.338V165.812H231.726V153.679H233.124V158.134H233.242C233.456 157.664 233.776 157.291 234.202 157.014C234.633 156.734 235.206 156.594 235.92 156.594C236.541 156.594 237.084 156.718 237.55 156.967C238.016 157.212 238.377 157.589 238.634 158.098C238.895 158.604 239.025 159.248 239.025 160.03V165.812H237.627V160.125C237.627 159.402 237.439 158.843 237.064 158.448C236.693 158.049 236.177 157.85 235.518 157.85C235.059 157.85 234.649 157.946 234.285 158.14C233.926 158.333 233.641 158.616 233.432 158.987C233.227 159.358 233.124 159.809 233.124 160.338ZM245.399 166.002C244.522 166.002 243.765 165.809 243.129 165.421C242.497 165.03 242.01 164.485 241.666 163.786C241.326 163.083 241.156 162.266 241.156 161.333C241.156 160.401 241.326 159.58 241.666 158.869C242.01 158.154 242.488 157.597 243.1 157.198C243.716 156.795 244.435 156.594 245.256 156.594C245.73 156.594 246.198 156.673 246.661 156.831C247.123 156.989 247.543 157.245 247.923 157.601C248.302 157.952 248.604 158.418 248.829 158.999C249.054 159.58 249.167 160.295 249.167 161.144V161.736H242.152V160.528H247.745C247.745 160.014 247.642 159.556 247.437 159.153C247.235 158.75 246.947 158.432 246.572 158.199C246.2 157.966 245.762 157.85 245.256 157.85C244.699 157.85 244.218 157.988 243.811 158.264C243.408 158.537 243.098 158.892 242.881 159.331C242.663 159.769 242.555 160.239 242.555 160.741V161.547C242.555 162.234 242.673 162.817 242.91 163.294C243.151 163.768 243.485 164.13 243.911 164.379C244.338 164.624 244.834 164.746 245.399 164.746C245.766 164.746 246.098 164.695 246.394 164.592C246.694 164.485 246.953 164.327 247.17 164.118C247.387 163.905 247.555 163.64 247.674 163.324L249.025 163.703C248.882 164.161 248.643 164.564 248.308 164.912C247.972 165.256 247.557 165.524 247.063 165.718C246.57 165.907 246.015 166.002 245.399 166.002ZM256.176 165.812V153.679H257.574V158.158H257.692C257.795 158 257.937 157.798 258.119 157.553C258.305 157.305 258.569 157.083 258.913 156.89C259.261 156.692 259.731 156.594 260.323 156.594C261.089 156.594 261.765 156.785 262.349 157.168C262.934 157.551 263.39 158.095 263.718 158.798C264.046 159.501 264.21 160.33 264.21 161.286C264.21 162.25 264.046 163.085 263.718 163.792C263.39 164.495 262.936 165.04 262.355 165.427C261.775 165.811 261.105 166.002 260.347 166.002C259.762 166.002 259.294 165.905 258.943 165.712C258.591 165.514 258.32 165.291 258.131 165.042C257.941 164.789 257.795 164.58 257.692 164.414H257.527V165.812H256.176ZM257.55 161.262C257.55 161.95 257.651 162.556 257.852 163.081C258.054 163.603 258.348 164.011 258.735 164.308C259.122 164.6 259.596 164.746 260.157 164.746C260.742 164.746 261.23 164.592 261.621 164.284C262.016 163.972 262.312 163.553 262.509 163.028C262.711 162.499 262.811 161.91 262.811 161.262C262.811 160.622 262.713 160.046 262.515 159.532C262.322 159.015 262.027 158.606 261.632 158.306C261.241 158.002 260.75 157.85 260.157 157.85C259.588 157.85 259.11 157.994 258.723 158.282C258.336 158.567 258.044 158.965 257.847 159.479C257.649 159.988 257.55 160.583 257.55 161.262ZM272.084 162.092V156.712H273.482V165.812H272.084V164.272H271.989C271.776 164.734 271.444 165.127 270.994 165.451C270.543 165.771 269.975 165.931 269.287 165.931C268.718 165.931 268.213 165.807 267.771 165.558C267.328 165.305 266.981 164.926 266.728 164.42C266.475 163.911 266.349 163.269 266.349 162.495V156.712H267.747V162.4C267.747 163.063 267.932 163.593 268.304 163.988C268.679 164.383 269.157 164.58 269.738 164.58C270.085 164.58 270.439 164.491 270.798 164.314C271.161 164.136 271.466 163.863 271.71 163.496C271.959 163.129 272.084 162.661 272.084 162.092ZM280.001 156.712V157.897H275.285V156.712H280.001ZM276.659 154.532H278.057V163.206C278.057 163.601 278.115 163.897 278.229 164.094C278.348 164.288 278.498 164.418 278.679 164.485C278.865 164.549 279.061 164.58 279.266 164.58C279.42 164.58 279.546 164.572 279.645 164.556C279.744 164.537 279.823 164.521 279.882 164.509L280.167 165.765C280.072 165.801 279.939 165.836 279.77 165.872C279.6 165.911 279.385 165.931 279.124 165.931C278.729 165.931 278.342 165.846 277.963 165.676C277.587 165.506 277.275 165.248 277.026 164.9C276.782 164.552 276.659 164.114 276.659 163.585V154.532ZM286.062 156.712V157.897H281.346V156.712H286.062ZM282.72 154.532H284.118V163.206C284.118 163.601 284.176 163.897 284.29 164.094C284.409 164.288 284.559 164.418 284.741 164.485C284.926 164.549 285.122 164.58 285.327 164.58C285.481 164.58 285.608 164.572 285.706 164.556C285.805 164.537 285.884 164.521 285.943 164.509L286.228 165.765C286.133 165.801 286.001 165.836 285.831 165.872C285.661 165.911 285.446 165.931 285.185 165.931C284.79 165.931 284.403 165.846 284.024 165.676C283.648 165.506 283.336 165.248 283.088 164.9C282.843 164.552 282.72 164.114 282.72 163.585V154.532ZM291.764 166.002C290.943 166.002 290.222 165.807 289.602 165.416C288.986 165.025 288.504 164.477 288.156 163.774C287.813 163.071 287.641 162.25 287.641 161.31C287.641 160.362 287.813 159.534 288.156 158.827C288.504 158.12 288.986 157.571 289.602 157.18C290.222 156.789 290.943 156.594 291.764 156.594C292.586 156.594 293.305 156.789 293.921 157.18C294.541 157.571 295.023 158.12 295.367 158.827C295.714 159.534 295.888 160.362 295.888 161.31C295.888 162.25 295.714 163.071 295.367 163.774C295.023 164.477 294.541 165.025 293.921 165.416C293.305 165.807 292.586 166.002 291.764 166.002ZM291.764 164.746C292.388 164.746 292.902 164.586 293.305 164.266C293.708 163.946 294.006 163.526 294.199 163.004C294.393 162.483 294.49 161.918 294.49 161.31C294.49 160.701 294.393 160.135 294.199 159.609C294.006 159.084 293.708 158.659 293.305 158.335C292.902 158.012 292.388 157.85 291.764 157.85C291.14 157.85 290.627 158.012 290.224 158.335C289.821 158.659 289.523 159.084 289.329 159.609C289.136 160.135 289.039 160.701 289.039 161.31C289.039 161.918 289.136 162.483 289.329 163.004C289.523 163.526 289.821 163.946 290.224 164.266C290.627 164.586 291.14 164.746 291.764 164.746ZM299.421 160.338V165.812H298.022V156.712H299.373V158.134H299.492C299.705 157.672 300.029 157.301 300.463 157.02C300.898 156.736 301.459 156.594 302.146 156.594C302.762 156.594 303.301 156.72 303.763 156.973C304.226 157.222 304.585 157.601 304.842 158.11C305.099 158.616 305.227 159.256 305.227 160.03V165.812H303.829V160.125C303.829 159.41 303.643 158.853 303.272 158.454C302.9 158.051 302.391 157.85 301.743 157.85C301.297 157.85 300.898 157.946 300.546 158.14C300.199 158.333 299.924 158.616 299.723 158.987C299.521 159.358 299.421 159.809 299.421 160.338ZM309.607 162.4V162.329C309.615 161.574 309.694 160.974 309.844 160.528C309.994 160.081 310.207 159.72 310.484 159.443C310.76 159.167 311.092 158.912 311.479 158.679C311.712 158.537 311.921 158.369 312.107 158.175C312.293 157.978 312.439 157.751 312.545 157.494C312.656 157.237 312.711 156.953 312.711 156.641C312.711 156.254 312.621 155.918 312.439 155.634C312.257 155.349 312.014 155.13 311.71 154.976C311.406 154.822 311.068 154.745 310.697 154.745C310.373 154.745 310.061 154.812 309.761 154.946C309.461 155.081 309.21 155.292 309.008 155.58C308.807 155.869 308.69 156.246 308.659 156.712H307.166C307.197 156.041 307.371 155.466 307.687 154.988C308.007 154.51 308.428 154.145 308.949 153.892C309.474 153.639 310.057 153.513 310.697 153.513C311.392 153.513 311.996 153.651 312.51 153.927C313.027 154.204 313.426 154.583 313.707 155.065C313.991 155.547 314.133 156.096 314.133 156.712C314.133 157.147 314.066 157.54 313.932 157.891C313.802 158.243 313.612 158.557 313.363 158.833C313.118 159.11 312.822 159.355 312.474 159.568C312.127 159.785 311.848 160.014 311.639 160.255C311.43 160.492 311.278 160.774 311.183 161.102C311.088 161.43 311.037 161.839 311.029 162.329V162.4H309.607ZM310.365 165.907C310.073 165.907 309.822 165.803 309.613 165.593C309.403 165.384 309.299 165.133 309.299 164.841C309.299 164.549 309.403 164.298 309.613 164.088C309.822 163.879 310.073 163.774 310.365 163.774C310.657 163.774 310.908 163.879 311.118 164.088C311.327 164.298 311.432 164.549 311.432 164.841C311.432 165.034 311.382 165.212 311.283 165.374C311.189 165.536 311.06 165.666 310.898 165.765C310.74 165.86 310.563 165.907 310.365 165.907Z" fill="#181818"/>
<defs>
<filter id="filter0_i_3358_33240" x="11.1211" y="11.1211" width="22.2461" height="25.9537" filterUnits="userSpaceOnUse" color-interpolation-filters="sRGB">
<feFlood flood-opacity="0" result="BackgroundImageFix"/>
<feBlend mode="normal" in="SourceGraphic" in2="BackgroundImageFix" result="shape"/>
<feColorMatrix in="SourceAlpha" type="matrix" values="0 0 0 0 0 0 0 0 0 0 0 0 0 0 0 0 0 0 127 0" result="hardAlpha"/>
<feOffset dy="3.70759"/>
<feGaussianBlur stdDeviation="4.63448"/>
<feComposite in2="hardAlpha" operator="arithmetic" k2="-1" k3="1"/>
<feColorMatrix type="matrix" values="0 0 0 0 0 0 0 0 0 0 0 0 0 0 0 0 0 0 0.19 0"/>
<feBlend mode="normal" in2="shape" result="effect1_innerShadow_3358_33240"/>
</filter>
<radialGradient id="paint0_radial_3358_33240" cx="0" cy="0" r="1" gradientUnits="userSpaceOnUse" gradientTransform="translate(12.9766 10.6593) rotate(74.6785) scale(35.0785)">
<stop stop-color="#4749FF"/>
<stop offset="1" stop-color="#4749FF" stop-opacity="0.5"/>
</radialGradient>
<radialGradient id="paint1_radial_3358_33240" cx="0" cy="0" r="1" gradientUnits="userSpaceOnUse" gradientTransform="translate(20.3928 19.466) rotate(84.5597) scale(19.5529)">
<stop stop-color="#4749FF"/>
<stop offset="1" stop-color="#4749FF" stop-opacity="0.6"/>
</radialGradient>
<radialGradient id="paint2_radial_3358_33240" cx="0" cy="0" r="1" gradientUnits="userSpaceOnUse" gradientTransform="translate(20.8535 19.4632) rotate(84.2894) scale(13.9728)">
<stop stop-color="#4749FF"/>
<stop offset="1" stop-color="#4749FF" stop-opacity="0.85"/>
</radialGradient>
</defs>
</svg>
