<svg width="340" height="140" viewBox="0 0 340 140" fill="none" xmlns="http://www.w3.org/2000/svg">
<path d="M69.7471 105.94H55.3242L72.0146 0H86.4385L69.7471 105.94Z" fill="#3A3CFF"/>
<path d="M28.0126 105.941H13.5686V26.6684C13.5686 21.5887 14.5899 17.0463 16.6325 13.0411C18.7723 9.03599 21.8848 5.86118 25.97 3.51671C30.0552 1.17224 35.0644 0 40.9976 0C43.4293 0 45.715 0.244216 47.8549 0.732647C50.092 1.12339 52.1345 1.75835 53.9826 2.63753V16.4113C52.3291 15.3368 50.481 14.5553 48.4384 14.0668C46.4931 13.4807 44.4505 13.1877 42.3107 13.1877C37.9337 13.1877 34.4321 14.2622 31.806 16.4113C29.2771 18.4627 28.0126 21.8817 28.0126 26.6684V105.941ZM53.1072 46.7429H0V34.1414H53.1072V46.7429Z" fill="#3A3CFF"/>
<path d="M126.215 107.706C118.963 107.706 112.447 105.991 106.665 102.561C100.883 99.1312 96.2776 94.5745 92.8478 88.8908C89.418 83.1092 87.7031 76.7396 87.7031 69.782C87.7031 62.8244 89.418 56.5038 92.8478 50.8202C96.2776 45.1365 100.883 40.6288 106.665 37.297C112.447 33.8672 118.963 32.1523 126.215 32.1523C133.466 32.1523 139.983 33.8672 145.765 37.297C151.546 40.6288 156.103 45.1855 159.435 50.9672C162.766 56.6508 164.432 62.9224 164.432 69.782C164.432 76.7396 162.766 83.1092 159.435 88.8908C156.103 94.5745 151.497 99.1312 145.618 102.561C139.836 105.991 133.368 107.706 126.215 107.706ZM126.215 93.8885C130.722 93.8885 134.74 92.8106 138.268 90.6547C141.894 88.4988 144.736 85.608 146.793 81.9822C148.851 78.2585 149.88 74.2407 149.88 69.929C149.88 65.5193 148.851 61.5015 146.793 57.8757C144.736 54.25 141.894 51.3591 138.268 49.2033C134.74 46.9494 130.722 45.8225 126.215 45.8225C121.707 45.8225 117.64 46.9494 114.014 49.2033C110.487 51.3591 107.645 54.25 105.489 57.8757C103.333 61.5015 102.255 65.5193 102.255 69.929C102.255 74.2407 103.333 78.2585 105.489 81.9822C107.645 85.608 110.487 88.4988 114.014 90.6547C117.64 92.8106 121.707 93.8885 126.215 93.8885Z" fill="#3A3CFF"/>
<path d="M213.953 107.706C206.701 107.706 200.185 105.991 194.403 102.561C188.622 99.1312 184.016 94.5745 180.586 88.8908C177.156 83.1092 175.441 76.7396 175.441 69.782C175.441 62.8244 177.156 56.5038 180.586 50.8202C184.016 45.1365 188.622 40.6288 194.403 37.297C200.185 33.8672 206.701 32.1523 213.953 32.1523C221.205 32.1523 227.721 33.8672 233.503 37.297C239.284 40.6288 243.841 45.1855 247.173 50.9672C250.505 56.6508 252.171 62.9224 252.171 69.782C252.171 76.7396 250.505 83.1092 247.173 88.8908C243.841 94.5745 239.235 99.1312 233.356 102.561C227.574 105.991 221.107 107.706 213.953 107.706ZM213.953 93.8885C218.461 93.8885 222.478 92.8106 226.006 90.6547C229.632 88.4988 232.474 85.608 234.532 81.9822C236.59 78.2585 237.619 74.2407 237.619 69.929C237.619 65.5193 236.59 61.5015 234.532 57.8757C232.474 54.25 229.632 51.3591 226.006 49.2033C222.478 46.9494 218.461 45.8225 213.953 45.8225C209.445 45.8225 205.379 46.9494 201.753 49.2033C198.225 51.3591 195.383 54.25 193.227 57.8757C191.071 61.5015 189.993 65.5193 189.993 69.929C189.993 74.2407 191.071 78.2585 193.227 81.9822C195.383 85.608 198.225 88.4988 201.753 90.6547C205.379 92.8106 209.445 93.8885 213.953 93.8885Z" fill="#3A3CFF"/>
<path d="M277.724 139.015H263.172V69.782C263.172 62.6284 264.838 56.2098 268.17 50.5262C271.599 44.8426 276.205 40.3838 281.987 37.15C287.768 33.8182 294.285 32.1523 301.536 32.1523C308.788 32.1523 315.305 33.8672 321.086 37.297C326.868 40.6288 331.425 45.1855 334.756 50.9672C338.088 56.6508 339.754 62.9224 339.754 69.782C339.754 77.0335 338.137 83.5501 334.903 89.3318C331.67 95.0154 327.211 99.5231 321.527 102.855C315.942 106.089 309.474 107.706 302.124 107.706C296.343 107.706 291.002 106.334 286.102 103.59C281.301 100.846 277.43 97.2693 274.49 92.8596C271.648 88.3518 270.227 83.4521 270.227 78.1605L277.724 81.9822V139.015ZM301.536 94.0355C306.044 94.0355 310.062 92.9576 313.59 90.8017C317.215 88.5478 320.057 85.608 322.115 81.9822C324.173 78.2585 325.202 74.2407 325.202 69.929C325.202 65.5193 324.173 61.5015 322.115 57.8757C320.057 54.25 317.215 51.3591 313.59 49.2033C310.062 47.0474 306.044 45.9695 301.536 45.9695C297.029 45.9695 292.962 47.0474 289.336 49.2033C285.808 51.3591 282.967 54.25 280.811 57.8757C278.753 61.5015 277.724 65.5193 277.724 69.929C277.724 74.2407 278.753 78.2585 280.811 81.9822C282.967 85.608 285.808 88.5478 289.336 90.8017C292.962 92.9576 297.029 94.0355 301.536 94.0355Z" fill="#3A3CFF"/>
</svg>
