<svg width="202" height="83" viewBox="0 0 202 83" fill="none" xmlns="http://www.w3.org/2000/svg">
<g clip-path="url(#clip0_3358_33366)">
<path d="M40.7904 47.9639L34.5447 41.7182C32.1742 39.3477 28.938 39.4714 27.3508 42.0068L23.8672 47.5104L34.9982 58.6414L40.5018 55.1578C42.8723 53.6531 43.0166 50.1901 40.7904 47.9639Z" fill="#FF725C" stroke="#C31B01" stroke-width="3.29806" stroke-linecap="round" stroke-linejoin="round"/>
<path d="M23.8733 47.5111L15.7724 47.0164C11.2582 46.7484 9.67099 48.1295 9.17628 52.4376L7.15621 69.5875C6.72334 73.1948 9.34118 75.792 12.9278 75.3591L30.0778 73.3391C34.3859 72.8237 35.9524 71.2572 35.499 66.7429L35.0249 58.6421" fill="#FF725C"/>
<path d="M23.8733 47.5111L15.7724 47.0164C11.2582 46.7484 9.67099 48.1295 9.17628 52.4376L7.15621 69.5875C6.72334 73.1948 9.34118 75.792 12.9278 75.3591L30.0778 73.3391C34.3859 72.8237 35.9524 71.2572 35.499 66.7429L35.0249 58.6421" stroke="#C31B01" stroke-width="3.29806" stroke-linecap="round" stroke-linejoin="round"/>
<path d="M9.49609 73.0124L15.7418 66.7461" stroke="white" stroke-width="3.29806" stroke-linecap="round" stroke-linejoin="round"/>
</g>
<rect x="51.6663" y="1.09986" width="149.186" height="53.1858" rx="18.689" fill="#FF725C"/>
<rect x="51.6663" y="1.09986" width="149.186" height="53.1858" rx="18.689" stroke="#C21B01" stroke-width="2.19871"/>
<path d="M74.3141 26.1264L72.1982 26.5012C72.1097 26.2305 71.9691 25.9729 71.7765 25.7282C71.5892 25.4836 71.3341 25.2832 71.0114 25.127C70.6886 24.9708 70.2852 24.8928 69.8011 24.8928C69.1401 24.8928 68.5883 25.0411 68.1459 25.3378C67.7034 25.6293 67.4822 26.0067 67.4822 26.47C67.4822 26.8708 67.6305 27.1935 67.9272 27.4381C68.2239 27.6828 68.7028 27.8832 69.3639 28.0394L71.269 28.4766C72.3725 28.7317 73.195 29.1247 73.7363 29.6556C74.2777 30.1865 74.5484 30.8762 74.5484 31.7247C74.5484 32.443 74.3401 33.0833 73.9237 33.6454C73.5125 34.2024 72.9373 34.6396 72.1982 34.9572C71.4642 35.2747 70.6132 35.4335 69.645 35.4335C68.302 35.4335 67.2063 35.1472 66.3578 34.5746C65.5094 33.9968 64.9889 33.177 64.7963 32.1151L67.0528 31.7715C67.1933 32.3597 67.4822 32.8048 67.9194 33.1067C68.3567 33.4034 68.9267 33.5517 69.6294 33.5517C70.3945 33.5517 71.0062 33.393 71.4642 33.0755C71.9223 32.7527 72.1513 32.3597 72.1513 31.8965C72.1513 31.5217 72.0108 31.2068 71.7297 30.9517C71.4538 30.6966 71.0296 30.5041 70.457 30.3739L68.4269 29.9289C67.3078 29.6738 66.4802 29.2678 65.944 28.7108C65.4131 28.1539 65.1476 27.4486 65.1476 26.5949C65.1476 25.887 65.3454 25.2675 65.741 24.7366C66.1366 24.2057 66.6832 23.7918 67.3807 23.4951C68.0782 23.1932 68.8772 23.0423 69.7777 23.0423C71.0738 23.0423 72.0941 23.3234 72.8384 23.8855C73.5828 24.4425 74.0747 25.1895 74.3141 26.1264ZM82.7135 23.1984V25.0723H76.1626V23.1984H82.7135ZM77.9194 20.3251H80.254V31.67C80.254 32.1229 80.3217 32.4638 80.457 32.6929C80.5923 32.9167 80.7667 33.0703 80.9801 33.1535C81.1987 33.2316 81.4356 33.2707 81.6906 33.2707C81.878 33.2707 82.042 33.2576 82.1825 33.2316C82.3231 33.2056 82.4324 33.1848 82.5105 33.1692L82.9321 35.0977C82.7968 35.1498 82.6042 35.2018 82.3543 35.2539C82.1045 35.3111 81.7922 35.3424 81.4174 35.3476C80.8031 35.358 80.2306 35.2487 79.6996 35.0196C79.1687 34.7906 78.7393 34.4366 78.4113 33.9578C78.0834 33.4789 77.9194 32.8777 77.9194 32.1541V20.3251ZM88.7861 35.4569C88.0261 35.4569 87.339 35.3163 86.7248 35.0352C86.1106 34.749 85.6239 34.3351 85.2647 33.7938C84.9108 33.2524 84.7338 32.5888 84.7338 31.8028C84.7338 31.1261 84.8639 30.5691 85.1242 30.1319C85.3844 29.6946 85.7358 29.3485 86.1782 29.0934C86.6207 28.8384 87.1152 28.6458 87.6618 28.5156C88.2083 28.3855 88.7653 28.2866 89.3326 28.2189C90.051 28.1357 90.634 28.068 91.0816 28.0159C91.5293 27.9587 91.8546 27.8676 92.0576 27.7427C92.2606 27.6177 92.3621 27.4147 92.3621 27.1336V27.079C92.3621 26.3971 92.1695 25.8688 91.7843 25.494C91.4043 25.1192 90.837 24.9318 90.0822 24.9318C89.2962 24.9318 88.6768 25.1062 88.2239 25.4549C87.7763 25.7985 87.4666 26.1811 87.2948 26.6027L85.1008 26.103C85.361 25.3743 85.741 24.7861 86.2407 24.3384C86.7456 23.8855 87.326 23.5576 87.9819 23.3546C88.6377 23.1464 89.3274 23.0423 90.051 23.0423C90.5299 23.0423 91.0374 23.0995 91.5735 23.2141C92.1149 23.3234 92.6198 23.5264 93.0883 23.8231C93.5619 24.1198 93.9497 24.544 94.2516 25.0958C94.5535 25.6423 94.7045 26.3528 94.7045 27.2273V35.1914H92.4246V33.5517H92.3309C92.1799 33.8536 91.9535 34.1504 91.6516 34.4418C91.3497 34.7333 90.9619 34.9754 90.4882 35.168C90.0145 35.3606 89.4472 35.4569 88.7861 35.4569ZM89.2936 33.583C89.9391 33.583 90.4908 33.4554 90.9489 33.2004C91.4122 32.9453 91.7635 32.6122 92.003 32.201C92.2476 31.7846 92.3699 31.3395 92.3699 30.8658V29.3199C92.2866 29.4031 92.1253 29.4812 91.8858 29.5541C91.6516 29.6218 91.3835 29.6816 91.0816 29.7337C90.7797 29.7805 90.4856 29.8248 90.1993 29.8664C89.913 29.9028 89.6736 29.9341 89.481 29.9601C89.0281 30.0174 88.6143 30.1137 88.2395 30.249C87.87 30.3843 87.5733 30.5795 87.3494 30.8346C87.1308 31.0844 87.0215 31.4176 87.0215 31.834C87.0215 32.4118 87.2349 32.849 87.6618 33.1457C88.0886 33.4372 88.6325 33.583 89.2936 33.583ZM99.9612 31.1235L99.9456 28.2736H100.352L105.13 23.1984H107.925L102.475 28.9763H102.108L99.9612 31.1235ZM97.814 35.1914V19.2008H100.149V35.1914H97.814ZM105.388 35.1914L101.093 29.4916L102.702 27.8598L108.253 35.1914H105.388ZM114.728 35.4335C113.546 35.4335 112.529 35.181 111.675 34.6761C110.827 34.166 110.171 33.4502 109.707 32.5289C109.249 31.6024 109.02 30.5171 109.02 29.273C109.02 28.0446 109.249 26.9619 109.707 26.0249C110.171 25.088 110.816 24.3566 111.644 23.8309C112.477 23.3052 113.45 23.0423 114.564 23.0423C115.241 23.0423 115.896 23.1542 116.532 23.378C117.167 23.6019 117.737 23.9532 118.241 24.4321C118.746 24.911 119.145 25.533 119.436 26.2982C119.728 27.0582 119.873 27.9821 119.873 29.07V29.8976H110.34V28.1487H117.586C117.586 27.5344 117.461 26.9905 117.211 26.5168C116.961 26.0379 116.61 25.6605 116.157 25.3847C115.709 25.1088 115.183 24.9708 114.58 24.9708C113.924 24.9708 113.351 25.1322 112.862 25.4549C112.378 25.7725 112.003 26.1889 111.737 26.7042C111.477 27.2143 111.347 27.7687 111.347 28.3673V29.7337C111.347 30.5353 111.488 31.2172 111.769 31.7793C112.055 32.3415 112.453 32.771 112.963 33.0677C113.473 33.3591 114.069 33.5049 114.751 33.5049C115.194 33.5049 115.597 33.4424 115.962 33.3175C116.326 33.1874 116.641 32.9948 116.906 32.7397C117.172 32.4847 117.375 32.1697 117.515 31.795L119.725 32.1932C119.548 32.8438 119.23 33.4138 118.772 33.9031C118.32 34.3872 117.75 34.7646 117.062 35.0352C116.381 35.3007 115.602 35.4335 114.728 35.4335ZM124.798 28.0706V35.1914H122.464V19.2008H124.767V25.1504H124.915C125.196 24.505 125.626 23.9922 126.204 23.6123C126.781 23.2323 127.536 23.0423 128.468 23.0423C129.29 23.0423 130.009 23.2115 130.623 23.5498C131.242 23.8881 131.721 24.3931 132.06 25.0645C132.403 25.7308 132.575 26.5637 132.575 27.5631V35.1914H130.24V27.8442C130.24 26.9645 130.014 26.2826 129.561 25.7985C129.108 25.3092 128.478 25.0645 127.671 25.0645C127.12 25.0645 126.625 25.1817 126.188 25.4159C125.756 25.6501 125.415 25.9937 125.165 26.4465C124.92 26.8942 124.798 27.4355 124.798 28.0706ZM140.742 35.4335C139.618 35.4335 138.636 35.1758 137.798 34.6605C136.96 34.1451 136.31 33.4242 135.846 32.4977C135.383 31.5711 135.151 30.4884 135.151 29.2496C135.151 28.0055 135.383 26.9176 135.846 25.9859C136.31 25.0541 136.96 24.3306 137.798 23.8153C138.636 23.2999 139.618 23.0423 140.742 23.0423C141.866 23.0423 142.847 23.2999 143.686 23.8153C144.524 24.3306 145.174 25.0541 145.637 25.9859C146.101 26.9176 146.332 28.0055 146.332 29.2496C146.332 30.4884 146.101 31.5711 145.637 32.4977C145.174 33.4242 144.524 34.1451 143.686 34.6605C142.847 35.1758 141.866 35.4335 140.742 35.4335ZM140.75 33.4737C141.478 33.4737 142.082 33.2811 142.561 32.8959C143.04 32.5107 143.394 31.998 143.623 31.3577C143.857 30.7175 143.974 30.0122 143.974 29.2418C143.974 28.4766 143.857 27.7739 143.623 27.1336C143.394 26.4882 143.04 25.9703 142.561 25.5799C142.082 25.1895 141.478 24.9943 140.75 24.9943C140.016 24.9943 139.407 25.1895 138.923 25.5799C138.444 25.9703 138.087 26.4882 137.853 27.1336C137.624 27.7739 137.509 28.4766 137.509 29.2418C137.509 30.0122 137.624 30.7175 137.853 31.3577C138.087 31.998 138.444 32.5107 138.923 32.8959C139.407 33.2811 140.016 33.4737 140.75 33.4737ZM151.273 19.2008V35.1914H148.938V19.2008H151.273ZM158.903 35.4256C157.935 35.4256 157.071 35.1784 156.311 34.6839C155.556 34.1842 154.963 33.4737 154.531 32.5523C154.104 31.6258 153.89 30.5145 153.89 29.2183C153.89 27.9222 154.106 26.8135 154.539 25.8922C154.976 24.9708 155.574 24.2655 156.334 23.7762C157.094 23.2869 157.956 23.0423 158.919 23.0423C159.663 23.0423 160.262 23.1672 160.715 23.4171C161.173 23.6617 161.527 23.948 161.776 24.2759C162.032 24.6039 162.229 24.8928 162.37 25.1426H162.51V19.2008H164.845V35.1914H162.565V33.3253H162.37C162.229 33.5804 162.026 33.8719 161.761 34.1998C161.501 34.5277 161.141 34.814 160.683 35.0587C160.225 35.3033 159.632 35.4256 158.903 35.4256ZM159.418 33.4346C160.09 33.4346 160.657 33.2576 161.121 32.9037C161.589 32.5445 161.943 32.0474 162.182 31.4124C162.427 30.7773 162.549 30.0382 162.549 29.1949C162.549 28.3621 162.43 27.6333 162.19 27.0087C161.951 26.3841 161.599 25.8974 161.136 25.5486C160.673 25.1999 160.1 25.0255 159.418 25.0255C158.716 25.0255 158.13 25.2077 157.662 25.5721C157.193 25.9364 156.839 26.4335 156.6 27.0634C156.366 27.6932 156.248 28.4037 156.248 29.1949C156.248 29.9965 156.368 30.7175 156.608 31.3577C156.847 31.998 157.201 32.5055 157.67 32.8803C158.143 33.2498 158.726 33.4346 159.418 33.4346ZM173.346 35.4335C172.164 35.4335 171.147 35.181 170.293 34.6761C169.444 34.166 168.789 33.4502 168.325 32.5289C167.867 31.6024 167.638 30.5171 167.638 29.273C167.638 28.0446 167.867 26.9619 168.325 26.0249C168.789 25.088 169.434 24.3566 170.262 23.8309C171.095 23.3052 172.068 23.0423 173.182 23.0423C173.859 23.0423 174.514 23.1542 175.149 23.378C175.785 23.6019 176.354 23.9532 176.859 24.4321C177.364 24.911 177.763 25.533 178.054 26.2982C178.346 27.0582 178.491 27.9821 178.491 29.07V29.8976H168.958V28.1487H176.204C176.204 27.5344 176.079 26.9905 175.829 26.5168C175.579 26.0379 175.228 25.6605 174.775 25.3847C174.327 25.1088 173.801 24.9708 173.197 24.9708C172.542 24.9708 171.969 25.1322 171.48 25.4549C170.996 25.7725 170.621 26.1889 170.355 26.7042C170.095 27.2143 169.965 27.7687 169.965 28.3673V29.7337C169.965 30.5353 170.106 31.2172 170.387 31.7793C170.673 32.3415 171.071 32.771 171.581 33.0677C172.091 33.3591 172.687 33.5049 173.369 33.5049C173.812 33.5049 174.215 33.4424 174.579 33.3175C174.944 33.1874 175.259 32.9948 175.524 32.7397C175.79 32.4847 175.993 32.1697 176.133 31.795L178.343 32.1932C178.166 32.8438 177.848 33.4138 177.39 33.9031C176.937 34.3872 176.368 34.7646 175.68 35.0352C174.999 35.3007 174.22 35.4335 173.346 35.4335ZM181.082 35.1914V23.1984H183.338V25.1036H183.463C183.682 24.4581 184.067 23.9506 184.619 23.581C185.175 23.2063 185.805 23.0189 186.508 23.0189C186.654 23.0189 186.826 23.0241 187.023 23.0345C187.226 23.0449 187.385 23.0579 187.5 23.0735V25.3066C187.406 25.2806 187.239 25.2519 187 25.2207C186.76 25.1843 186.521 25.166 186.282 25.166C185.73 25.166 185.238 25.2832 184.806 25.5174C184.379 25.7464 184.041 26.0666 183.791 26.4778C183.541 26.8838 183.416 27.3471 183.416 27.8676V35.1914H181.082Z" fill="white"/>
<defs>
<clipPath id="clip0_3358_33366">
<rect width="49.471" height="49.471" fill="white" transform="translate(0 32.9805)"/>
</clipPath>
</defs>
</svg>
