<svg width="127" height="96" viewBox="0 0 127 96" fill="none" xmlns="http://www.w3.org/2000/svg">
<g clip-path="url(#clip0_3358_33367)">
<path d="M85.8815 61.1826L92.1272 54.9369C94.4977 52.5665 97.7339 52.6901 99.3211 55.2255L102.805 60.7292L91.6737 71.8601L86.1701 68.3766C83.7996 66.8718 83.6553 63.4088 85.8815 61.1826Z" fill="#788BE6" stroke="#3A3CFF" stroke-width="3.29806" stroke-linecap="round" stroke-linejoin="round"/>
<path d="M102.799 60.7298L110.899 60.2351C115.414 59.9672 117.001 61.3482 117.496 65.6563L119.516 82.8063C119.949 86.4135 117.331 89.0107 113.744 88.5779L96.5941 86.5578C92.286 86.0425 90.7194 84.4759 91.1729 79.9617L91.647 71.8608" fill="#788BE6"/>
<path d="M102.799 60.7298L110.899 60.2351C115.414 59.9672 117.001 61.3482 117.496 65.6563L119.516 82.8063C119.949 86.4135 117.331 89.0107 113.744 88.5779L96.5941 86.5578C92.286 86.0425 90.7194 84.4759 91.1729 79.9617L91.647 71.8608" stroke="#3A3CFF" stroke-width="3.29806" stroke-linecap="round" stroke-linejoin="round"/>
<path d="M117.176 86.2312L110.93 79.9648" stroke="#F9FAFB" stroke-width="3.29806" stroke-linecap="round" stroke-linejoin="round"/>
</g>
<rect x="1.09986" y="1.09986" width="77.1858" height="53.1858" rx="18.689" fill="#788BE6"/>
<rect x="1.09986" y="1.09986" width="77.1858" height="53.1858" rx="18.689" stroke="#3A3CFF" stroke-width="2.19871"/>
<path d="M20.3591 23.1984V25.0723H13.8082V23.1984H20.3591ZM15.565 20.3251H17.8996V31.67C17.8996 32.1229 17.9672 32.4638 18.1026 32.6929C18.2379 32.9167 18.4123 33.0703 18.6257 33.1535C18.8443 33.2316 19.0812 33.2707 19.3362 33.2707C19.5236 33.2707 19.6876 33.2576 19.8281 33.2316C19.9687 33.2056 20.078 33.1848 20.1561 33.1692L20.5777 35.0977C20.4424 35.1498 20.2498 35.2018 19.9999 35.2539C19.7501 35.3111 19.4377 35.3424 19.063 35.3476C18.4487 35.358 17.8762 35.2487 17.3452 35.0196C16.8143 34.7906 16.3848 34.4366 16.0569 33.9578C15.729 33.4789 15.565 32.8777 15.565 32.1541V20.3251ZM27.9816 35.4335C26.8 35.4335 25.7823 35.181 24.9287 34.6761C24.0802 34.166 23.4243 33.4502 22.9611 32.5289C22.503 31.6024 22.274 30.5171 22.274 29.273C22.274 28.0446 22.503 26.9619 22.9611 26.0249C23.4243 25.088 24.0698 24.3566 24.8974 23.8309C25.7303 23.3052 26.7037 23.0423 27.8176 23.0423C28.4943 23.0423 29.1501 23.1542 29.7852 23.378C30.4202 23.6019 30.9902 23.9532 31.4951 24.4321C32 24.911 32.3982 25.533 32.6897 26.2982C32.9812 27.0582 33.127 27.9821 33.127 29.07V29.8976H23.5935V28.1487H30.8393C30.8393 27.5344 30.7143 26.9905 30.4645 26.5168C30.2146 26.0379 29.8633 25.6605 29.4104 25.3847C28.9627 25.1088 28.437 24.9708 27.8332 24.9708C27.1773 24.9708 26.6048 25.1322 26.1155 25.4549C25.6314 25.7725 25.2566 26.1889 24.9911 26.7042C24.7309 27.2143 24.6007 27.7687 24.6007 28.3673V29.7337C24.6007 30.5353 24.7413 31.2172 25.0224 31.7793C25.3086 32.3415 25.7068 32.771 26.217 33.0677C26.7271 33.3591 27.3231 33.5049 28.005 33.5049C28.4474 33.5049 28.8508 33.4424 29.2152 33.3175C29.5796 33.1874 29.8945 32.9948 30.16 32.7397C30.4254 32.4847 30.6284 32.1697 30.769 31.795L32.9786 32.1932C32.8016 32.8438 32.4841 33.4138 32.0261 33.9031C31.5732 34.3872 31.0032 34.7646 30.3161 35.0352C29.6342 35.3007 28.856 35.4335 27.9816 35.4335ZM39.2074 35.4569C38.4474 35.4569 37.7603 35.3163 37.1461 35.0352C36.5319 34.749 36.0452 34.3351 35.686 33.7938C35.3321 33.2524 35.1551 32.5888 35.1551 31.8028C35.1551 31.1261 35.2852 30.5691 35.5455 30.1319C35.8057 29.6946 36.1571 29.3485 36.5995 29.0934C37.042 28.8384 37.5365 28.6458 38.083 28.5156C38.6296 28.3855 39.1866 28.2866 39.7539 28.2189C40.4723 28.1357 41.0553 28.068 41.5029 28.0159C41.9506 27.9587 42.2759 27.8676 42.4789 27.7427C42.6819 27.6177 42.7834 27.4147 42.7834 27.1336V27.079C42.7834 26.3971 42.5908 25.8688 42.2056 25.494C41.8256 25.1192 41.2583 24.9318 40.5035 24.9318C39.7175 24.9318 39.0981 25.1062 38.6452 25.4549C38.1976 25.7985 37.8879 26.1811 37.7161 26.6027L35.5221 26.103C35.7823 25.3743 36.1623 24.7861 36.662 24.3384C37.1669 23.8855 37.7473 23.5576 38.4032 23.3546C39.059 23.1464 39.7487 23.0423 40.4723 23.0423C40.9512 23.0423 41.4587 23.0995 41.9948 23.2141C42.5362 23.3234 43.0411 23.5264 43.5096 23.8231C43.9832 24.1198 44.371 24.544 44.6729 25.0958C44.9748 25.6423 45.1258 26.3528 45.1258 27.2273V35.1914H42.8459V33.5517H42.7522C42.6012 33.8536 42.3748 34.1504 42.0729 34.4418C41.771 34.7333 41.3832 34.9754 40.9095 35.168C40.4358 35.3606 39.8685 35.4569 39.2074 35.4569ZM39.7149 33.583C40.3604 33.583 40.9121 33.4554 41.3702 33.2004C41.8335 32.9453 42.1848 32.6122 42.4243 32.201C42.6689 31.7846 42.7912 31.3395 42.7912 30.8658V29.3199C42.7079 29.4031 42.5466 29.4812 42.3071 29.5541C42.0729 29.6218 41.8048 29.6816 41.5029 29.7337C41.201 29.7805 40.9069 29.8248 40.6206 29.8664C40.3343 29.9028 40.0949 29.9341 39.9023 29.9601C39.4494 30.0174 39.0356 30.1137 38.6608 30.249C38.2913 30.3843 37.9946 30.5795 37.7707 30.8346C37.5521 31.0844 37.4428 31.4176 37.4428 31.834C37.4428 32.4118 37.6562 32.849 38.083 33.1457C38.5099 33.4372 39.0538 33.583 39.7149 33.583ZM48.2353 35.1914V23.1984H50.4762V25.1504H50.6245C50.8744 24.4894 51.283 23.974 51.8504 23.6045C52.4177 23.2297 53.097 23.0423 53.8882 23.0423C54.6898 23.0423 55.3613 23.2297 55.9027 23.6045C56.4492 23.9792 56.8526 24.4946 57.1129 25.1504H57.2378C57.5241 24.5102 57.9796 24.0001 58.6042 23.6201C59.2288 23.2349 59.9732 23.0423 60.8373 23.0423C61.9252 23.0423 62.8127 23.3832 63.4998 24.0651C64.1921 24.747 64.5382 25.7751 64.5382 27.1493V35.1914H62.2037V27.3679C62.2037 26.5558 61.9824 25.9677 61.54 25.6033C61.0975 25.2389 60.5692 25.0567 59.955 25.0567C59.195 25.0567 58.6042 25.291 58.1826 25.7594C57.761 26.2227 57.5501 26.8187 57.5501 27.5475V35.1914H55.2234V27.2195C55.2234 26.5689 55.0204 26.0457 54.6144 25.6501C54.2084 25.2545 53.68 25.0567 53.0294 25.0567C52.5869 25.0567 52.1783 25.1738 51.8035 25.4081C51.4339 25.6371 51.1346 25.9572 50.9056 26.3685C50.6818 26.7797 50.5699 27.256 50.5699 27.7973V35.1914H48.2353Z" fill="white"/>
<defs>
<clipPath id="clip0_3358_33367">
<rect width="49.471" height="49.471" fill="white" transform="matrix(-1 0 0 1 126.672 46.1992)"/>
</clipPath>
</defs>
</svg>
