<svg width="124" height="64" viewBox="0 0 124 64" fill="none" xmlns="http://www.w3.org/2000/svg">
<g clip-path="url(#clip0_3358_33365)">
<path d="M40.7904 34.4892L34.5447 40.7349C32.1742 43.1054 28.938 42.9817 27.3508 40.4464L23.8672 34.9427L34.9982 23.8117L40.5018 27.2953C42.8723 28.8001 43.0166 32.263 40.7904 34.4892Z" fill="#788BE6" stroke="#3A3CFF" stroke-width="3.29806" stroke-linecap="round" stroke-linejoin="round"/>
<path d="M23.8733 34.942L15.7724 35.4367C11.2582 35.7047 9.67099 34.3236 9.17628 30.0156L7.15621 12.8656C6.72334 9.25836 9.34118 6.66113 12.9278 7.094L30.0778 9.11407C34.3859 9.62939 35.9524 11.196 35.499 15.7102L35.0249 23.8111" fill="#788BE6"/>
<path d="M23.8733 34.942L15.7724 35.4367C11.2582 35.7047 9.67099 34.3236 9.17628 30.0156L7.15621 12.8656C6.72334 9.25836 9.34118 6.66113 12.9278 7.094L30.0778 9.11407C34.3859 9.62939 35.9524 11.196 35.499 15.7102L35.0249 23.8111" stroke="#3A3CFF" stroke-width="3.29806" stroke-linecap="round" stroke-linejoin="round"/>
<path d="M9.49609 9.44071L15.7418 15.707" stroke="#F9FAFB" stroke-width="3.29806" stroke-linecap="round" stroke-linejoin="round"/>
</g>
<rect x="58.9006" y="8.90065" width="63.1858" height="53.1858" rx="18.689" fill="#788BE6"/>
<rect x="58.9006" y="8.90065" width="63.1858" height="53.1858" rx="18.689" stroke="#3A3CFF" stroke-width="2.19871"/>
<path d="M74.0373 47.4895C73.6885 47.4895 73.371 47.4609 73.0847 47.4037C72.7984 47.3516 72.585 47.2944 72.4445 47.2319L73.0066 45.3189C73.4335 45.4335 73.8134 45.4829 74.1466 45.4673C74.4797 45.4517 74.7738 45.3268 75.0289 45.0925C75.2891 44.8583 75.5182 44.4757 75.716 43.9448L76.0049 43.1483L71.6168 30.9992H74.1154L77.1526 40.3063H77.2776L80.3148 30.9992H82.8212L77.8788 44.5928C77.6497 45.2174 77.3582 45.7458 77.0043 46.1778C76.6503 46.6151 76.2287 46.943 75.7394 47.1616C75.2501 47.3802 74.6827 47.4895 74.0373 47.4895ZM89.659 43.2342C88.5346 43.2342 87.5534 42.9766 86.7154 42.4612C85.8773 41.9459 85.2267 41.225 84.7634 40.2985C84.3001 39.3719 84.0685 38.2892 84.0685 37.0504C84.0685 35.8063 84.3001 34.7184 84.7634 33.7867C85.2267 32.8549 85.8773 32.1314 86.7154 31.6161C87.5534 31.1007 88.5346 30.8431 89.659 30.8431C90.7833 30.8431 91.7645 31.1007 92.6026 31.6161C93.4406 32.1314 94.0913 32.8549 94.5545 33.7867C95.0178 34.7184 95.2494 35.8063 95.2494 37.0504C95.2494 38.2892 95.0178 39.3719 94.5545 40.2985C94.0913 41.225 93.4406 41.9459 92.6026 42.4612C91.7645 42.9766 90.7833 43.2342 89.659 43.2342ZM89.6668 41.2744C90.3955 41.2744 90.9993 41.0819 91.4782 40.6967C91.9571 40.3115 92.3111 39.7987 92.5401 39.1585C92.7743 38.5183 92.8914 37.8129 92.8914 37.0426C92.8914 36.2774 92.7743 35.5747 92.5401 34.9344C92.3111 34.289 91.9571 33.771 91.4782 33.3806C90.9993 32.9902 90.3955 32.795 89.6668 32.795C88.9328 32.795 88.3238 32.9902 87.8397 33.3806C87.3608 33.771 87.0043 34.289 86.77 34.9344C86.541 35.5747 86.4265 36.2774 86.4265 37.0426C86.4265 37.8129 86.541 38.5183 86.77 39.1585C87.0043 39.7987 87.3608 40.3115 87.8397 40.6967C88.3238 41.0819 88.9328 41.2744 89.6668 41.2744ZM105.452 38.0185V30.9992H107.795V42.9922H105.499V40.9153H105.374C105.098 41.5555 104.656 42.0891 104.047 42.5159C103.443 42.9375 102.691 43.1483 101.791 43.1483C101.02 43.1483 100.338 42.9792 99.7448 42.6408C99.1566 42.2973 98.6934 41.7898 98.355 41.1183C98.0219 40.4468 97.8553 39.6166 97.8553 38.6276V30.9992H100.19V38.3465C100.19 39.1637 100.416 39.8144 100.869 40.2985C101.322 40.7825 101.91 41.0246 102.634 41.0246C103.071 41.0246 103.506 40.9153 103.938 40.6967C104.375 40.478 104.737 40.1475 105.023 39.7051C105.314 39.2626 105.458 38.7004 105.452 38.0185Z" fill="white"/>
<defs>
<clipPath id="clip0_3358_33365">
<rect width="49.471" height="49.471" fill="white" transform="matrix(1 0 0 -1 0 49.4727)"/>
</clipPath>
</defs>
</svg>
