<svg width="1028" height="1028" viewBox="0 0 1028 1028" fill="none" xmlns="http://www.w3.org/2000/svg">
<rect width="1028" height="1028" fill="#3A3CFF"/>
<path d="M257.01 607.063H219.993L262.83 335H299.85L257.01 607.063Z" fill="white"/>
<path d="M149.896 607.064H112.825V403.486C112.825 390.441 115.446 378.776 120.688 368.491C126.18 358.205 134.169 350.052 144.654 344.031C155.138 338.01 167.995 335 183.223 335C189.464 335 195.33 335.627 200.822 336.881C206.564 337.885 211.807 339.516 216.55 341.773V377.145C212.306 374.386 207.563 372.379 202.32 371.125C197.327 369.619 192.085 368.867 186.593 368.867C175.359 368.867 166.372 371.626 159.632 377.145C153.141 382.414 149.896 391.194 149.896 403.486V607.064ZM214.303 455.039H78V422.678H214.303V455.039Z" fill="white"/>
<path d="M401.938 611.596C383.326 611.596 366.601 607.192 351.762 598.384C336.923 589.576 325.102 577.874 316.3 563.278C307.497 548.431 303.096 532.073 303.096 514.205C303.096 496.338 307.497 480.106 316.3 465.51C325.102 450.914 336.923 439.338 351.762 430.782C366.601 421.974 383.326 417.57 401.938 417.57C420.549 417.57 437.275 421.974 452.114 430.782C466.953 439.338 478.648 451.04 487.199 465.887C495.75 480.484 500.026 496.589 500.026 514.205C500.026 532.073 495.75 548.431 487.199 563.278C478.648 577.874 466.827 589.576 451.736 598.384C436.897 607.192 420.298 611.596 401.938 611.596ZM401.938 576.113C413.507 576.113 423.819 573.344 432.873 567.808C442.179 562.272 449.473 554.848 454.754 545.536C460.036 535.974 462.677 525.656 462.677 514.583C462.677 503.258 460.036 492.94 454.754 483.629C449.473 474.318 442.179 466.894 432.873 461.358C423.819 455.57 413.507 452.676 401.938 452.676C390.369 452.676 379.931 455.57 370.625 461.358C361.571 466.894 354.277 474.318 348.744 483.629C343.211 492.94 340.444 503.258 340.444 514.583C340.444 525.656 343.211 535.974 348.744 545.536C354.277 554.848 361.571 562.272 370.625 567.808C379.931 573.344 390.369 576.113 401.938 576.113Z" fill="white"/>
<path d="M627.124 611.596C608.512 611.596 591.787 607.192 576.948 598.384C562.109 589.576 550.288 577.874 541.485 563.278C532.683 548.431 528.281 532.073 528.281 514.205C528.281 496.338 532.683 480.106 541.485 465.51C550.288 450.914 562.109 439.338 576.948 430.782C591.787 421.974 608.512 417.57 627.124 417.57C645.735 417.57 662.46 421.974 677.299 430.782C692.138 439.338 703.833 451.04 712.385 465.887C720.936 480.484 725.212 496.589 725.212 514.205C725.212 532.073 720.936 548.431 712.385 563.278C703.833 577.874 692.013 589.576 676.922 598.384C662.083 607.192 645.484 611.596 627.124 611.596ZM627.124 576.113C638.693 576.113 649.005 573.344 658.059 567.808C667.365 562.272 674.659 554.848 679.94 545.536C685.222 535.974 687.863 525.656 687.863 514.583C687.863 503.258 685.222 492.94 679.94 483.629C674.659 474.318 667.365 466.894 658.059 461.358C649.005 455.57 638.693 452.676 627.124 452.676C615.554 452.676 605.117 455.57 595.811 461.358C586.757 466.894 579.463 474.318 573.93 483.629C568.397 492.94 565.63 503.258 565.63 514.583C565.63 525.656 568.397 535.974 573.93 545.536C579.463 554.848 586.757 562.272 595.811 567.808C605.117 573.344 615.554 576.113 627.124 576.113Z" fill="white"/>
<path d="M790.796 692H753.447V514.205C753.447 495.834 757.723 479.351 766.274 464.755C775.077 450.159 786.897 438.709 801.736 430.404C816.575 421.848 833.301 417.57 851.912 417.57C870.524 417.57 887.249 421.974 902.088 430.782C916.927 439.338 928.622 451.04 937.173 465.887C945.724 480.484 950 496.589 950 514.205C950 532.828 945.85 549.563 937.55 564.411C929.251 579.007 917.807 590.583 903.22 599.139C888.884 607.444 872.284 611.596 853.421 611.596C838.582 611.596 824.875 608.073 812.3 601.027C799.976 593.98 790.041 584.795 782.496 573.47C775.202 561.894 771.555 549.311 771.555 535.722L790.796 545.536V692ZM851.912 576.49C863.481 576.49 873.793 573.722 882.847 568.185C892.153 562.397 899.447 554.848 904.729 545.536C910.01 535.974 912.651 525.656 912.651 514.583C912.651 503.258 910.01 492.94 904.729 483.629C899.447 474.318 892.153 466.894 882.847 461.358C873.793 455.821 863.481 453.053 851.912 453.053C840.343 453.053 829.905 455.821 820.599 461.358C811.545 466.894 804.251 474.318 798.718 483.629C793.437 492.94 790.796 503.258 790.796 514.583C790.796 525.656 793.437 535.974 798.718 545.536C804.251 554.848 811.545 562.397 820.599 568.185C829.905 573.722 840.343 576.49 851.912 576.49Z" fill="white"/>
</svg>
